%TF.GenerationSoftware,KiCad,Pcbnew,(6.0.4)*%
%TF.CreationDate,2023-01-25T11:34:55+09:00*%
%TF.ProjectId,naraetracker-usb-convertor,6e617261-6574-4726-9163-6b65722d7573,rev?*%
%TF.SameCoordinates,Original*%
%TF.FileFunction,Legend,Top*%
%TF.FilePolarity,Positive*%
%FSLAX46Y46*%
G04 Gerber Fmt 4.6, Leading zero omitted, Abs format (unit mm)*
G04 Created by KiCad (PCBNEW (6.0.4)) date 2023-01-25 11:34:55*
%MOMM*%
%LPD*%
G01*
G04 APERTURE LIST*
%ADD10C,0.150000*%
%ADD11C,0.200000*%
%ADD12C,0.120000*%
%ADD13C,0.250000*%
G04 APERTURE END LIST*
D10*
X119381047Y-96627904D02*
X119381047Y-95827904D01*
X119838190Y-96627904D01*
X119838190Y-95827904D01*
X120562000Y-96627904D02*
X120562000Y-96208857D01*
X120523904Y-96132666D01*
X120447714Y-96094571D01*
X120295333Y-96094571D01*
X120219142Y-96132666D01*
X120562000Y-96589809D02*
X120485809Y-96627904D01*
X120295333Y-96627904D01*
X120219142Y-96589809D01*
X120181047Y-96513619D01*
X120181047Y-96437428D01*
X120219142Y-96361238D01*
X120295333Y-96323142D01*
X120485809Y-96323142D01*
X120562000Y-96285047D01*
X120942952Y-96627904D02*
X120942952Y-96094571D01*
X120942952Y-96246952D02*
X120981047Y-96170761D01*
X121019142Y-96132666D01*
X121095333Y-96094571D01*
X121171523Y-96094571D01*
X121781047Y-96627904D02*
X121781047Y-96208857D01*
X121742952Y-96132666D01*
X121666761Y-96094571D01*
X121514380Y-96094571D01*
X121438190Y-96132666D01*
X121781047Y-96589809D02*
X121704857Y-96627904D01*
X121514380Y-96627904D01*
X121438190Y-96589809D01*
X121400095Y-96513619D01*
X121400095Y-96437428D01*
X121438190Y-96361238D01*
X121514380Y-96323142D01*
X121704857Y-96323142D01*
X121781047Y-96285047D01*
X122466761Y-96589809D02*
X122390571Y-96627904D01*
X122238190Y-96627904D01*
X122162000Y-96589809D01*
X122123904Y-96513619D01*
X122123904Y-96208857D01*
X122162000Y-96132666D01*
X122238190Y-96094571D01*
X122390571Y-96094571D01*
X122466761Y-96132666D01*
X122504857Y-96208857D01*
X122504857Y-96285047D01*
X122123904Y-96361238D01*
X122733428Y-95827904D02*
X123190571Y-95827904D01*
X122962000Y-96627904D02*
X122962000Y-95827904D01*
X123457238Y-96627904D02*
X123457238Y-96094571D01*
X123457238Y-96246952D02*
X123495333Y-96170761D01*
X123533428Y-96132666D01*
X123609619Y-96094571D01*
X123685809Y-96094571D01*
X124295333Y-96627904D02*
X124295333Y-96208857D01*
X124257238Y-96132666D01*
X124181047Y-96094571D01*
X124028666Y-96094571D01*
X123952476Y-96132666D01*
X124295333Y-96589809D02*
X124219142Y-96627904D01*
X124028666Y-96627904D01*
X123952476Y-96589809D01*
X123914380Y-96513619D01*
X123914380Y-96437428D01*
X123952476Y-96361238D01*
X124028666Y-96323142D01*
X124219142Y-96323142D01*
X124295333Y-96285047D01*
X125019142Y-96589809D02*
X124942952Y-96627904D01*
X124790571Y-96627904D01*
X124714380Y-96589809D01*
X124676285Y-96551714D01*
X124638190Y-96475523D01*
X124638190Y-96246952D01*
X124676285Y-96170761D01*
X124714380Y-96132666D01*
X124790571Y-96094571D01*
X124942952Y-96094571D01*
X125019142Y-96132666D01*
X125362000Y-96627904D02*
X125362000Y-95827904D01*
X125438190Y-96323142D02*
X125666761Y-96627904D01*
X125666761Y-96094571D02*
X125362000Y-96399333D01*
X126314380Y-96589809D02*
X126238190Y-96627904D01*
X126085809Y-96627904D01*
X126009619Y-96589809D01*
X125971523Y-96513619D01*
X125971523Y-96208857D01*
X126009619Y-96132666D01*
X126085809Y-96094571D01*
X126238190Y-96094571D01*
X126314380Y-96132666D01*
X126352476Y-96208857D01*
X126352476Y-96285047D01*
X125971523Y-96361238D01*
X126695333Y-96627904D02*
X126695333Y-96094571D01*
X126695333Y-96246952D02*
X126733428Y-96170761D01*
X126771523Y-96132666D01*
X126847714Y-96094571D01*
X126923904Y-96094571D01*
X127800095Y-95827904D02*
X127800095Y-96475523D01*
X127838190Y-96551714D01*
X127876285Y-96589809D01*
X127952476Y-96627904D01*
X128104857Y-96627904D01*
X128181047Y-96589809D01*
X128219142Y-96551714D01*
X128257238Y-96475523D01*
X128257238Y-95827904D01*
X128600095Y-96589809D02*
X128714380Y-96627904D01*
X128904857Y-96627904D01*
X128981047Y-96589809D01*
X129019142Y-96551714D01*
X129057238Y-96475523D01*
X129057238Y-96399333D01*
X129019142Y-96323142D01*
X128981047Y-96285047D01*
X128904857Y-96246952D01*
X128752476Y-96208857D01*
X128676285Y-96170761D01*
X128638190Y-96132666D01*
X128600095Y-96056476D01*
X128600095Y-95980285D01*
X128638190Y-95904095D01*
X128676285Y-95866000D01*
X128752476Y-95827904D01*
X128942952Y-95827904D01*
X129057238Y-95866000D01*
X129666761Y-96208857D02*
X129781047Y-96246952D01*
X129819142Y-96285047D01*
X129857238Y-96361238D01*
X129857238Y-96475523D01*
X129819142Y-96551714D01*
X129781047Y-96589809D01*
X129704857Y-96627904D01*
X129400095Y-96627904D01*
X129400095Y-95827904D01*
X129666761Y-95827904D01*
X129742952Y-95866000D01*
X129781047Y-95904095D01*
X129819142Y-95980285D01*
X129819142Y-96056476D01*
X129781047Y-96132666D01*
X129742952Y-96170761D01*
X129666761Y-96208857D01*
X129400095Y-96208857D01*
X131266761Y-96551714D02*
X131228666Y-96589809D01*
X131114380Y-96627904D01*
X131038190Y-96627904D01*
X130923904Y-96589809D01*
X130847714Y-96513619D01*
X130809619Y-96437428D01*
X130771523Y-96285047D01*
X130771523Y-96170761D01*
X130809619Y-96018380D01*
X130847714Y-95942190D01*
X130923904Y-95866000D01*
X131038190Y-95827904D01*
X131114380Y-95827904D01*
X131228666Y-95866000D01*
X131266761Y-95904095D01*
X131723904Y-96627904D02*
X131647714Y-96589809D01*
X131609619Y-96551714D01*
X131571523Y-96475523D01*
X131571523Y-96246952D01*
X131609619Y-96170761D01*
X131647714Y-96132666D01*
X131723904Y-96094571D01*
X131838190Y-96094571D01*
X131914380Y-96132666D01*
X131952476Y-96170761D01*
X131990571Y-96246952D01*
X131990571Y-96475523D01*
X131952476Y-96551714D01*
X131914380Y-96589809D01*
X131838190Y-96627904D01*
X131723904Y-96627904D01*
X132333428Y-96094571D02*
X132333428Y-96627904D01*
X132333428Y-96170761D02*
X132371523Y-96132666D01*
X132447714Y-96094571D01*
X132562000Y-96094571D01*
X132638190Y-96132666D01*
X132676285Y-96208857D01*
X132676285Y-96627904D01*
X132981047Y-96094571D02*
X133171523Y-96627904D01*
X133362000Y-96094571D01*
X133971523Y-96589809D02*
X133895333Y-96627904D01*
X133742952Y-96627904D01*
X133666761Y-96589809D01*
X133628666Y-96513619D01*
X133628666Y-96208857D01*
X133666761Y-96132666D01*
X133742952Y-96094571D01*
X133895333Y-96094571D01*
X133971523Y-96132666D01*
X134009619Y-96208857D01*
X134009619Y-96285047D01*
X133628666Y-96361238D01*
X134352476Y-96627904D02*
X134352476Y-96094571D01*
X134352476Y-96246952D02*
X134390571Y-96170761D01*
X134428666Y-96132666D01*
X134504857Y-96094571D01*
X134581047Y-96094571D01*
X134733428Y-96094571D02*
X135038190Y-96094571D01*
X134847714Y-95827904D02*
X134847714Y-96513619D01*
X134885809Y-96589809D01*
X134962000Y-96627904D01*
X135038190Y-96627904D01*
X135419142Y-96627904D02*
X135342952Y-96589809D01*
X135304857Y-96551714D01*
X135266761Y-96475523D01*
X135266761Y-96246952D01*
X135304857Y-96170761D01*
X135342952Y-96132666D01*
X135419142Y-96094571D01*
X135533428Y-96094571D01*
X135609619Y-96132666D01*
X135647714Y-96170761D01*
X135685809Y-96246952D01*
X135685809Y-96475523D01*
X135647714Y-96551714D01*
X135609619Y-96589809D01*
X135533428Y-96627904D01*
X135419142Y-96627904D01*
X136028666Y-96627904D02*
X136028666Y-96094571D01*
X136028666Y-96246952D02*
X136066761Y-96170761D01*
X136104857Y-96132666D01*
X136181047Y-96094571D01*
X136257238Y-96094571D01*
D11*
X110418666Y-83510380D02*
X110418666Y-82510380D01*
X110799619Y-82510380D01*
X110894857Y-82558000D01*
X110942476Y-82605619D01*
X110990095Y-82700857D01*
X110990095Y-82843714D01*
X110942476Y-82938952D01*
X110894857Y-82986571D01*
X110799619Y-83034190D01*
X110418666Y-83034190D01*
X111323428Y-82510380D02*
X111561523Y-83510380D01*
X111752000Y-82796095D01*
X111942476Y-83510380D01*
X112180571Y-82510380D01*
X114641333Y-83510380D02*
X114308000Y-83034190D01*
X114069904Y-83510380D02*
X114069904Y-82510380D01*
X114450857Y-82510380D01*
X114546095Y-82558000D01*
X114593714Y-82605619D01*
X114641333Y-82700857D01*
X114641333Y-82843714D01*
X114593714Y-82938952D01*
X114546095Y-82986571D01*
X114450857Y-83034190D01*
X114069904Y-83034190D01*
X114974666Y-82510380D02*
X115641333Y-83510380D01*
X115641333Y-82510380D02*
X114974666Y-83510380D01*
X117348095Y-82510380D02*
X117919523Y-82510380D01*
X117633809Y-83510380D02*
X117633809Y-82510380D01*
X118157619Y-82510380D02*
X118824285Y-83510380D01*
X118824285Y-82510380D02*
X118157619Y-83510380D01*
D10*
%TO.C,U2*%
X121158095Y-81494380D02*
X121158095Y-82303904D01*
X121205714Y-82399142D01*
X121253333Y-82446761D01*
X121348571Y-82494380D01*
X121539047Y-82494380D01*
X121634285Y-82446761D01*
X121681904Y-82399142D01*
X121729523Y-82303904D01*
X121729523Y-81494380D01*
X122158095Y-81589619D02*
X122205714Y-81542000D01*
X122300952Y-81494380D01*
X122539047Y-81494380D01*
X122634285Y-81542000D01*
X122681904Y-81589619D01*
X122729523Y-81684857D01*
X122729523Y-81780095D01*
X122681904Y-81922952D01*
X122110476Y-82494380D01*
X122729523Y-82494380D01*
%TO.C,C1*%
X109577142Y-96165666D02*
X109624761Y-96213285D01*
X109672380Y-96356142D01*
X109672380Y-96451380D01*
X109624761Y-96594238D01*
X109529523Y-96689476D01*
X109434285Y-96737095D01*
X109243809Y-96784714D01*
X109100952Y-96784714D01*
X108910476Y-96737095D01*
X108815238Y-96689476D01*
X108720000Y-96594238D01*
X108672380Y-96451380D01*
X108672380Y-96356142D01*
X108720000Y-96213285D01*
X108767619Y-96165666D01*
X109672380Y-95213285D02*
X109672380Y-95784714D01*
X109672380Y-95499000D02*
X108672380Y-95499000D01*
X108815238Y-95594238D01*
X108910476Y-95689476D01*
X108958095Y-95784714D01*
%TO.C,R4*%
X130897333Y-83864380D02*
X130564000Y-83388190D01*
X130325904Y-83864380D02*
X130325904Y-82864380D01*
X130706857Y-82864380D01*
X130802095Y-82912000D01*
X130849714Y-82959619D01*
X130897333Y-83054857D01*
X130897333Y-83197714D01*
X130849714Y-83292952D01*
X130802095Y-83340571D01*
X130706857Y-83388190D01*
X130325904Y-83388190D01*
X131754476Y-83197714D02*
X131754476Y-83864380D01*
X131516380Y-82816761D02*
X131278285Y-83531047D01*
X131897333Y-83531047D01*
%TO.C,C5*%
X123023333Y-81129142D02*
X122975714Y-81176761D01*
X122832857Y-81224380D01*
X122737619Y-81224380D01*
X122594761Y-81176761D01*
X122499523Y-81081523D01*
X122451904Y-80986285D01*
X122404285Y-80795809D01*
X122404285Y-80652952D01*
X122451904Y-80462476D01*
X122499523Y-80367238D01*
X122594761Y-80272000D01*
X122737619Y-80224380D01*
X122832857Y-80224380D01*
X122975714Y-80272000D01*
X123023333Y-80319619D01*
X123928095Y-80224380D02*
X123451904Y-80224380D01*
X123404285Y-80700571D01*
X123451904Y-80652952D01*
X123547142Y-80605333D01*
X123785238Y-80605333D01*
X123880476Y-80652952D01*
X123928095Y-80700571D01*
X123975714Y-80795809D01*
X123975714Y-81033904D01*
X123928095Y-81129142D01*
X123880476Y-81176761D01*
X123785238Y-81224380D01*
X123547142Y-81224380D01*
X123451904Y-81176761D01*
X123404285Y-81129142D01*
%TO.C,C3*%
X109831142Y-90082666D02*
X109878761Y-90130285D01*
X109926380Y-90273142D01*
X109926380Y-90368380D01*
X109878761Y-90511238D01*
X109783523Y-90606476D01*
X109688285Y-90654095D01*
X109497809Y-90701714D01*
X109354952Y-90701714D01*
X109164476Y-90654095D01*
X109069238Y-90606476D01*
X108974000Y-90511238D01*
X108926380Y-90368380D01*
X108926380Y-90273142D01*
X108974000Y-90130285D01*
X109021619Y-90082666D01*
X108926380Y-89749333D02*
X108926380Y-89130285D01*
X109307333Y-89463619D01*
X109307333Y-89320761D01*
X109354952Y-89225523D01*
X109402571Y-89177904D01*
X109497809Y-89130285D01*
X109735904Y-89130285D01*
X109831142Y-89177904D01*
X109878761Y-89225523D01*
X109926380Y-89320761D01*
X109926380Y-89606476D01*
X109878761Y-89701714D01*
X109831142Y-89749333D01*
%TO.C,LEDRX1*%
X111950761Y-79446380D02*
X111474571Y-79446380D01*
X111474571Y-78446380D01*
X112284095Y-78922571D02*
X112617428Y-78922571D01*
X112760285Y-79446380D02*
X112284095Y-79446380D01*
X112284095Y-78446380D01*
X112760285Y-78446380D01*
X113188857Y-79446380D02*
X113188857Y-78446380D01*
X113426952Y-78446380D01*
X113569809Y-78494000D01*
X113665047Y-78589238D01*
X113712666Y-78684476D01*
X113760285Y-78874952D01*
X113760285Y-79017809D01*
X113712666Y-79208285D01*
X113665047Y-79303523D01*
X113569809Y-79398761D01*
X113426952Y-79446380D01*
X113188857Y-79446380D01*
X114760285Y-79446380D02*
X114426952Y-78970190D01*
X114188857Y-79446380D02*
X114188857Y-78446380D01*
X114569809Y-78446380D01*
X114665047Y-78494000D01*
X114712666Y-78541619D01*
X114760285Y-78636857D01*
X114760285Y-78779714D01*
X114712666Y-78874952D01*
X114665047Y-78922571D01*
X114569809Y-78970190D01*
X114188857Y-78970190D01*
X115093619Y-78446380D02*
X115760285Y-79446380D01*
X115760285Y-78446380D02*
X115093619Y-79446380D01*
X116665047Y-79446380D02*
X116093619Y-79446380D01*
X116379333Y-79446380D02*
X116379333Y-78446380D01*
X116284095Y-78589238D01*
X116188857Y-78684476D01*
X116093619Y-78732095D01*
%TO.C,LEDPW1*%
X108378023Y-79446380D02*
X107901833Y-79446380D01*
X107901833Y-78446380D01*
X108711357Y-78922571D02*
X109044690Y-78922571D01*
X109187547Y-79446380D02*
X108711357Y-79446380D01*
X108711357Y-78446380D01*
X109187547Y-78446380D01*
X109616119Y-79446380D02*
X109616119Y-78446380D01*
X109854214Y-78446380D01*
X109997071Y-78494000D01*
X110092309Y-78589238D01*
X110139928Y-78684476D01*
X110187547Y-78874952D01*
X110187547Y-79017809D01*
X110139928Y-79208285D01*
X110092309Y-79303523D01*
X109997071Y-79398761D01*
X109854214Y-79446380D01*
X109616119Y-79446380D01*
X110616119Y-79446380D02*
X110616119Y-78446380D01*
X110997071Y-78446380D01*
X111092309Y-78494000D01*
X111139928Y-78541619D01*
X111187547Y-78636857D01*
X111187547Y-78779714D01*
X111139928Y-78874952D01*
X111092309Y-78922571D01*
X110997071Y-78970190D01*
X110616119Y-78970190D01*
X111520880Y-78446380D02*
X111758976Y-79446380D01*
X111949452Y-78732095D01*
X112139928Y-79446380D01*
X112378023Y-78446380D01*
X113282785Y-79446380D02*
X112711357Y-79446380D01*
X112997071Y-79446380D02*
X112997071Y-78446380D01*
X112901833Y-78589238D01*
X112806595Y-78684476D01*
X112711357Y-78732095D01*
%TO.C,RJ1*%
X142692380Y-89442619D02*
X142216190Y-89775952D01*
X142692380Y-90014047D02*
X141692380Y-90014047D01*
X141692380Y-89633095D01*
X141740000Y-89537857D01*
X141787619Y-89490238D01*
X141882857Y-89442619D01*
X142025714Y-89442619D01*
X142120952Y-89490238D01*
X142168571Y-89537857D01*
X142216190Y-89633095D01*
X142216190Y-90014047D01*
X141692380Y-88728333D02*
X142406666Y-88728333D01*
X142549523Y-88775952D01*
X142644761Y-88871190D01*
X142692380Y-89014047D01*
X142692380Y-89109285D01*
X142692380Y-87728333D02*
X142692380Y-88299761D01*
X142692380Y-88014047D02*
X141692380Y-88014047D01*
X141835238Y-88109285D01*
X141930476Y-88204523D01*
X141978095Y-88299761D01*
%TO.C,U1*%
X115316095Y-87916380D02*
X115316095Y-88725904D01*
X115363714Y-88821142D01*
X115411333Y-88868761D01*
X115506571Y-88916380D01*
X115697047Y-88916380D01*
X115792285Y-88868761D01*
X115839904Y-88821142D01*
X115887523Y-88725904D01*
X115887523Y-87916380D01*
X116887523Y-88916380D02*
X116316095Y-88916380D01*
X116601809Y-88916380D02*
X116601809Y-87916380D01*
X116506571Y-88059238D01*
X116411333Y-88154476D01*
X116316095Y-88202095D01*
%TO.C,USB1*%
X104608380Y-90585095D02*
X105417904Y-90585095D01*
X105513142Y-90537476D01*
X105560761Y-90489857D01*
X105608380Y-90394619D01*
X105608380Y-90204142D01*
X105560761Y-90108904D01*
X105513142Y-90061285D01*
X105417904Y-90013666D01*
X104608380Y-90013666D01*
X105560761Y-89585095D02*
X105608380Y-89442238D01*
X105608380Y-89204142D01*
X105560761Y-89108904D01*
X105513142Y-89061285D01*
X105417904Y-89013666D01*
X105322666Y-89013666D01*
X105227428Y-89061285D01*
X105179809Y-89108904D01*
X105132190Y-89204142D01*
X105084571Y-89394619D01*
X105036952Y-89489857D01*
X104989333Y-89537476D01*
X104894095Y-89585095D01*
X104798857Y-89585095D01*
X104703619Y-89537476D01*
X104656000Y-89489857D01*
X104608380Y-89394619D01*
X104608380Y-89156523D01*
X104656000Y-89013666D01*
X105084571Y-88251761D02*
X105132190Y-88108904D01*
X105179809Y-88061285D01*
X105275047Y-88013666D01*
X105417904Y-88013666D01*
X105513142Y-88061285D01*
X105560761Y-88108904D01*
X105608380Y-88204142D01*
X105608380Y-88585095D01*
X104608380Y-88585095D01*
X104608380Y-88251761D01*
X104656000Y-88156523D01*
X104703619Y-88108904D01*
X104798857Y-88061285D01*
X104894095Y-88061285D01*
X104989333Y-88108904D01*
X105036952Y-88156523D01*
X105084571Y-88251761D01*
X105084571Y-88585095D01*
X105608380Y-87061285D02*
X105608380Y-87632714D01*
X105608380Y-87347000D02*
X104608380Y-87347000D01*
X104751238Y-87442238D01*
X104846476Y-87537476D01*
X104894095Y-87632714D01*
%TO.C,R2*%
X118195333Y-86812380D02*
X117862000Y-86336190D01*
X117623904Y-86812380D02*
X117623904Y-85812380D01*
X118004857Y-85812380D01*
X118100095Y-85860000D01*
X118147714Y-85907619D01*
X118195333Y-86002857D01*
X118195333Y-86145714D01*
X118147714Y-86240952D01*
X118100095Y-86288571D01*
X118004857Y-86336190D01*
X117623904Y-86336190D01*
X118576285Y-85907619D02*
X118623904Y-85860000D01*
X118719142Y-85812380D01*
X118957238Y-85812380D01*
X119052476Y-85860000D01*
X119100095Y-85907619D01*
X119147714Y-86002857D01*
X119147714Y-86098095D01*
X119100095Y-86240952D01*
X118528666Y-86812380D01*
X119147714Y-86812380D01*
%TO.C,R6*%
X117038380Y-85510666D02*
X116562190Y-85844000D01*
X117038380Y-86082095D02*
X116038380Y-86082095D01*
X116038380Y-85701142D01*
X116086000Y-85605904D01*
X116133619Y-85558285D01*
X116228857Y-85510666D01*
X116371714Y-85510666D01*
X116466952Y-85558285D01*
X116514571Y-85605904D01*
X116562190Y-85701142D01*
X116562190Y-86082095D01*
X116038380Y-84653523D02*
X116038380Y-84844000D01*
X116086000Y-84939238D01*
X116133619Y-84986857D01*
X116276476Y-85082095D01*
X116466952Y-85129714D01*
X116847904Y-85129714D01*
X116943142Y-85082095D01*
X116990761Y-85034476D01*
X117038380Y-84939238D01*
X117038380Y-84748761D01*
X116990761Y-84653523D01*
X116943142Y-84605904D01*
X116847904Y-84558285D01*
X116609809Y-84558285D01*
X116514571Y-84605904D01*
X116466952Y-84653523D01*
X116419333Y-84748761D01*
X116419333Y-84939238D01*
X116466952Y-85034476D01*
X116514571Y-85082095D01*
X116609809Y-85129714D01*
%TO.C,R1*%
X118195333Y-85542380D02*
X117862000Y-85066190D01*
X117623904Y-85542380D02*
X117623904Y-84542380D01*
X118004857Y-84542380D01*
X118100095Y-84590000D01*
X118147714Y-84637619D01*
X118195333Y-84732857D01*
X118195333Y-84875714D01*
X118147714Y-84970952D01*
X118100095Y-85018571D01*
X118004857Y-85066190D01*
X117623904Y-85066190D01*
X119147714Y-85542380D02*
X118576285Y-85542380D01*
X118862000Y-85542380D02*
X118862000Y-84542380D01*
X118766761Y-84685238D01*
X118671523Y-84780476D01*
X118576285Y-84828095D01*
%TO.C,R5*%
X110180380Y-85510666D02*
X109704190Y-85844000D01*
X110180380Y-86082095D02*
X109180380Y-86082095D01*
X109180380Y-85701142D01*
X109228000Y-85605904D01*
X109275619Y-85558285D01*
X109370857Y-85510666D01*
X109513714Y-85510666D01*
X109608952Y-85558285D01*
X109656571Y-85605904D01*
X109704190Y-85701142D01*
X109704190Y-86082095D01*
X109180380Y-84605904D02*
X109180380Y-85082095D01*
X109656571Y-85129714D01*
X109608952Y-85082095D01*
X109561333Y-84986857D01*
X109561333Y-84748761D01*
X109608952Y-84653523D01*
X109656571Y-84605904D01*
X109751809Y-84558285D01*
X109989904Y-84558285D01*
X110085142Y-84605904D01*
X110132761Y-84653523D01*
X110180380Y-84748761D01*
X110180380Y-84986857D01*
X110132761Y-85082095D01*
X110085142Y-85129714D01*
%TO.C,Q2*%
X134016761Y-83745619D02*
X133921523Y-83698000D01*
X133826285Y-83602761D01*
X133683428Y-83459904D01*
X133588190Y-83412285D01*
X133492952Y-83412285D01*
X133540571Y-83650380D02*
X133445333Y-83602761D01*
X133350095Y-83507523D01*
X133302476Y-83317047D01*
X133302476Y-82983714D01*
X133350095Y-82793238D01*
X133445333Y-82698000D01*
X133540571Y-82650380D01*
X133731047Y-82650380D01*
X133826285Y-82698000D01*
X133921523Y-82793238D01*
X133969142Y-82983714D01*
X133969142Y-83317047D01*
X133921523Y-83507523D01*
X133826285Y-83602761D01*
X133731047Y-83650380D01*
X133540571Y-83650380D01*
X134350095Y-82745619D02*
X134397714Y-82698000D01*
X134492952Y-82650380D01*
X134731047Y-82650380D01*
X134826285Y-82698000D01*
X134873904Y-82745619D01*
X134921523Y-82840857D01*
X134921523Y-82936095D01*
X134873904Y-83078952D01*
X134302476Y-83650380D01*
X134921523Y-83650380D01*
%TO.C,LEDTX1*%
X115625809Y-79446380D02*
X115149619Y-79446380D01*
X115149619Y-78446380D01*
X115959142Y-78922571D02*
X116292476Y-78922571D01*
X116435333Y-79446380D02*
X115959142Y-79446380D01*
X115959142Y-78446380D01*
X116435333Y-78446380D01*
X116863904Y-79446380D02*
X116863904Y-78446380D01*
X117102000Y-78446380D01*
X117244857Y-78494000D01*
X117340095Y-78589238D01*
X117387714Y-78684476D01*
X117435333Y-78874952D01*
X117435333Y-79017809D01*
X117387714Y-79208285D01*
X117340095Y-79303523D01*
X117244857Y-79398761D01*
X117102000Y-79446380D01*
X116863904Y-79446380D01*
X117721047Y-78446380D02*
X118292476Y-78446380D01*
X118006761Y-79446380D02*
X118006761Y-78446380D01*
X118530571Y-78446380D02*
X119197238Y-79446380D01*
X119197238Y-78446380D02*
X118530571Y-79446380D01*
X120102000Y-79446380D02*
X119530571Y-79446380D01*
X119816285Y-79446380D02*
X119816285Y-78446380D01*
X119721047Y-78589238D01*
X119625809Y-78684476D01*
X119530571Y-78732095D01*
%TO.C,C2*%
X111101142Y-89574666D02*
X111148761Y-89622285D01*
X111196380Y-89765142D01*
X111196380Y-89860380D01*
X111148761Y-90003238D01*
X111053523Y-90098476D01*
X110958285Y-90146095D01*
X110767809Y-90193714D01*
X110624952Y-90193714D01*
X110434476Y-90146095D01*
X110339238Y-90098476D01*
X110244000Y-90003238D01*
X110196380Y-89860380D01*
X110196380Y-89765142D01*
X110244000Y-89622285D01*
X110291619Y-89574666D01*
X110291619Y-89193714D02*
X110244000Y-89146095D01*
X110196380Y-89050857D01*
X110196380Y-88812761D01*
X110244000Y-88717523D01*
X110291619Y-88669904D01*
X110386857Y-88622285D01*
X110482095Y-88622285D01*
X110624952Y-88669904D01*
X111196380Y-89241333D01*
X111196380Y-88622285D01*
%TO.C,C4*%
X118197333Y-88241142D02*
X118149714Y-88288761D01*
X118006857Y-88336380D01*
X117911619Y-88336380D01*
X117768761Y-88288761D01*
X117673523Y-88193523D01*
X117625904Y-88098285D01*
X117578285Y-87907809D01*
X117578285Y-87764952D01*
X117625904Y-87574476D01*
X117673523Y-87479238D01*
X117768761Y-87384000D01*
X117911619Y-87336380D01*
X118006857Y-87336380D01*
X118149714Y-87384000D01*
X118197333Y-87431619D01*
X119054476Y-87669714D02*
X119054476Y-88336380D01*
X118816380Y-87288761D02*
X118578285Y-88003047D01*
X119197333Y-88003047D01*
%TO.C,R7*%
X113736380Y-85510666D02*
X113260190Y-85844000D01*
X113736380Y-86082095D02*
X112736380Y-86082095D01*
X112736380Y-85701142D01*
X112784000Y-85605904D01*
X112831619Y-85558285D01*
X112926857Y-85510666D01*
X113069714Y-85510666D01*
X113164952Y-85558285D01*
X113212571Y-85605904D01*
X113260190Y-85701142D01*
X113260190Y-86082095D01*
X112736380Y-85177333D02*
X112736380Y-84510666D01*
X113736380Y-84939238D01*
%TO.C,Q1*%
X134016761Y-88571619D02*
X133921523Y-88524000D01*
X133826285Y-88428761D01*
X133683428Y-88285904D01*
X133588190Y-88238285D01*
X133492952Y-88238285D01*
X133540571Y-88476380D02*
X133445333Y-88428761D01*
X133350095Y-88333523D01*
X133302476Y-88143047D01*
X133302476Y-87809714D01*
X133350095Y-87619238D01*
X133445333Y-87524000D01*
X133540571Y-87476380D01*
X133731047Y-87476380D01*
X133826285Y-87524000D01*
X133921523Y-87619238D01*
X133969142Y-87809714D01*
X133969142Y-88143047D01*
X133921523Y-88333523D01*
X133826285Y-88428761D01*
X133731047Y-88476380D01*
X133540571Y-88476380D01*
X134921523Y-88476380D02*
X134350095Y-88476380D01*
X134635809Y-88476380D02*
X134635809Y-87476380D01*
X134540571Y-87619238D01*
X134445333Y-87714476D01*
X134350095Y-87762095D01*
%TO.C,C6*%
X127595333Y-82653142D02*
X127547714Y-82700761D01*
X127404857Y-82748380D01*
X127309619Y-82748380D01*
X127166761Y-82700761D01*
X127071523Y-82605523D01*
X127023904Y-82510285D01*
X126976285Y-82319809D01*
X126976285Y-82176952D01*
X127023904Y-81986476D01*
X127071523Y-81891238D01*
X127166761Y-81796000D01*
X127309619Y-81748380D01*
X127404857Y-81748380D01*
X127547714Y-81796000D01*
X127595333Y-81843619D01*
X128452476Y-81748380D02*
X128262000Y-81748380D01*
X128166761Y-81796000D01*
X128119142Y-81843619D01*
X128023904Y-81986476D01*
X127976285Y-82176952D01*
X127976285Y-82557904D01*
X128023904Y-82653142D01*
X128071523Y-82700761D01*
X128166761Y-82748380D01*
X128357238Y-82748380D01*
X128452476Y-82700761D01*
X128500095Y-82653142D01*
X128547714Y-82557904D01*
X128547714Y-82319809D01*
X128500095Y-82224571D01*
X128452476Y-82176952D01*
X128357238Y-82129333D01*
X128166761Y-82129333D01*
X128071523Y-82176952D01*
X128023904Y-82224571D01*
X127976285Y-82319809D01*
%TO.C,R3*%
X130895333Y-88690380D02*
X130562000Y-88214190D01*
X130323904Y-88690380D02*
X130323904Y-87690380D01*
X130704857Y-87690380D01*
X130800095Y-87738000D01*
X130847714Y-87785619D01*
X130895333Y-87880857D01*
X130895333Y-88023714D01*
X130847714Y-88118952D01*
X130800095Y-88166571D01*
X130704857Y-88214190D01*
X130323904Y-88214190D01*
X131228666Y-87690380D02*
X131847714Y-87690380D01*
X131514380Y-88071333D01*
X131657238Y-88071333D01*
X131752476Y-88118952D01*
X131800095Y-88166571D01*
X131847714Y-88261809D01*
X131847714Y-88499904D01*
X131800095Y-88595142D01*
X131752476Y-88642761D01*
X131657238Y-88690380D01*
X131371523Y-88690380D01*
X131276285Y-88642761D01*
X131228666Y-88595142D01*
D12*
%TO.C,U2*%
X125222000Y-93452000D02*
X127172000Y-93452000D01*
X125222000Y-83332000D02*
X121772000Y-83332000D01*
X125222000Y-83332000D02*
X127172000Y-83332000D01*
X125222000Y-93452000D02*
X123272000Y-93452000D01*
%TO.C,C1*%
X111254000Y-95858420D02*
X111254000Y-96139580D01*
X110234000Y-95858420D02*
X110234000Y-96139580D01*
%TO.C,R4*%
X130910359Y-84202000D02*
X131217641Y-84202000D01*
X130910359Y-84962000D02*
X131217641Y-84962000D01*
%TO.C,C5*%
X125142164Y-80412000D02*
X125357836Y-80412000D01*
X125142164Y-81132000D02*
X125357836Y-81132000D01*
%TO.C,C3*%
X109114000Y-92055836D02*
X109114000Y-91840164D01*
X109834000Y-92055836D02*
X109834000Y-91840164D01*
%TO.C,LEDRX1*%
X114924500Y-80545000D02*
X112639500Y-80545000D01*
X112639500Y-80545000D02*
X112639500Y-82015000D01*
X112639500Y-82015000D02*
X114924500Y-82015000D01*
%TO.C,LEDPW1*%
X109083500Y-82015000D02*
X111368500Y-82015000D01*
X109083500Y-80545000D02*
X109083500Y-82015000D01*
X111368500Y-80545000D02*
X109083500Y-80545000D01*
D13*
%TO.C,RJ1*%
X136812000Y-96600000D02*
X153312000Y-96600000D01*
X153312000Y-81190000D02*
X136812000Y-81190000D01*
X136812000Y-81190000D02*
X136812000Y-96600000D01*
X153312000Y-81190000D02*
X153312000Y-96600000D01*
D12*
%TO.C,U1*%
X117988000Y-96374000D02*
X117988000Y-95114000D01*
X117988000Y-89554000D02*
X117988000Y-90814000D01*
X114228000Y-96374000D02*
X117988000Y-96374000D01*
X111978000Y-89554000D02*
X117988000Y-89554000D01*
D13*
%TO.C,USB1*%
X92731000Y-84680000D02*
X94731000Y-84680000D01*
X92731000Y-90660000D02*
X92731000Y-93130000D01*
X92731000Y-87130000D02*
X94731000Y-87130000D01*
X94731000Y-84680000D02*
X94731000Y-87130000D01*
X87561000Y-82890000D02*
X103591000Y-82890000D01*
X92731000Y-87130000D02*
X92731000Y-84680000D01*
X106281000Y-90290000D02*
X106281000Y-92000000D01*
X106281000Y-85790000D02*
X106281000Y-87500000D01*
X106281000Y-92790000D02*
X106281000Y-93010000D01*
X102281000Y-82890000D02*
X102281000Y-94900000D01*
X87561000Y-94900000D02*
X87561000Y-82890000D01*
X94731000Y-93130000D02*
X94731000Y-90660000D01*
X92731000Y-90660000D02*
X94731000Y-90660000D01*
X106281000Y-88290000D02*
X106281000Y-89500000D01*
X106281000Y-84780000D02*
X106281000Y-85000000D01*
X92731000Y-93130000D02*
X94731000Y-93130000D01*
X87561000Y-94900000D02*
X103581000Y-94900000D01*
D12*
%TO.C,R2*%
X120547641Y-85980000D02*
X120240359Y-85980000D01*
X120547641Y-86740000D02*
X120240359Y-86740000D01*
%TO.C,R6*%
X116206000Y-83414359D02*
X116206000Y-83721641D01*
X116966000Y-83414359D02*
X116966000Y-83721641D01*
%TO.C,R1*%
X120549641Y-85470000D02*
X120242359Y-85470000D01*
X120549641Y-84710000D02*
X120242359Y-84710000D01*
%TO.C,R5*%
X110108000Y-83156359D02*
X110108000Y-83463641D01*
X109348000Y-83156359D02*
X109348000Y-83463641D01*
%TO.C,Q2*%
X134112000Y-84038000D02*
X134762000Y-84038000D01*
X134112000Y-87158000D02*
X133462000Y-87158000D01*
X134112000Y-87158000D02*
X134762000Y-87158000D01*
X134112000Y-84038000D02*
X132437000Y-84038000D01*
%TO.C,LEDTX1*%
X116195500Y-80545000D02*
X116195500Y-82015000D01*
X116195500Y-82015000D02*
X118480500Y-82015000D01*
X118480500Y-80545000D02*
X116195500Y-80545000D01*
%TO.C,C2*%
X111254000Y-92075580D02*
X111254000Y-91794420D01*
X110234000Y-92075580D02*
X110234000Y-91794420D01*
%TO.C,C4*%
X120288164Y-87990000D02*
X120503836Y-87990000D01*
X120288164Y-87270000D02*
X120503836Y-87270000D01*
%TO.C,R7*%
X113664000Y-83414359D02*
X113664000Y-83721641D01*
X112904000Y-83414359D02*
X112904000Y-83721641D01*
%TO.C,Q1*%
X134112000Y-88864000D02*
X134762000Y-88864000D01*
X134112000Y-91984000D02*
X133462000Y-91984000D01*
X134112000Y-91984000D02*
X134762000Y-91984000D01*
X134112000Y-88864000D02*
X132437000Y-88864000D01*
%TO.C,C6*%
X125068420Y-81786000D02*
X125349580Y-81786000D01*
X125068420Y-82806000D02*
X125349580Y-82806000D01*
%TO.C,R3*%
X130908359Y-89028000D02*
X131215641Y-89028000D01*
X130908359Y-89788000D02*
X131215641Y-89788000D01*
%TD*%
M02*
