%TF.GenerationSoftware,KiCad,Pcbnew,(6.0.4)*%
%TF.CreationDate,2023-01-25T11:34:55+09:00*%
%TF.ProjectId,naraetracker-usb-convertor,6e617261-6574-4726-9163-6b65722d7573,rev?*%
%TF.SameCoordinates,Original*%
%TF.FileFunction,Copper,L2,Bot*%
%TF.FilePolarity,Positive*%
%FSLAX46Y46*%
G04 Gerber Fmt 4.6, Leading zero omitted, Abs format (unit mm)*
G04 Created by KiCad (PCBNEW (6.0.4)) date 2023-01-25 11:34:55*
%MOMM*%
%LPD*%
G01*
G04 APERTURE LIST*
%TA.AperFunction,ComponentPad*%
%ADD10C,3.200000*%
%TD*%
%TA.AperFunction,ComponentPad*%
%ADD11C,1.520000*%
%TD*%
%TA.AperFunction,ComponentPad*%
%ADD12C,1.000000*%
%TD*%
%TA.AperFunction,ComponentPad*%
%ADD13C,1.600000*%
%TD*%
%TA.AperFunction,ComponentPad*%
%ADD14C,3.400000*%
%TD*%
%TA.AperFunction,ViaPad*%
%ADD15C,0.800000*%
%TD*%
%TA.AperFunction,Conductor*%
%ADD16C,0.300000*%
%TD*%
%TA.AperFunction,Conductor*%
%ADD17C,0.400000*%
%TD*%
G04 APERTURE END LIST*
D10*
%TO.P,RJ1,*%
%TO.N,*%
X146812000Y-94620000D03*
X146812000Y-83190000D03*
D11*
%TO.P,RJ1,1,1*%
%TO.N,/TX*%
X140462000Y-93340000D03*
%TO.P,RJ1,2,2*%
%TO.N,/RST*%
X137922000Y-92070000D03*
%TO.P,RJ1,3,3*%
%TO.N,+3V3*%
X140462000Y-90800000D03*
%TO.P,RJ1,4,4*%
%TO.N,unconnected-(RJ1-Pad4)*%
X137922000Y-89530000D03*
%TO.P,RJ1,5,5*%
%TO.N,GND*%
X140462000Y-88270000D03*
%TO.P,RJ1,6,6*%
%TO.N,unconnected-(RJ1-Pad6)*%
X137922000Y-87000000D03*
%TO.P,RJ1,7,7*%
%TO.N,/IO0*%
X140462000Y-85720000D03*
%TO.P,RJ1,8,8*%
%TO.N,/RX*%
X137922000Y-84460000D03*
%TD*%
D12*
%TO.P,USB1,*%
%TO.N,*%
X105191000Y-91150000D03*
X105191000Y-86650000D03*
D13*
%TO.P,USB1,1,VCC*%
%TO.N,VBUS*%
X107541000Y-92400000D03*
%TO.P,USB1,2,D-*%
%TO.N,/DM*%
X107541000Y-89900000D03*
%TO.P,USB1,3,D+*%
%TO.N,/DP*%
X107541000Y-87900000D03*
%TO.P,USB1,4,GND*%
%TO.N,GND*%
X107521000Y-85400000D03*
D14*
%TO.P,USB1,MH1,MH1*%
%TO.N,unconnected-(USB1-PadMH1)*%
X105381000Y-94900000D03*
%TO.P,USB1,MH2,MH2*%
%TO.N,unconnected-(USB1-PadMH2)*%
X105381000Y-82900000D03*
%TD*%
D15*
%TO.N,GND*%
X117348000Y-90678000D03*
X116078000Y-87376000D03*
X121412000Y-80772000D03*
X108204000Y-83058000D03*
%TO.N,+3V3*%
X116078000Y-92964000D03*
X120650000Y-82804000D03*
X114808000Y-84074000D03*
X113792000Y-87657020D03*
%TO.N,Net-(Q1-Pad2)*%
X126238000Y-88392000D03*
X129540000Y-85598000D03*
%TO.N,/RST*%
X135636000Y-88138000D03*
%TO.N,/TX*%
X116965000Y-84965000D03*
%TO.N,/RX*%
X114046000Y-85090000D03*
%TD*%
D16*
%TO.N,+3V3*%
X114002030Y-84074000D02*
X114808000Y-84074000D01*
X114808000Y-84074000D02*
X116078000Y-82804000D01*
X113792000Y-87657020D02*
X116078000Y-89943020D01*
X116078000Y-89943020D02*
X116078000Y-92964000D01*
X113792000Y-87657020D02*
X113296489Y-87161509D01*
X113296489Y-87161509D02*
X113296489Y-84779541D01*
X113296489Y-84779541D02*
X114002030Y-84074000D01*
X116078000Y-82804000D02*
X120650000Y-82804000D01*
%TO.N,Net-(Q1-Pad2)*%
X129540000Y-85598000D02*
X126746000Y-88392000D01*
X126746000Y-88392000D02*
X126238000Y-88392000D01*
D17*
%TO.N,/RST*%
X135636000Y-89022000D02*
X137922000Y-91308000D01*
X135636000Y-88138000D02*
X135636000Y-89022000D01*
%TO.N,/TX*%
X116965000Y-84965000D02*
X125340000Y-93340000D01*
X125340000Y-93340000D02*
X140462000Y-93340000D01*
%TO.N,/RX*%
X114046000Y-85090000D02*
X115709320Y-85090000D01*
X117458680Y-84328000D02*
X137790000Y-84328000D01*
X137790000Y-84328000D02*
X137922000Y-84460000D01*
X116633831Y-84165489D02*
X117296169Y-84165489D01*
X115709320Y-85090000D02*
X116633831Y-84165489D01*
X117296169Y-84165489D02*
X117458680Y-84328000D01*
%TD*%
%TA.AperFunction,Conductor*%
%TO.N,GND*%
G36*
X152849621Y-80284502D02*
G01*
X152896114Y-80338158D01*
X152907500Y-80390500D01*
X152907500Y-97155500D01*
X152887498Y-97223621D01*
X152833842Y-97270114D01*
X152781500Y-97281500D01*
X105999155Y-97281500D01*
X105931034Y-97261498D01*
X105884541Y-97207842D01*
X105874437Y-97137568D01*
X105903931Y-97072988D01*
X105958654Y-97036187D01*
X106224066Y-96946092D01*
X106224076Y-96946088D01*
X106227970Y-96944766D01*
X106231665Y-96942944D01*
X106483916Y-96818548D01*
X106483921Y-96818545D01*
X106487620Y-96816721D01*
X106728335Y-96655881D01*
X106731429Y-96653168D01*
X106731435Y-96653163D01*
X106942907Y-96467705D01*
X106945996Y-96464996D01*
X107033406Y-96365325D01*
X107134164Y-96250434D01*
X107134169Y-96250427D01*
X107136881Y-96247335D01*
X107297721Y-96006619D01*
X107425766Y-95746970D01*
X107427090Y-95743070D01*
X107517498Y-95476738D01*
X107517499Y-95476734D01*
X107518825Y-95472828D01*
X107524795Y-95442817D01*
X107574500Y-95192929D01*
X107574500Y-95192926D01*
X107575304Y-95188886D01*
X107594239Y-94900000D01*
X107578949Y-94666726D01*
X107575574Y-94615229D01*
X107575573Y-94615225D01*
X107575304Y-94611114D01*
X107573521Y-94602149D01*
X107519631Y-94331222D01*
X107519629Y-94331216D01*
X107518825Y-94327172D01*
X107514875Y-94315534D01*
X107427090Y-94056930D01*
X107427089Y-94056928D01*
X107425766Y-94053030D01*
X107344584Y-93888409D01*
X107332394Y-93818468D01*
X107359953Y-93753039D01*
X107418511Y-93712895D01*
X107468572Y-93707162D01*
X107535514Y-93713019D01*
X107535525Y-93713019D01*
X107541000Y-93713498D01*
X107769087Y-93693543D01*
X107774400Y-93692119D01*
X107774402Y-93692119D01*
X107984933Y-93635707D01*
X107984935Y-93635706D01*
X107990243Y-93634284D01*
X107995225Y-93631961D01*
X108192762Y-93539849D01*
X108192767Y-93539846D01*
X108197749Y-93537523D01*
X108302611Y-93464098D01*
X108380789Y-93409357D01*
X108380792Y-93409355D01*
X108385300Y-93406198D01*
X108547198Y-93244300D01*
X108678523Y-93056749D01*
X108680846Y-93051767D01*
X108680849Y-93051762D01*
X108772961Y-92854225D01*
X108772961Y-92854224D01*
X108775284Y-92849243D01*
X108797109Y-92767794D01*
X108833119Y-92633402D01*
X108833119Y-92633400D01*
X108834543Y-92628087D01*
X108854498Y-92400000D01*
X108834543Y-92171913D01*
X108825263Y-92137278D01*
X108776707Y-91956067D01*
X108776706Y-91956065D01*
X108775284Y-91950757D01*
X108744090Y-91883861D01*
X108680849Y-91748238D01*
X108680846Y-91748233D01*
X108678523Y-91743251D01*
X108547198Y-91555700D01*
X108385300Y-91393802D01*
X108380792Y-91390645D01*
X108380789Y-91390643D01*
X108202253Y-91265631D01*
X108197749Y-91262477D01*
X108192767Y-91260154D01*
X108190973Y-91259118D01*
X108141981Y-91207734D01*
X108128546Y-91138021D01*
X108154934Y-91072110D01*
X108190973Y-91040882D01*
X108192767Y-91039846D01*
X108197749Y-91037523D01*
X108330321Y-90944695D01*
X108380789Y-90909357D01*
X108380792Y-90909355D01*
X108385300Y-90906198D01*
X108547198Y-90744300D01*
X108678523Y-90556749D01*
X108680846Y-90551767D01*
X108680849Y-90551762D01*
X108772961Y-90354225D01*
X108772961Y-90354224D01*
X108775284Y-90349243D01*
X108786620Y-90306939D01*
X108833119Y-90133402D01*
X108833119Y-90133400D01*
X108834543Y-90128087D01*
X108854498Y-89900000D01*
X108834543Y-89671913D01*
X108823481Y-89630630D01*
X108776707Y-89456067D01*
X108776706Y-89456065D01*
X108775284Y-89450757D01*
X108747572Y-89391328D01*
X108680849Y-89248238D01*
X108680846Y-89248233D01*
X108678523Y-89243251D01*
X108570871Y-89089508D01*
X108550357Y-89060211D01*
X108550355Y-89060208D01*
X108547198Y-89055700D01*
X108480593Y-88989095D01*
X108446567Y-88926783D01*
X108451632Y-88855968D01*
X108480593Y-88810905D01*
X108547198Y-88744300D01*
X108554179Y-88734331D01*
X108646540Y-88602425D01*
X108678523Y-88556749D01*
X108680846Y-88551767D01*
X108680849Y-88551762D01*
X108772961Y-88354225D01*
X108772961Y-88354224D01*
X108775284Y-88349243D01*
X108779380Y-88333959D01*
X108833119Y-88133402D01*
X108833119Y-88133400D01*
X108834543Y-88128087D01*
X108854498Y-87900000D01*
X108834543Y-87671913D01*
X108825922Y-87639740D01*
X108776707Y-87456067D01*
X108776706Y-87456065D01*
X108775284Y-87450757D01*
X108771931Y-87443567D01*
X108680849Y-87248238D01*
X108680846Y-87248233D01*
X108678523Y-87243251D01*
X108605098Y-87138389D01*
X108550357Y-87060211D01*
X108550355Y-87060208D01*
X108547198Y-87055700D01*
X108385300Y-86893802D01*
X108380792Y-86890645D01*
X108380789Y-86890643D01*
X108298372Y-86832934D01*
X108197749Y-86762477D01*
X108189426Y-86758596D01*
X108188203Y-86757520D01*
X108187998Y-86757401D01*
X108188022Y-86757360D01*
X108136139Y-86711681D01*
X108116675Y-86643405D01*
X108137214Y-86575444D01*
X108177602Y-86537237D01*
X108177498Y-86537088D01*
X108178506Y-86536382D01*
X108179671Y-86535280D01*
X108182002Y-86533934D01*
X108234048Y-86497491D01*
X108242424Y-86487012D01*
X108235356Y-86473566D01*
X107533812Y-85772022D01*
X107519868Y-85764408D01*
X107518035Y-85764539D01*
X107511420Y-85768790D01*
X106805923Y-86474287D01*
X106799493Y-86486062D01*
X106808789Y-86498077D01*
X106859994Y-86533931D01*
X106869487Y-86539412D01*
X106872555Y-86540843D01*
X106873679Y-86541832D01*
X106874253Y-86542164D01*
X106874186Y-86542279D01*
X106925839Y-86587762D01*
X106945298Y-86656039D01*
X106924755Y-86723999D01*
X106884181Y-86762378D01*
X106884251Y-86762477D01*
X106883693Y-86762868D01*
X106879742Y-86765634D01*
X106879739Y-86765636D01*
X106701211Y-86890643D01*
X106701208Y-86890645D01*
X106696700Y-86893802D01*
X106534802Y-87055700D01*
X106531645Y-87060208D01*
X106531643Y-87060211D01*
X106476902Y-87138389D01*
X106403477Y-87243251D01*
X106401154Y-87248233D01*
X106401151Y-87248238D01*
X106310069Y-87443567D01*
X106306716Y-87450757D01*
X106305294Y-87456065D01*
X106305293Y-87456067D01*
X106256078Y-87639740D01*
X106247457Y-87671913D01*
X106227502Y-87900000D01*
X106247457Y-88128087D01*
X106248881Y-88133400D01*
X106248881Y-88133402D01*
X106302621Y-88333959D01*
X106306716Y-88349243D01*
X106309039Y-88354224D01*
X106309039Y-88354225D01*
X106401151Y-88551762D01*
X106401154Y-88551767D01*
X106403477Y-88556749D01*
X106435460Y-88602425D01*
X106527822Y-88734331D01*
X106534802Y-88744300D01*
X106601407Y-88810905D01*
X106635433Y-88873217D01*
X106630368Y-88944032D01*
X106601407Y-88989095D01*
X106534802Y-89055700D01*
X106531645Y-89060208D01*
X106531643Y-89060211D01*
X106511129Y-89089508D01*
X106403477Y-89243251D01*
X106401154Y-89248233D01*
X106401151Y-89248238D01*
X106334428Y-89391328D01*
X106306716Y-89450757D01*
X106305294Y-89456065D01*
X106305293Y-89456067D01*
X106258519Y-89630630D01*
X106247457Y-89671913D01*
X106227502Y-89900000D01*
X106247457Y-90128087D01*
X106248881Y-90133400D01*
X106248881Y-90133402D01*
X106295381Y-90306939D01*
X106306716Y-90349243D01*
X106309039Y-90354224D01*
X106309039Y-90354225D01*
X106401151Y-90551762D01*
X106401154Y-90551767D01*
X106403477Y-90556749D01*
X106534802Y-90744300D01*
X106696700Y-90906198D01*
X106701208Y-90909355D01*
X106701211Y-90909357D01*
X106751679Y-90944695D01*
X106884251Y-91037523D01*
X106889233Y-91039846D01*
X106891027Y-91040882D01*
X106940019Y-91092266D01*
X106953454Y-91161979D01*
X106927066Y-91227890D01*
X106891027Y-91259118D01*
X106889233Y-91260154D01*
X106884251Y-91262477D01*
X106879747Y-91265631D01*
X106701211Y-91390643D01*
X106701208Y-91390645D01*
X106696700Y-91393802D01*
X106534802Y-91555700D01*
X106403477Y-91743251D01*
X106401154Y-91748233D01*
X106401151Y-91748238D01*
X106337910Y-91883861D01*
X106306716Y-91950757D01*
X106305294Y-91956065D01*
X106305293Y-91956067D01*
X106256737Y-92137278D01*
X106247457Y-92171913D01*
X106227502Y-92400000D01*
X106247457Y-92628087D01*
X106248881Y-92633400D01*
X106248881Y-92633402D01*
X106255349Y-92657541D01*
X106253659Y-92728518D01*
X106213864Y-92787314D01*
X106148600Y-92815261D01*
X106093141Y-92809465D01*
X105957743Y-92763504D01*
X105953828Y-92762175D01*
X105949784Y-92761371D01*
X105949778Y-92761369D01*
X105673929Y-92706500D01*
X105673926Y-92706500D01*
X105669886Y-92705696D01*
X105665775Y-92705427D01*
X105665771Y-92705426D01*
X105385119Y-92687031D01*
X105381000Y-92686761D01*
X105376881Y-92687031D01*
X105096229Y-92705426D01*
X105096225Y-92705427D01*
X105092114Y-92705696D01*
X105088074Y-92706500D01*
X105088071Y-92706500D01*
X104812222Y-92761369D01*
X104812216Y-92761371D01*
X104808172Y-92762175D01*
X104804266Y-92763501D01*
X104804262Y-92763502D01*
X104537930Y-92853910D01*
X104534030Y-92855234D01*
X104530337Y-92857055D01*
X104530335Y-92857056D01*
X104423381Y-92909800D01*
X104274381Y-92983279D01*
X104033665Y-93144119D01*
X104030573Y-93146831D01*
X104030566Y-93146836D01*
X103867347Y-93289977D01*
X103816004Y-93335004D01*
X103813295Y-93338093D01*
X103627836Y-93549566D01*
X103627831Y-93549573D01*
X103625119Y-93552665D01*
X103464279Y-93793381D01*
X103449394Y-93823565D01*
X103342847Y-94039621D01*
X103336234Y-94053030D01*
X103334911Y-94056928D01*
X103334910Y-94056930D01*
X103247126Y-94315534D01*
X103243175Y-94327172D01*
X103242371Y-94331216D01*
X103242369Y-94331222D01*
X103188479Y-94602149D01*
X103186696Y-94611114D01*
X103186427Y-94615225D01*
X103186426Y-94615229D01*
X103183051Y-94666726D01*
X103167761Y-94900000D01*
X103186696Y-95188886D01*
X103187500Y-95192926D01*
X103187500Y-95192929D01*
X103237206Y-95442817D01*
X103243175Y-95472828D01*
X103244501Y-95476734D01*
X103244502Y-95476738D01*
X103334910Y-95743070D01*
X103336234Y-95746970D01*
X103464279Y-96006619D01*
X103625119Y-96247335D01*
X103627831Y-96250427D01*
X103627836Y-96250434D01*
X103728594Y-96365325D01*
X103816004Y-96464996D01*
X103819093Y-96467705D01*
X104030565Y-96653163D01*
X104030571Y-96653168D01*
X104033665Y-96655881D01*
X104274380Y-96816721D01*
X104278079Y-96818545D01*
X104278084Y-96818548D01*
X104530335Y-96942944D01*
X104534030Y-96944766D01*
X104537924Y-96946088D01*
X104537934Y-96946092D01*
X104803346Y-97036187D01*
X104861423Y-97077024D01*
X104888201Y-97142777D01*
X104875180Y-97212569D01*
X104826493Y-97264242D01*
X104762845Y-97281500D01*
X102996500Y-97281500D01*
X102928379Y-97261498D01*
X102881886Y-97207842D01*
X102870500Y-97155500D01*
X102870500Y-91135851D01*
X104177719Y-91135851D01*
X104178235Y-91141995D01*
X104188617Y-91265631D01*
X104194268Y-91332934D01*
X104204436Y-91368393D01*
X104224486Y-91438315D01*
X104248783Y-91523050D01*
X104339187Y-91698956D01*
X104462035Y-91853953D01*
X104466728Y-91857947D01*
X104466729Y-91857948D01*
X104575780Y-91950757D01*
X104612650Y-91982136D01*
X104785294Y-92078624D01*
X104973392Y-92139740D01*
X105169777Y-92163158D01*
X105175912Y-92162686D01*
X105175914Y-92162686D01*
X105360830Y-92148457D01*
X105360834Y-92148456D01*
X105366972Y-92147984D01*
X105557463Y-92094798D01*
X105562967Y-92092018D01*
X105562969Y-92092017D01*
X105728495Y-92008404D01*
X105728497Y-92008403D01*
X105733996Y-92005625D01*
X105889847Y-91883861D01*
X105986798Y-91771542D01*
X106015049Y-91738813D01*
X106015050Y-91738811D01*
X106019078Y-91734145D01*
X106116769Y-91562179D01*
X106179197Y-91374513D01*
X106203985Y-91178295D01*
X106204380Y-91150000D01*
X106185080Y-90953167D01*
X106182380Y-90944222D01*
X106129697Y-90769731D01*
X106127916Y-90763831D01*
X106035066Y-90589204D01*
X105963570Y-90501542D01*
X105913960Y-90440713D01*
X105913957Y-90440710D01*
X105910065Y-90435938D01*
X105903724Y-90430692D01*
X105762425Y-90313799D01*
X105762421Y-90313797D01*
X105757675Y-90309870D01*
X105583701Y-90215802D01*
X105394768Y-90157318D01*
X105388643Y-90156674D01*
X105388642Y-90156674D01*
X105204204Y-90137289D01*
X105204202Y-90137289D01*
X105198075Y-90136645D01*
X105115576Y-90144153D01*
X105007251Y-90154011D01*
X105007248Y-90154012D01*
X105001112Y-90154570D01*
X104995206Y-90156308D01*
X104995202Y-90156309D01*
X104918529Y-90178875D01*
X104811381Y-90210410D01*
X104805923Y-90213263D01*
X104805919Y-90213265D01*
X104752510Y-90241187D01*
X104636110Y-90302040D01*
X104481975Y-90425968D01*
X104354846Y-90577474D01*
X104351879Y-90582872D01*
X104351875Y-90582877D01*
X104281212Y-90711414D01*
X104259567Y-90750787D01*
X104257706Y-90756654D01*
X104257705Y-90756656D01*
X104209265Y-90909357D01*
X104199765Y-90939306D01*
X104177719Y-91135851D01*
X102870500Y-91135851D01*
X102870500Y-86635851D01*
X104177719Y-86635851D01*
X104178235Y-86641995D01*
X104193413Y-86822749D01*
X104194268Y-86832934D01*
X104204436Y-86868393D01*
X104242174Y-87000000D01*
X104248783Y-87023050D01*
X104251602Y-87028535D01*
X104296126Y-87115168D01*
X104339187Y-87198956D01*
X104462035Y-87353953D01*
X104466728Y-87357947D01*
X104466729Y-87357948D01*
X104585623Y-87459134D01*
X104612650Y-87482136D01*
X104785294Y-87578624D01*
X104973392Y-87639740D01*
X105169777Y-87663158D01*
X105175912Y-87662686D01*
X105175914Y-87662686D01*
X105360830Y-87648457D01*
X105360834Y-87648456D01*
X105366972Y-87647984D01*
X105557463Y-87594798D01*
X105562967Y-87592018D01*
X105562969Y-87592017D01*
X105728495Y-87508404D01*
X105728497Y-87508403D01*
X105733996Y-87505625D01*
X105889847Y-87383861D01*
X105998992Y-87257415D01*
X106015049Y-87238813D01*
X106015050Y-87238811D01*
X106019078Y-87234145D01*
X106116769Y-87062179D01*
X106179197Y-86874513D01*
X106203985Y-86678295D01*
X106204380Y-86650000D01*
X106185080Y-86453167D01*
X106127916Y-86263831D01*
X106035066Y-86089204D01*
X105961089Y-85998500D01*
X105913960Y-85940713D01*
X105913957Y-85940710D01*
X105910065Y-85935938D01*
X105903724Y-85930692D01*
X105762425Y-85813799D01*
X105762421Y-85813797D01*
X105757675Y-85809870D01*
X105583701Y-85715802D01*
X105394768Y-85657318D01*
X105388643Y-85656674D01*
X105388642Y-85656674D01*
X105204204Y-85637289D01*
X105204202Y-85637289D01*
X105198075Y-85636645D01*
X105115576Y-85644153D01*
X105007251Y-85654011D01*
X105007248Y-85654012D01*
X105001112Y-85654570D01*
X104995206Y-85656308D01*
X104995202Y-85656309D01*
X104890076Y-85687249D01*
X104811381Y-85710410D01*
X104805923Y-85713263D01*
X104805919Y-85713265D01*
X104771996Y-85731000D01*
X104636110Y-85802040D01*
X104481975Y-85925968D01*
X104354846Y-86077474D01*
X104351879Y-86082872D01*
X104351875Y-86082877D01*
X104299794Y-86177613D01*
X104259567Y-86250787D01*
X104257706Y-86256654D01*
X104257705Y-86256656D01*
X104252852Y-86271955D01*
X104199765Y-86439306D01*
X104177719Y-86635851D01*
X102870500Y-86635851D01*
X102870500Y-82900000D01*
X103167761Y-82900000D01*
X103168031Y-82904119D01*
X103185039Y-83163598D01*
X103186696Y-83188886D01*
X103187500Y-83192926D01*
X103187500Y-83192929D01*
X103241705Y-83465437D01*
X103243175Y-83472828D01*
X103244501Y-83476734D01*
X103244502Y-83476738D01*
X103298066Y-83634532D01*
X103336234Y-83746970D01*
X103464279Y-84006619D01*
X103625119Y-84247335D01*
X103627831Y-84250427D01*
X103627836Y-84250434D01*
X103755811Y-84396360D01*
X103816004Y-84464996D01*
X103819093Y-84467705D01*
X104030565Y-84653163D01*
X104030571Y-84653168D01*
X104033665Y-84655881D01*
X104274380Y-84816721D01*
X104278079Y-84818545D01*
X104278084Y-84818548D01*
X104520257Y-84937974D01*
X104534030Y-84944766D01*
X104537928Y-84946089D01*
X104537930Y-84946090D01*
X104804262Y-85036498D01*
X104804266Y-85036499D01*
X104808172Y-85037825D01*
X104812216Y-85038629D01*
X104812222Y-85038631D01*
X105088071Y-85093500D01*
X105088074Y-85093500D01*
X105092114Y-85094304D01*
X105096225Y-85094573D01*
X105096229Y-85094574D01*
X105376881Y-85112969D01*
X105381000Y-85113239D01*
X105385119Y-85112969D01*
X105665771Y-85094574D01*
X105665775Y-85094573D01*
X105669886Y-85094304D01*
X105673926Y-85093500D01*
X105673929Y-85093500D01*
X105949778Y-85038631D01*
X105949784Y-85038629D01*
X105953828Y-85037825D01*
X105974767Y-85030717D01*
X106071709Y-84997810D01*
X106142644Y-84994854D01*
X106203916Y-85030717D01*
X106236073Y-85094014D01*
X106233917Y-85149732D01*
X106229376Y-85166681D01*
X106227472Y-85177481D01*
X106208483Y-85394525D01*
X106208483Y-85405475D01*
X106227472Y-85622519D01*
X106229375Y-85633312D01*
X106285764Y-85843761D01*
X106289510Y-85854053D01*
X106381586Y-86051511D01*
X106387069Y-86061006D01*
X106423509Y-86113048D01*
X106433988Y-86121424D01*
X106447434Y-86114356D01*
X107160658Y-85401132D01*
X107885408Y-85401132D01*
X107885539Y-85402965D01*
X107889790Y-85409580D01*
X108595287Y-86115077D01*
X108607062Y-86121507D01*
X108619077Y-86112211D01*
X108654931Y-86061006D01*
X108660414Y-86051511D01*
X108752490Y-85854053D01*
X108756236Y-85843761D01*
X108812625Y-85633312D01*
X108814528Y-85622519D01*
X108833517Y-85405475D01*
X108833517Y-85394525D01*
X108814528Y-85177481D01*
X108812625Y-85166688D01*
X108756236Y-84956239D01*
X108752490Y-84945947D01*
X108665172Y-84758693D01*
X112633083Y-84758693D01*
X112633829Y-84766584D01*
X112637430Y-84804679D01*
X112637989Y-84816537D01*
X112637989Y-87079453D01*
X112637430Y-87091309D01*
X112635701Y-87099046D01*
X112635950Y-87106968D01*
X112637927Y-87169878D01*
X112637989Y-87173836D01*
X112637989Y-87202941D01*
X112638545Y-87207341D01*
X112639477Y-87219173D01*
X112640927Y-87265340D01*
X112643139Y-87272953D01*
X112643139Y-87272954D01*
X112646908Y-87285925D01*
X112650919Y-87305291D01*
X112653607Y-87326573D01*
X112656523Y-87333938D01*
X112656524Y-87333942D01*
X112670615Y-87369530D01*
X112674454Y-87380740D01*
X112687344Y-87425109D01*
X112698264Y-87443574D01*
X112706955Y-87461314D01*
X112714854Y-87481265D01*
X112742005Y-87518635D01*
X112748522Y-87528557D01*
X112767996Y-87561486D01*
X112767999Y-87561490D01*
X112772036Y-87568316D01*
X112787200Y-87583480D01*
X112800040Y-87598513D01*
X112812648Y-87615866D01*
X112818752Y-87620916D01*
X112818758Y-87620922D01*
X112840410Y-87638834D01*
X112880148Y-87697668D01*
X112885404Y-87722747D01*
X112895877Y-87822387D01*
X112898458Y-87846948D01*
X112957473Y-88028576D01*
X113052960Y-88193964D01*
X113057378Y-88198871D01*
X113057379Y-88198872D01*
X113176325Y-88330975D01*
X113180747Y-88335886D01*
X113248945Y-88385435D01*
X113306500Y-88427251D01*
X113335248Y-88448138D01*
X113341276Y-88450822D01*
X113341278Y-88450823D01*
X113503681Y-88523129D01*
X113509712Y-88525814D01*
X113603113Y-88545667D01*
X113690056Y-88564148D01*
X113690061Y-88564148D01*
X113696513Y-88565520D01*
X113717050Y-88565520D01*
X113785171Y-88585522D01*
X113806145Y-88602425D01*
X115382595Y-90178875D01*
X115416621Y-90241187D01*
X115419500Y-90267970D01*
X115419500Y-92289241D01*
X115399498Y-92357362D01*
X115387136Y-92373551D01*
X115358392Y-92405475D01*
X115338960Y-92427056D01*
X115289787Y-92512226D01*
X115263451Y-92557842D01*
X115243473Y-92592444D01*
X115184458Y-92774072D01*
X115164496Y-92964000D01*
X115165186Y-92970565D01*
X115183713Y-93146836D01*
X115184458Y-93153928D01*
X115243473Y-93335556D01*
X115338960Y-93500944D01*
X115466747Y-93642866D01*
X115621248Y-93755118D01*
X115627276Y-93757802D01*
X115627278Y-93757803D01*
X115715519Y-93797090D01*
X115795712Y-93832794D01*
X115889113Y-93852647D01*
X115976056Y-93871128D01*
X115976061Y-93871128D01*
X115982513Y-93872500D01*
X116173487Y-93872500D01*
X116179939Y-93871128D01*
X116179944Y-93871128D01*
X116266887Y-93852647D01*
X116360288Y-93832794D01*
X116440481Y-93797090D01*
X116528722Y-93757803D01*
X116528724Y-93757802D01*
X116534752Y-93755118D01*
X116689253Y-93642866D01*
X116817040Y-93500944D01*
X116912527Y-93335556D01*
X116971542Y-93153928D01*
X116972288Y-93146836D01*
X116990814Y-92970565D01*
X116991504Y-92964000D01*
X116971542Y-92774072D01*
X116912527Y-92592444D01*
X116892550Y-92557842D01*
X116866213Y-92512226D01*
X116817040Y-92427056D01*
X116797609Y-92405475D01*
X116768864Y-92373551D01*
X116738146Y-92309544D01*
X116736500Y-92289241D01*
X116736500Y-90025076D01*
X116737059Y-90013220D01*
X116737059Y-90013217D01*
X116738788Y-90005483D01*
X116736562Y-89934651D01*
X116736500Y-89930693D01*
X116736500Y-89901588D01*
X116735944Y-89897188D01*
X116735012Y-89885350D01*
X116733811Y-89847114D01*
X116733562Y-89839189D01*
X116727580Y-89818599D01*
X116723570Y-89799236D01*
X116721875Y-89785816D01*
X116721875Y-89785815D01*
X116720882Y-89777956D01*
X116717966Y-89770591D01*
X116717965Y-89770587D01*
X116703874Y-89734999D01*
X116700035Y-89723789D01*
X116687145Y-89679420D01*
X116676229Y-89660963D01*
X116667534Y-89643213D01*
X116659635Y-89623264D01*
X116645237Y-89603447D01*
X116632477Y-89585884D01*
X116625960Y-89575963D01*
X116602452Y-89536213D01*
X116587291Y-89521052D01*
X116574449Y-89506017D01*
X116561841Y-89488663D01*
X116526241Y-89459212D01*
X116517462Y-89451223D01*
X114734970Y-87668730D01*
X114700944Y-87606418D01*
X114698755Y-87592806D01*
X114697265Y-87578624D01*
X114685542Y-87467092D01*
X114680672Y-87452102D01*
X114628569Y-87291749D01*
X114626527Y-87285464D01*
X114617141Y-87269206D01*
X114534341Y-87125794D01*
X114531040Y-87120076D01*
X114480762Y-87064236D01*
X114407675Y-86983065D01*
X114407674Y-86983064D01*
X114403253Y-86978154D01*
X114248752Y-86865902D01*
X114242724Y-86863218D01*
X114242722Y-86863217D01*
X114080319Y-86790911D01*
X114080318Y-86790911D01*
X114074288Y-86788226D01*
X114054792Y-86784082D01*
X113992319Y-86750354D01*
X113957997Y-86688204D01*
X113954989Y-86660835D01*
X113954989Y-86124500D01*
X113974991Y-86056379D01*
X114028647Y-86009886D01*
X114080989Y-85998500D01*
X114141487Y-85998500D01*
X114147939Y-85997128D01*
X114147944Y-85997128D01*
X114234888Y-85978647D01*
X114328288Y-85958794D01*
X114334319Y-85956109D01*
X114496722Y-85883803D01*
X114496724Y-85883802D01*
X114502752Y-85881118D01*
X114540004Y-85854053D01*
X114583344Y-85822564D01*
X114650211Y-85798706D01*
X114657405Y-85798500D01*
X115680408Y-85798500D01*
X115688978Y-85798792D01*
X115739096Y-85802209D01*
X115739100Y-85802209D01*
X115746672Y-85802725D01*
X115754149Y-85801420D01*
X115754150Y-85801420D01*
X115795484Y-85794206D01*
X115809623Y-85791738D01*
X115816141Y-85790777D01*
X115879562Y-85783102D01*
X115886663Y-85780419D01*
X115889272Y-85779778D01*
X115905582Y-85775315D01*
X115908118Y-85774550D01*
X115915604Y-85773243D01*
X115974120Y-85747556D01*
X115980224Y-85745065D01*
X116032868Y-85725173D01*
X116032869Y-85725172D01*
X116039976Y-85722487D01*
X116046239Y-85718183D01*
X116048605Y-85716946D01*
X116063417Y-85708701D01*
X116065671Y-85707368D01*
X116072625Y-85704315D01*
X116123322Y-85665413D01*
X116128652Y-85661541D01*
X116181302Y-85625357D01*
X116182242Y-85626725D01*
X116238330Y-85600528D01*
X116308688Y-85610029D01*
X116343619Y-85635434D01*
X116344423Y-85634541D01*
X116349325Y-85638954D01*
X116353747Y-85643866D01*
X116508248Y-85756118D01*
X116514276Y-85758802D01*
X116514278Y-85758803D01*
X116676681Y-85831109D01*
X116682712Y-85833794D01*
X116778023Y-85854053D01*
X116835569Y-85866285D01*
X116898467Y-85900437D01*
X124818550Y-93820520D01*
X124824404Y-93826785D01*
X124862439Y-93870385D01*
X124868657Y-93874755D01*
X124914697Y-93907112D01*
X124919993Y-93911045D01*
X124970282Y-93950477D01*
X124977204Y-93953602D01*
X124979452Y-93954964D01*
X124994185Y-93963368D01*
X124996524Y-93964622D01*
X125002739Y-93968990D01*
X125009815Y-93971749D01*
X125009819Y-93971751D01*
X125062274Y-93992202D01*
X125068352Y-93994757D01*
X125126574Y-94021045D01*
X125134045Y-94022429D01*
X125136599Y-94023230D01*
X125152878Y-94027867D01*
X125155433Y-94028523D01*
X125162509Y-94031282D01*
X125187447Y-94034565D01*
X125225851Y-94039621D01*
X125232367Y-94040653D01*
X125279249Y-94049342D01*
X125295187Y-94052296D01*
X125302767Y-94051859D01*
X125302768Y-94051859D01*
X125357398Y-94048709D01*
X125364651Y-94048500D01*
X139343954Y-94048500D01*
X139412075Y-94068502D01*
X139447167Y-94102230D01*
X139483398Y-94153974D01*
X139483402Y-94153979D01*
X139486561Y-94158490D01*
X139643510Y-94315439D01*
X139648018Y-94318596D01*
X139648021Y-94318598D01*
X139723687Y-94371580D01*
X139825327Y-94442749D01*
X139830309Y-94445072D01*
X139830314Y-94445075D01*
X140021508Y-94534230D01*
X140026490Y-94536553D01*
X140031798Y-94537975D01*
X140031800Y-94537976D01*
X140235571Y-94592576D01*
X140235573Y-94592576D01*
X140240886Y-94594000D01*
X140462000Y-94613345D01*
X140638891Y-94597869D01*
X144698689Y-94597869D01*
X144715238Y-94884883D01*
X144716063Y-94889088D01*
X144716064Y-94889096D01*
X144748010Y-95051921D01*
X144770586Y-95166995D01*
X144771973Y-95171045D01*
X144771974Y-95171050D01*
X144862321Y-95434930D01*
X144863710Y-95438986D01*
X144992885Y-95695822D01*
X145155721Y-95932750D01*
X145349206Y-96145388D01*
X145352501Y-96148143D01*
X145352502Y-96148144D01*
X145403258Y-96190582D01*
X145569759Y-96329798D01*
X145813298Y-96482571D01*
X146075318Y-96600877D01*
X146079437Y-96602097D01*
X146346857Y-96681311D01*
X146346862Y-96681312D01*
X146350970Y-96682529D01*
X146355204Y-96683177D01*
X146355209Y-96683178D01*
X146603811Y-96721219D01*
X146635153Y-96726015D01*
X146781485Y-96728314D01*
X146918317Y-96730464D01*
X146918323Y-96730464D01*
X146922608Y-96730531D01*
X146926860Y-96730016D01*
X146926868Y-96730016D01*
X147203756Y-96696508D01*
X147203761Y-96696507D01*
X147208017Y-96695992D01*
X147486097Y-96623039D01*
X147751704Y-96513021D01*
X147999922Y-96367974D01*
X148226159Y-96190582D01*
X148267285Y-96148144D01*
X148423244Y-95987206D01*
X148426227Y-95984128D01*
X148428760Y-95980680D01*
X148428764Y-95980675D01*
X148593887Y-95755886D01*
X148596425Y-95752431D01*
X148733604Y-95499779D01*
X148835225Y-95230848D01*
X148899407Y-94950613D01*
X148903557Y-94904119D01*
X148924743Y-94666726D01*
X148924743Y-94666724D01*
X148924963Y-94664260D01*
X148925427Y-94620000D01*
X148923687Y-94594479D01*
X148906165Y-94337452D01*
X148906164Y-94337446D01*
X148905873Y-94333175D01*
X148901336Y-94311264D01*
X148869698Y-94158490D01*
X148847574Y-94051658D01*
X148751607Y-93780657D01*
X148676793Y-93635707D01*
X148621715Y-93528995D01*
X148621715Y-93528994D01*
X148619750Y-93525188D01*
X148606488Y-93506317D01*
X148533384Y-93402301D01*
X148454441Y-93289977D01*
X148318901Y-93144119D01*
X148261661Y-93082521D01*
X148261658Y-93082519D01*
X148258740Y-93079378D01*
X148036268Y-92897287D01*
X147791142Y-92747073D01*
X147773048Y-92739130D01*
X147531830Y-92633243D01*
X147527898Y-92631517D01*
X147501963Y-92624129D01*
X147339218Y-92577770D01*
X147251406Y-92552756D01*
X147031856Y-92521510D01*
X146971036Y-92512854D01*
X146971034Y-92512854D01*
X146966784Y-92512249D01*
X146962495Y-92512227D01*
X146962488Y-92512226D01*
X146683583Y-92510765D01*
X146683576Y-92510765D01*
X146679297Y-92510743D01*
X146675053Y-92511302D01*
X146675049Y-92511302D01*
X146597513Y-92521510D01*
X146394266Y-92548268D01*
X146390126Y-92549401D01*
X146390124Y-92549401D01*
X146359269Y-92557842D01*
X146116964Y-92624129D01*
X146113016Y-92625813D01*
X145856476Y-92735237D01*
X145856472Y-92735239D01*
X145852524Y-92736923D01*
X145790453Y-92774072D01*
X145609521Y-92882357D01*
X145609517Y-92882360D01*
X145605839Y-92884561D01*
X145381472Y-93064313D01*
X145334728Y-93113571D01*
X145214952Y-93239789D01*
X145183577Y-93272851D01*
X145015814Y-93506317D01*
X144881288Y-93760392D01*
X144860035Y-93818468D01*
X144785903Y-94021045D01*
X144782489Y-94030373D01*
X144721245Y-94311264D01*
X144720909Y-94315534D01*
X144699106Y-94592576D01*
X144698689Y-94597869D01*
X140638891Y-94597869D01*
X140683114Y-94594000D01*
X140688427Y-94592576D01*
X140688429Y-94592576D01*
X140892200Y-94537976D01*
X140892202Y-94537975D01*
X140897510Y-94536553D01*
X140902492Y-94534230D01*
X141093686Y-94445075D01*
X141093691Y-94445072D01*
X141098673Y-94442749D01*
X141200313Y-94371580D01*
X141275979Y-94318598D01*
X141275982Y-94318596D01*
X141280490Y-94315439D01*
X141437439Y-94158490D01*
X141440602Y-94153974D01*
X141561592Y-93981181D01*
X141561593Y-93981179D01*
X141564749Y-93976672D01*
X141567072Y-93971690D01*
X141567075Y-93971685D01*
X141656230Y-93780492D01*
X141656231Y-93780490D01*
X141658553Y-93775510D01*
X141675298Y-93713019D01*
X141714576Y-93566429D01*
X141714576Y-93566427D01*
X141716000Y-93561114D01*
X141735345Y-93340000D01*
X141716000Y-93118886D01*
X141700660Y-93061636D01*
X141659976Y-92909800D01*
X141659975Y-92909798D01*
X141658553Y-92904490D01*
X141636434Y-92857056D01*
X141567075Y-92708315D01*
X141567072Y-92708310D01*
X141564749Y-92703328D01*
X141532689Y-92657541D01*
X141440598Y-92526021D01*
X141440596Y-92526018D01*
X141437439Y-92521510D01*
X141280490Y-92364561D01*
X141275982Y-92361404D01*
X141275979Y-92361402D01*
X141167771Y-92285634D01*
X141098673Y-92237251D01*
X141093691Y-92234928D01*
X141093686Y-92234925D01*
X140984894Y-92184195D01*
X140931609Y-92137278D01*
X140912148Y-92069000D01*
X140932690Y-92001041D01*
X140984894Y-91955805D01*
X141093686Y-91905075D01*
X141093691Y-91905072D01*
X141098673Y-91902749D01*
X141200313Y-91831580D01*
X141275979Y-91778598D01*
X141275982Y-91778596D01*
X141280490Y-91775439D01*
X141437439Y-91618490D01*
X141476869Y-91562179D01*
X141561592Y-91441181D01*
X141561593Y-91441179D01*
X141564749Y-91436672D01*
X141567072Y-91431690D01*
X141567075Y-91431685D01*
X141656230Y-91240492D01*
X141656231Y-91240490D01*
X141658553Y-91235510D01*
X141678256Y-91161979D01*
X141714576Y-91026429D01*
X141714576Y-91026427D01*
X141716000Y-91021114D01*
X141735345Y-90800000D01*
X141716000Y-90578886D01*
X141711276Y-90561257D01*
X141659976Y-90369800D01*
X141659975Y-90369798D01*
X141658553Y-90364490D01*
X141633083Y-90309870D01*
X141567075Y-90168315D01*
X141567072Y-90168310D01*
X141564749Y-90163328D01*
X141558225Y-90154011D01*
X141440598Y-89986021D01*
X141440596Y-89986018D01*
X141437439Y-89981510D01*
X141280490Y-89824561D01*
X141275982Y-89821404D01*
X141275979Y-89821402D01*
X141167771Y-89745634D01*
X141098673Y-89697251D01*
X141093685Y-89694925D01*
X140995026Y-89648919D01*
X140941741Y-89602001D01*
X140922280Y-89533724D01*
X140942822Y-89465764D01*
X140995026Y-89420529D01*
X141093435Y-89374641D01*
X141102931Y-89369158D01*
X141146329Y-89338770D01*
X141154704Y-89328293D01*
X141147635Y-89314845D01*
X140474812Y-88642022D01*
X140460868Y-88634408D01*
X140459035Y-88634539D01*
X140452420Y-88638790D01*
X139775643Y-89315567D01*
X139769213Y-89327342D01*
X139778509Y-89339357D01*
X139821069Y-89369158D01*
X139830566Y-89374641D01*
X139928974Y-89420530D01*
X139982259Y-89467448D01*
X140001720Y-89535725D01*
X139981178Y-89603685D01*
X139928975Y-89648919D01*
X139921451Y-89652428D01*
X139830315Y-89694925D01*
X139830310Y-89694928D01*
X139825328Y-89697251D01*
X139820821Y-89700407D01*
X139820819Y-89700408D01*
X139648021Y-89821402D01*
X139648018Y-89821404D01*
X139643510Y-89824561D01*
X139486561Y-89981510D01*
X139483404Y-89986018D01*
X139483402Y-89986021D01*
X139365775Y-90154011D01*
X139359251Y-90163328D01*
X139356928Y-90168310D01*
X139356925Y-90168315D01*
X139290917Y-90309870D01*
X139265447Y-90364490D01*
X139264025Y-90369798D01*
X139264024Y-90369800D01*
X139212724Y-90561257D01*
X139208000Y-90578886D01*
X139188655Y-90800000D01*
X139208000Y-91021114D01*
X139209424Y-91026427D01*
X139209424Y-91026429D01*
X139245745Y-91161979D01*
X139265447Y-91235510D01*
X139267769Y-91240490D01*
X139267770Y-91240492D01*
X139356925Y-91431685D01*
X139356928Y-91431690D01*
X139359251Y-91436672D01*
X139362407Y-91441179D01*
X139362408Y-91441181D01*
X139447132Y-91562179D01*
X139486561Y-91618490D01*
X139643510Y-91775439D01*
X139648018Y-91778596D01*
X139648021Y-91778598D01*
X139723687Y-91831580D01*
X139825327Y-91902749D01*
X139830309Y-91905072D01*
X139830314Y-91905075D01*
X139939106Y-91955805D01*
X139992391Y-92002722D01*
X140011852Y-92071000D01*
X139991310Y-92138959D01*
X139939106Y-92184195D01*
X139830315Y-92234925D01*
X139830310Y-92234928D01*
X139825328Y-92237251D01*
X139820821Y-92240407D01*
X139820819Y-92240408D01*
X139648021Y-92361402D01*
X139648018Y-92361404D01*
X139643510Y-92364561D01*
X139486561Y-92521510D01*
X139483403Y-92526020D01*
X139483398Y-92526026D01*
X139447167Y-92577770D01*
X139391711Y-92622099D01*
X139343954Y-92631500D01*
X139249001Y-92631500D01*
X139180880Y-92611498D01*
X139134387Y-92557842D01*
X139124283Y-92487568D01*
X139127294Y-92472889D01*
X139174576Y-92296429D01*
X139174576Y-92296427D01*
X139176000Y-92291114D01*
X139195345Y-92070000D01*
X139176000Y-91848886D01*
X139174576Y-91843571D01*
X139119976Y-91639800D01*
X139119975Y-91639798D01*
X139118553Y-91634490D01*
X139108989Y-91613979D01*
X139027075Y-91438315D01*
X139027072Y-91438310D01*
X139024749Y-91433328D01*
X139021592Y-91428819D01*
X138900598Y-91256021D01*
X138900596Y-91256018D01*
X138897439Y-91251510D01*
X138740490Y-91094561D01*
X138735982Y-91091404D01*
X138735979Y-91091402D01*
X138563643Y-90970731D01*
X138535952Y-90944222D01*
X138461491Y-90847183D01*
X138435890Y-90780963D01*
X138450155Y-90711414D01*
X138499756Y-90660618D01*
X138508202Y-90656285D01*
X138553681Y-90635078D01*
X138553692Y-90635072D01*
X138558673Y-90632749D01*
X138674334Y-90551762D01*
X138735979Y-90508598D01*
X138735982Y-90508596D01*
X138740490Y-90505439D01*
X138897439Y-90348490D01*
X138926534Y-90306939D01*
X139021592Y-90171181D01*
X139021593Y-90171179D01*
X139024749Y-90166672D01*
X139027072Y-90161690D01*
X139027075Y-90161685D01*
X139116230Y-89970492D01*
X139116231Y-89970490D01*
X139118553Y-89965510D01*
X139152401Y-89839189D01*
X139174576Y-89756429D01*
X139174576Y-89756427D01*
X139176000Y-89751114D01*
X139195345Y-89530000D01*
X139176000Y-89308886D01*
X139173753Y-89300500D01*
X139119976Y-89099800D01*
X139119975Y-89099798D01*
X139118553Y-89094490D01*
X139105247Y-89065955D01*
X139027075Y-88898315D01*
X139027072Y-88898310D01*
X139024749Y-88893328D01*
X139021332Y-88888448D01*
X138900598Y-88716021D01*
X138900596Y-88716018D01*
X138897439Y-88711510D01*
X138740490Y-88554561D01*
X138735982Y-88551404D01*
X138735979Y-88551402D01*
X138592337Y-88450823D01*
X138558673Y-88427251D01*
X138553691Y-88424928D01*
X138553686Y-88424925D01*
X138455617Y-88379195D01*
X138402332Y-88332278D01*
X138386142Y-88275475D01*
X139189635Y-88275475D01*
X139208014Y-88485547D01*
X139209917Y-88496340D01*
X139264495Y-88700028D01*
X139268241Y-88710320D01*
X139357359Y-88901435D01*
X139362842Y-88910931D01*
X139393230Y-88954329D01*
X139403707Y-88962704D01*
X139417155Y-88955635D01*
X140089978Y-88282812D01*
X140096356Y-88271132D01*
X140826408Y-88271132D01*
X140826539Y-88272965D01*
X140830790Y-88279580D01*
X141507567Y-88956357D01*
X141519342Y-88962787D01*
X141531357Y-88953491D01*
X141561158Y-88910931D01*
X141566641Y-88901435D01*
X141655759Y-88710320D01*
X141659505Y-88700028D01*
X141714083Y-88496340D01*
X141715986Y-88485547D01*
X141734365Y-88275475D01*
X141734365Y-88264525D01*
X141715986Y-88054453D01*
X141714083Y-88043660D01*
X141659505Y-87839972D01*
X141655759Y-87829680D01*
X141566641Y-87638565D01*
X141561158Y-87629069D01*
X141530770Y-87585671D01*
X141520293Y-87577296D01*
X141506845Y-87584365D01*
X140834022Y-88257188D01*
X140826408Y-88271132D01*
X140096356Y-88271132D01*
X140097592Y-88268868D01*
X140097461Y-88267035D01*
X140093210Y-88260420D01*
X139416433Y-87583643D01*
X139404658Y-87577213D01*
X139392643Y-87586509D01*
X139362842Y-87629069D01*
X139357359Y-87638565D01*
X139268241Y-87829680D01*
X139264495Y-87839972D01*
X139209917Y-88043660D01*
X139208014Y-88054453D01*
X139189635Y-88264525D01*
X139189635Y-88275475D01*
X138386142Y-88275475D01*
X138382871Y-88264000D01*
X138403413Y-88196040D01*
X138455617Y-88150805D01*
X138553686Y-88105075D01*
X138553691Y-88105072D01*
X138558673Y-88102749D01*
X138664603Y-88028576D01*
X138735979Y-87978598D01*
X138735982Y-87978596D01*
X138740490Y-87975439D01*
X138897439Y-87818490D01*
X138937890Y-87760721D01*
X139021592Y-87641181D01*
X139021593Y-87641179D01*
X139024749Y-87636672D01*
X139027072Y-87631690D01*
X139027075Y-87631685D01*
X139116230Y-87440492D01*
X139116231Y-87440490D01*
X139118553Y-87435510D01*
X139147743Y-87326573D01*
X139174576Y-87226429D01*
X139174576Y-87226427D01*
X139176000Y-87221114D01*
X139195345Y-87000000D01*
X139176000Y-86778886D01*
X139172054Y-86764159D01*
X139119976Y-86569800D01*
X139119975Y-86569798D01*
X139118553Y-86564490D01*
X139108142Y-86542164D01*
X139027075Y-86368315D01*
X139027072Y-86368310D01*
X139024749Y-86363328D01*
X139021592Y-86358819D01*
X138900598Y-86186021D01*
X138900596Y-86186018D01*
X138897439Y-86181510D01*
X138740490Y-86024561D01*
X138735982Y-86021404D01*
X138735979Y-86021402D01*
X138628906Y-85946429D01*
X138558673Y-85897251D01*
X138553691Y-85894928D01*
X138553686Y-85894925D01*
X138444894Y-85844195D01*
X138391609Y-85797278D01*
X138372148Y-85729000D01*
X138374868Y-85720000D01*
X139188655Y-85720000D01*
X139208000Y-85941114D01*
X139209424Y-85946427D01*
X139209424Y-85946429D01*
X139237581Y-86051511D01*
X139265447Y-86155510D01*
X139267769Y-86160490D01*
X139267770Y-86160492D01*
X139356925Y-86351685D01*
X139356928Y-86351690D01*
X139359251Y-86356672D01*
X139381970Y-86389118D01*
X139483371Y-86533934D01*
X139486561Y-86538490D01*
X139643510Y-86695439D01*
X139648018Y-86698596D01*
X139648021Y-86698598D01*
X139666706Y-86711681D01*
X139825327Y-86822749D01*
X139830309Y-86825072D01*
X139830314Y-86825075D01*
X139950419Y-86881081D01*
X140003704Y-86927999D01*
X140023165Y-86996276D01*
X140002623Y-87064236D01*
X139950419Y-87109471D01*
X139830565Y-87165359D01*
X139821069Y-87170842D01*
X139777671Y-87201230D01*
X139769296Y-87211707D01*
X139776365Y-87225155D01*
X140449188Y-87897978D01*
X140463132Y-87905592D01*
X140464965Y-87905461D01*
X140471580Y-87901210D01*
X141148357Y-87224433D01*
X141154787Y-87212658D01*
X141145491Y-87200643D01*
X141102931Y-87170842D01*
X141093435Y-87165359D01*
X140973581Y-87109471D01*
X140920296Y-87062554D01*
X140900835Y-86994277D01*
X140921377Y-86926317D01*
X140973581Y-86881081D01*
X141093686Y-86825075D01*
X141093691Y-86825072D01*
X141098673Y-86822749D01*
X141257294Y-86711681D01*
X141275979Y-86698598D01*
X141275982Y-86698596D01*
X141280490Y-86695439D01*
X141437439Y-86538490D01*
X141440630Y-86533934D01*
X141542030Y-86389118D01*
X141564749Y-86356672D01*
X141567072Y-86351690D01*
X141567075Y-86351685D01*
X141656230Y-86160492D01*
X141656231Y-86160490D01*
X141658553Y-86155510D01*
X141686420Y-86051511D01*
X141714576Y-85946429D01*
X141714576Y-85946427D01*
X141716000Y-85941114D01*
X141735345Y-85720000D01*
X141716000Y-85498886D01*
X141699846Y-85438598D01*
X141659976Y-85289800D01*
X141659975Y-85289798D01*
X141658553Y-85284490D01*
X141643081Y-85251311D01*
X141567075Y-85088315D01*
X141567072Y-85088310D01*
X141564749Y-85083328D01*
X141561592Y-85078819D01*
X141440598Y-84906021D01*
X141440596Y-84906018D01*
X141437439Y-84901510D01*
X141280490Y-84744561D01*
X141275982Y-84741404D01*
X141275979Y-84741402D01*
X141196348Y-84685644D01*
X141098673Y-84617251D01*
X141093691Y-84614928D01*
X141093686Y-84614925D01*
X140902492Y-84525770D01*
X140902491Y-84525769D01*
X140897510Y-84523447D01*
X140892202Y-84522025D01*
X140892200Y-84522024D01*
X140688429Y-84467424D01*
X140688427Y-84467424D01*
X140683114Y-84466000D01*
X140462000Y-84446655D01*
X140240886Y-84466000D01*
X140235573Y-84467424D01*
X140235571Y-84467424D01*
X140031800Y-84522024D01*
X140031798Y-84522025D01*
X140026490Y-84523447D01*
X140021510Y-84525769D01*
X140021508Y-84525770D01*
X139830315Y-84614925D01*
X139830310Y-84614928D01*
X139825328Y-84617251D01*
X139820821Y-84620407D01*
X139820819Y-84620408D01*
X139648021Y-84741402D01*
X139648018Y-84741404D01*
X139643510Y-84744561D01*
X139486561Y-84901510D01*
X139483404Y-84906018D01*
X139483402Y-84906021D01*
X139362408Y-85078819D01*
X139359251Y-85083328D01*
X139356928Y-85088310D01*
X139356925Y-85088315D01*
X139280919Y-85251311D01*
X139265447Y-85284490D01*
X139264025Y-85289798D01*
X139264024Y-85289800D01*
X139224154Y-85438598D01*
X139208000Y-85498886D01*
X139188655Y-85720000D01*
X138374868Y-85720000D01*
X138392690Y-85661041D01*
X138444894Y-85615805D01*
X138553686Y-85565075D01*
X138553691Y-85565072D01*
X138558673Y-85562749D01*
X138660313Y-85491580D01*
X138735979Y-85438598D01*
X138735982Y-85438596D01*
X138740490Y-85435439D01*
X138897439Y-85278490D01*
X138906191Y-85265992D01*
X139021592Y-85101181D01*
X139021593Y-85101179D01*
X139024749Y-85096672D01*
X139027072Y-85091690D01*
X139027075Y-85091685D01*
X139116230Y-84900492D01*
X139116231Y-84900490D01*
X139118553Y-84895510D01*
X139139665Y-84816721D01*
X139174576Y-84686429D01*
X139174576Y-84686427D01*
X139176000Y-84681114D01*
X139195345Y-84460000D01*
X139176000Y-84238886D01*
X139130688Y-84069779D01*
X139119976Y-84029800D01*
X139119975Y-84029798D01*
X139118553Y-84024490D01*
X139065298Y-83910285D01*
X139027075Y-83828315D01*
X139027072Y-83828310D01*
X139024749Y-83823328D01*
X139011822Y-83804866D01*
X138900598Y-83646021D01*
X138900596Y-83646018D01*
X138897439Y-83641510D01*
X138740490Y-83484561D01*
X138735982Y-83481404D01*
X138735979Y-83481402D01*
X138645701Y-83418189D01*
X138558673Y-83357251D01*
X138553691Y-83354928D01*
X138553686Y-83354925D01*
X138362492Y-83265770D01*
X138362491Y-83265769D01*
X138357510Y-83263447D01*
X138352202Y-83262025D01*
X138352200Y-83262024D01*
X138148429Y-83207424D01*
X138148427Y-83207424D01*
X138143114Y-83206000D01*
X137922000Y-83186655D01*
X137700886Y-83206000D01*
X137695573Y-83207424D01*
X137695571Y-83207424D01*
X137491800Y-83262024D01*
X137491798Y-83262025D01*
X137486490Y-83263447D01*
X137481510Y-83265769D01*
X137481508Y-83265770D01*
X137290315Y-83354925D01*
X137290310Y-83354928D01*
X137285328Y-83357251D01*
X137280821Y-83360407D01*
X137280819Y-83360408D01*
X137108021Y-83481402D01*
X137108018Y-83481404D01*
X137103510Y-83484561D01*
X137005476Y-83582595D01*
X136943164Y-83616621D01*
X136916381Y-83619500D01*
X121421227Y-83619500D01*
X121353106Y-83599498D01*
X121306613Y-83545842D01*
X121296509Y-83475568D01*
X121327591Y-83409190D01*
X121384621Y-83345852D01*
X121384622Y-83345851D01*
X121389040Y-83340944D01*
X121477620Y-83187520D01*
X121481223Y-83181279D01*
X121481224Y-83181278D01*
X121484527Y-83175556D01*
X121487025Y-83167869D01*
X144698689Y-83167869D01*
X144715238Y-83454883D01*
X144716063Y-83459088D01*
X144716064Y-83459096D01*
X144743016Y-83596469D01*
X144770586Y-83736995D01*
X144771973Y-83741045D01*
X144771974Y-83741050D01*
X144862321Y-84004930D01*
X144863710Y-84008986D01*
X144892265Y-84065761D01*
X144990252Y-84260586D01*
X144992885Y-84265822D01*
X145155721Y-84502750D01*
X145158608Y-84505923D01*
X145158609Y-84505924D01*
X145339100Y-84704282D01*
X145349206Y-84715388D01*
X145352501Y-84718143D01*
X145352502Y-84718144D01*
X145564631Y-84895510D01*
X145569759Y-84899798D01*
X145813298Y-85052571D01*
X146075318Y-85170877D01*
X146144563Y-85191388D01*
X146346857Y-85251311D01*
X146346862Y-85251312D01*
X146350970Y-85252529D01*
X146355204Y-85253177D01*
X146355209Y-85253178D01*
X146594538Y-85289800D01*
X146635153Y-85296015D01*
X146781485Y-85298314D01*
X146918317Y-85300464D01*
X146918323Y-85300464D01*
X146922608Y-85300531D01*
X146926860Y-85300016D01*
X146926868Y-85300016D01*
X147203756Y-85266508D01*
X147203761Y-85266507D01*
X147208017Y-85265992D01*
X147403557Y-85214693D01*
X147481954Y-85194126D01*
X147481955Y-85194126D01*
X147486097Y-85193039D01*
X147751704Y-85083021D01*
X147999922Y-84937974D01*
X148226159Y-84760582D01*
X148235577Y-84750864D01*
X148361997Y-84620408D01*
X148426227Y-84554128D01*
X148428760Y-84550680D01*
X148428764Y-84550675D01*
X148593887Y-84325886D01*
X148596425Y-84322431D01*
X148638811Y-84244366D01*
X148731554Y-84073555D01*
X148731555Y-84073553D01*
X148733604Y-84069779D01*
X148824846Y-83828315D01*
X148833707Y-83804866D01*
X148833708Y-83804862D01*
X148835225Y-83800848D01*
X148891495Y-83555158D01*
X148898449Y-83524797D01*
X148898450Y-83524793D01*
X148899407Y-83520613D01*
X148900421Y-83509257D01*
X148924743Y-83236726D01*
X148924743Y-83236724D01*
X148924963Y-83234260D01*
X148925427Y-83190000D01*
X148925071Y-83184771D01*
X148906165Y-82907452D01*
X148906164Y-82907446D01*
X148905873Y-82903175D01*
X148904363Y-82895881D01*
X148848443Y-82625855D01*
X148847574Y-82621658D01*
X148751607Y-82350657D01*
X148662557Y-82178126D01*
X148621715Y-82098995D01*
X148621715Y-82098994D01*
X148619750Y-82095188D01*
X148606488Y-82076317D01*
X148507313Y-81935206D01*
X148454441Y-81859977D01*
X148258740Y-81649378D01*
X148036268Y-81467287D01*
X147791142Y-81317073D01*
X147773048Y-81309130D01*
X147531830Y-81203243D01*
X147527898Y-81201517D01*
X147501963Y-81194129D01*
X147255534Y-81123932D01*
X147255535Y-81123932D01*
X147251406Y-81122756D01*
X147038704Y-81092485D01*
X146971036Y-81082854D01*
X146971034Y-81082854D01*
X146966784Y-81082249D01*
X146962495Y-81082227D01*
X146962488Y-81082226D01*
X146683583Y-81080765D01*
X146683576Y-81080765D01*
X146679297Y-81080743D01*
X146675053Y-81081302D01*
X146675049Y-81081302D01*
X146549660Y-81097810D01*
X146394266Y-81118268D01*
X146390126Y-81119401D01*
X146390124Y-81119401D01*
X146313311Y-81140415D01*
X146116964Y-81194129D01*
X146113016Y-81195813D01*
X145856476Y-81305237D01*
X145856472Y-81305239D01*
X145852524Y-81306923D01*
X145805604Y-81335004D01*
X145609521Y-81452357D01*
X145609517Y-81452360D01*
X145605839Y-81454561D01*
X145381472Y-81634313D01*
X145264372Y-81757711D01*
X145227003Y-81797090D01*
X145183577Y-81842851D01*
X145015814Y-82076317D01*
X144881288Y-82330392D01*
X144782489Y-82600373D01*
X144721245Y-82881264D01*
X144698689Y-83167869D01*
X121487025Y-83167869D01*
X121543542Y-82993928D01*
X121553081Y-82903175D01*
X121562814Y-82810565D01*
X121563504Y-82804000D01*
X121562814Y-82797435D01*
X121544232Y-82620635D01*
X121544232Y-82620633D01*
X121543542Y-82614072D01*
X121484527Y-82432444D01*
X121389040Y-82267056D01*
X121341692Y-82214470D01*
X121265675Y-82130045D01*
X121265674Y-82130044D01*
X121261253Y-82125134D01*
X121106752Y-82012882D01*
X121100724Y-82010198D01*
X121100722Y-82010197D01*
X120938319Y-81937891D01*
X120938318Y-81937891D01*
X120932288Y-81935206D01*
X120838888Y-81915353D01*
X120751944Y-81896872D01*
X120751939Y-81896872D01*
X120745487Y-81895500D01*
X120554513Y-81895500D01*
X120548061Y-81896872D01*
X120548056Y-81896872D01*
X120461112Y-81915353D01*
X120367712Y-81935206D01*
X120361682Y-81937891D01*
X120361681Y-81937891D01*
X120199278Y-82010197D01*
X120199276Y-82010198D01*
X120193248Y-82012882D01*
X120044092Y-82121251D01*
X120043837Y-82121436D01*
X119976969Y-82145294D01*
X119969776Y-82145500D01*
X116160056Y-82145500D01*
X116148200Y-82144941D01*
X116148197Y-82144941D01*
X116140463Y-82143212D01*
X116085446Y-82144941D01*
X116069631Y-82145438D01*
X116065673Y-82145500D01*
X116036568Y-82145500D01*
X116032168Y-82146056D01*
X116020336Y-82146988D01*
X115974169Y-82148438D01*
X115953579Y-82154420D01*
X115934218Y-82158430D01*
X115927230Y-82159312D01*
X115920796Y-82160125D01*
X115920795Y-82160125D01*
X115912936Y-82161118D01*
X115905571Y-82164034D01*
X115905567Y-82164035D01*
X115869979Y-82178126D01*
X115858769Y-82181965D01*
X115814400Y-82194855D01*
X115795943Y-82205771D01*
X115778193Y-82214466D01*
X115758244Y-82222365D01*
X115751833Y-82227023D01*
X115751831Y-82227024D01*
X115720864Y-82249523D01*
X115710946Y-82256038D01*
X115671193Y-82279548D01*
X115656032Y-82294709D01*
X115641000Y-82307548D01*
X115623643Y-82320159D01*
X115611843Y-82334423D01*
X115594198Y-82355752D01*
X115586208Y-82364533D01*
X114822144Y-83128596D01*
X114759832Y-83162621D01*
X114733049Y-83165500D01*
X114712513Y-83165500D01*
X114706061Y-83166872D01*
X114706056Y-83166872D01*
X114638279Y-83181279D01*
X114525712Y-83205206D01*
X114519682Y-83207891D01*
X114519681Y-83207891D01*
X114357278Y-83280197D01*
X114357276Y-83280198D01*
X114351248Y-83282882D01*
X114345907Y-83286762D01*
X114345906Y-83286763D01*
X114201837Y-83391436D01*
X114134969Y-83415294D01*
X114127776Y-83415500D01*
X114084089Y-83415500D01*
X114072233Y-83414941D01*
X114064493Y-83413211D01*
X114056567Y-83413460D01*
X114056566Y-83413460D01*
X113993641Y-83415438D01*
X113989683Y-83415500D01*
X113960598Y-83415500D01*
X113956667Y-83415997D01*
X113956660Y-83415997D01*
X113956209Y-83416054D01*
X113944373Y-83416986D01*
X113898199Y-83418438D01*
X113877609Y-83424420D01*
X113858248Y-83428430D01*
X113851260Y-83429312D01*
X113844826Y-83430125D01*
X113844825Y-83430125D01*
X113836966Y-83431118D01*
X113829601Y-83434034D01*
X113829597Y-83434035D01*
X113794009Y-83448126D01*
X113782799Y-83451965D01*
X113738430Y-83464855D01*
X113719965Y-83475775D01*
X113702225Y-83484466D01*
X113682274Y-83492365D01*
X113644904Y-83519516D01*
X113634982Y-83526033D01*
X113602053Y-83545507D01*
X113602049Y-83545510D01*
X113595223Y-83549547D01*
X113580059Y-83564711D01*
X113565026Y-83577551D01*
X113547673Y-83590159D01*
X113525782Y-83616621D01*
X113518228Y-83625752D01*
X113510238Y-83634532D01*
X112888884Y-84255886D01*
X112880104Y-84263876D01*
X112880102Y-84263878D01*
X112873409Y-84268125D01*
X112867983Y-84273903D01*
X112867982Y-84273904D01*
X112824885Y-84319798D01*
X112822130Y-84322640D01*
X112801562Y-84343208D01*
X112798845Y-84346711D01*
X112791137Y-84355736D01*
X112759517Y-84389408D01*
X112755696Y-84396359D01*
X112755695Y-84396360D01*
X112749186Y-84408199D01*
X112738332Y-84424723D01*
X112730507Y-84434812D01*
X112725185Y-84441673D01*
X112722038Y-84448945D01*
X112722037Y-84448947D01*
X112706835Y-84484076D01*
X112701613Y-84494736D01*
X112684552Y-84525770D01*
X112679365Y-84535204D01*
X112674030Y-84555982D01*
X112667631Y-84574672D01*
X112659109Y-84594365D01*
X112657869Y-84602196D01*
X112651883Y-84639989D01*
X112649476Y-84651612D01*
X112637989Y-84696353D01*
X112637989Y-84717800D01*
X112636438Y-84737510D01*
X112633083Y-84758693D01*
X108665172Y-84758693D01*
X108660414Y-84748489D01*
X108654931Y-84738994D01*
X108618491Y-84686952D01*
X108608012Y-84678576D01*
X108594566Y-84685644D01*
X107893022Y-85387188D01*
X107885408Y-85401132D01*
X107160658Y-85401132D01*
X108236077Y-84325713D01*
X108242507Y-84313938D01*
X108233211Y-84301923D01*
X108182006Y-84266069D01*
X108172511Y-84260586D01*
X107975053Y-84168510D01*
X107964761Y-84164764D01*
X107754312Y-84108375D01*
X107743519Y-84106472D01*
X107526475Y-84087483D01*
X107515515Y-84087483D01*
X107469215Y-84091534D01*
X107399610Y-84077546D01*
X107348618Y-84028147D01*
X107332427Y-83959021D01*
X107345226Y-83910288D01*
X107425766Y-83746970D01*
X107463934Y-83634532D01*
X107517498Y-83476738D01*
X107517499Y-83476734D01*
X107518825Y-83472828D01*
X107520296Y-83465437D01*
X107574500Y-83192929D01*
X107574500Y-83192926D01*
X107575304Y-83188886D01*
X107576962Y-83163598D01*
X107593969Y-82904119D01*
X107594239Y-82900000D01*
X107575928Y-82620635D01*
X107575574Y-82615229D01*
X107575573Y-82615225D01*
X107575304Y-82611114D01*
X107574500Y-82607071D01*
X107519631Y-82331222D01*
X107519629Y-82331216D01*
X107518825Y-82327172D01*
X107516445Y-82320159D01*
X107427090Y-82056930D01*
X107427089Y-82056928D01*
X107425766Y-82053030D01*
X107297721Y-81793381D01*
X107136881Y-81552665D01*
X107134169Y-81549573D01*
X107134164Y-81549566D01*
X106948705Y-81338093D01*
X106945996Y-81335004D01*
X106913976Y-81306923D01*
X106731435Y-81146837D01*
X106731429Y-81146832D01*
X106728335Y-81144119D01*
X106487620Y-80983279D01*
X106483921Y-80981455D01*
X106483916Y-80981452D01*
X106231665Y-80857056D01*
X106231663Y-80857055D01*
X106227970Y-80855234D01*
X106224070Y-80853910D01*
X105957738Y-80763502D01*
X105957734Y-80763501D01*
X105953828Y-80762175D01*
X105949784Y-80761371D01*
X105949778Y-80761369D01*
X105673929Y-80706500D01*
X105673926Y-80706500D01*
X105669886Y-80705696D01*
X105665775Y-80705427D01*
X105665771Y-80705426D01*
X105385119Y-80687031D01*
X105381000Y-80686761D01*
X105376881Y-80687031D01*
X105096229Y-80705426D01*
X105096225Y-80705427D01*
X105092114Y-80705696D01*
X105088074Y-80706500D01*
X105088071Y-80706500D01*
X104812222Y-80761369D01*
X104812216Y-80761371D01*
X104808172Y-80762175D01*
X104804266Y-80763501D01*
X104804262Y-80763502D01*
X104537930Y-80853910D01*
X104534030Y-80855234D01*
X104274381Y-80983279D01*
X104033665Y-81144119D01*
X104030573Y-81146831D01*
X104030566Y-81146836D01*
X103848024Y-81306923D01*
X103816004Y-81335004D01*
X103813295Y-81338093D01*
X103627836Y-81549566D01*
X103627831Y-81549573D01*
X103625119Y-81552665D01*
X103464279Y-81793381D01*
X103336234Y-82053030D01*
X103334911Y-82056928D01*
X103334910Y-82056930D01*
X103245556Y-82320159D01*
X103243175Y-82327172D01*
X103242371Y-82331216D01*
X103242369Y-82331222D01*
X103187500Y-82607071D01*
X103186696Y-82611114D01*
X103186427Y-82615225D01*
X103186426Y-82615229D01*
X103186072Y-82620635D01*
X103167761Y-82900000D01*
X102870500Y-82900000D01*
X102870500Y-80390500D01*
X102890502Y-80322379D01*
X102944158Y-80275886D01*
X102996500Y-80264500D01*
X152781500Y-80264500D01*
X152849621Y-80284502D01*
G37*
%TD.AperFunction*%
%TD*%
M02*
