M48
INCH
T1C0.0157
T2C0.0360
T3C0.0394
T4C0.0394
T5C0.1024
T6C0.1260
%
G90
G05
T1
X4.26Y-3.27
X4.48Y-3.4511
X4.49Y-3.35
X4.52Y-3.31
X4.57Y-3.44
X4.57Y-3.66
X4.6049Y-3.3451
X4.62Y-3.57
X4.75Y-3.26
X4.78Y-3.18
X4.97Y-3.48
X5.1Y-3.37
X5.34Y-3.47
T2
X5.43Y-3.3252
X5.43Y-3.4252
X5.43Y-3.5248
X5.43Y-3.6248
X5.53Y-3.3748
X5.53Y-3.4752
X5.53Y-3.5748
X5.53Y-3.6748
T3
X4.2331Y-3.3622
X4.2339Y-3.4606
X4.2339Y-3.5394
X4.2339Y-3.6378
T4
X4.1414Y-3.4114
X4.1414Y-3.5886
T5
X4.1489Y-3.2638
X4.1489Y-3.7362
T6
X5.78Y-3.2752
X5.78Y-3.7252
T0
M30
