%TF.GenerationSoftware,KiCad,Pcbnew,(6.0.4)*%
%TF.CreationDate,2023-01-25T09:54:27+09:00*%
%TF.ProjectId,naraetracker-usb-convertor,6e617261-6574-4726-9163-6b65722d7573,rev?*%
%TF.SameCoordinates,Original*%
%TF.FileFunction,Copper,L1,Top*%
%TF.FilePolarity,Positive*%
%FSLAX46Y46*%
G04 Gerber Fmt 4.6, Leading zero omitted, Abs format (unit mm)*
G04 Created by KiCad (PCBNEW (6.0.4)) date 2023-01-25 09:54:27*
%MOMM*%
%LPD*%
G01*
G04 APERTURE LIST*
G04 Aperture macros list*
%AMRoundRect*
0 Rectangle with rounded corners*
0 $1 Rounding radius*
0 $2 $3 $4 $5 $6 $7 $8 $9 X,Y pos of 4 corners*
0 Add a 4 corners polygon primitive as box body*
4,1,4,$2,$3,$4,$5,$6,$7,$8,$9,$2,$3,0*
0 Add four circle primitives for the rounded corners*
1,1,$1+$1,$2,$3*
1,1,$1+$1,$4,$5*
1,1,$1+$1,$6,$7*
1,1,$1+$1,$8,$9*
0 Add four rect primitives between the rounded corners*
20,1,$1+$1,$2,$3,$4,$5,0*
20,1,$1+$1,$4,$5,$6,$7,0*
20,1,$1+$1,$6,$7,$8,$9,0*
20,1,$1+$1,$8,$9,$2,$3,0*%
G04 Aperture macros list end*
%TA.AperFunction,SMDPad,CuDef*%
%ADD10RoundRect,0.150000X-0.825000X-0.150000X0.825000X-0.150000X0.825000X0.150000X-0.825000X0.150000X0*%
%TD*%
%TA.AperFunction,SMDPad,CuDef*%
%ADD11RoundRect,0.225000X-0.250000X0.225000X-0.250000X-0.225000X0.250000X-0.225000X0.250000X0.225000X0*%
%TD*%
%TA.AperFunction,SMDPad,CuDef*%
%ADD12RoundRect,0.135000X-0.135000X-0.185000X0.135000X-0.185000X0.135000X0.185000X-0.135000X0.185000X0*%
%TD*%
%TA.AperFunction,SMDPad,CuDef*%
%ADD13RoundRect,0.140000X-0.140000X-0.170000X0.140000X-0.170000X0.140000X0.170000X-0.140000X0.170000X0*%
%TD*%
%TA.AperFunction,SMDPad,CuDef*%
%ADD14RoundRect,0.140000X0.170000X-0.140000X0.170000X0.140000X-0.170000X0.140000X-0.170000X-0.140000X0*%
%TD*%
%TA.AperFunction,SMDPad,CuDef*%
%ADD15RoundRect,0.147500X-0.147500X-0.172500X0.147500X-0.172500X0.147500X0.172500X-0.147500X0.172500X0*%
%TD*%
%TA.AperFunction,ComponentPad*%
%ADD16C,3.200000*%
%TD*%
%TA.AperFunction,ComponentPad*%
%ADD17C,1.520000*%
%TD*%
%TA.AperFunction,SMDPad,CuDef*%
%ADD18R,2.000000X1.500000*%
%TD*%
%TA.AperFunction,SMDPad,CuDef*%
%ADD19R,2.000000X3.800000*%
%TD*%
%TA.AperFunction,ComponentPad*%
%ADD20C,1.000000*%
%TD*%
%TA.AperFunction,ComponentPad*%
%ADD21C,1.600000*%
%TD*%
%TA.AperFunction,ComponentPad*%
%ADD22C,3.400000*%
%TD*%
%TA.AperFunction,SMDPad,CuDef*%
%ADD23RoundRect,0.135000X0.135000X0.185000X-0.135000X0.185000X-0.135000X-0.185000X0.135000X-0.185000X0*%
%TD*%
%TA.AperFunction,SMDPad,CuDef*%
%ADD24RoundRect,0.135000X-0.185000X0.135000X-0.185000X-0.135000X0.185000X-0.135000X0.185000X0.135000X0*%
%TD*%
%TA.AperFunction,SMDPad,CuDef*%
%ADD25RoundRect,0.150000X-0.587500X-0.150000X0.587500X-0.150000X0.587500X0.150000X-0.587500X0.150000X0*%
%TD*%
%TA.AperFunction,SMDPad,CuDef*%
%ADD26RoundRect,0.225000X0.250000X-0.225000X0.250000X0.225000X-0.250000X0.225000X-0.250000X-0.225000X0*%
%TD*%
%TA.AperFunction,SMDPad,CuDef*%
%ADD27RoundRect,0.225000X-0.225000X-0.250000X0.225000X-0.250000X0.225000X0.250000X-0.225000X0.250000X0*%
%TD*%
%TA.AperFunction,ViaPad*%
%ADD28C,0.800000*%
%TD*%
%TA.AperFunction,Conductor*%
%ADD29C,1.000000*%
%TD*%
%TA.AperFunction,Conductor*%
%ADD30C,0.400000*%
%TD*%
%TA.AperFunction,Conductor*%
%ADD31C,0.300000*%
%TD*%
G04 APERTURE END LIST*
D10*
%TO.P,U2,1,GND*%
%TO.N,GND*%
X122747000Y-83947000D03*
%TO.P,U2,2,TXD*%
%TO.N,Net-(R1-Pad1)*%
X122747000Y-85217000D03*
%TO.P,U2,3,RXD*%
%TO.N,Net-(R2-Pad1)*%
X122747000Y-86487000D03*
%TO.P,U2,4,V3*%
%TO.N,+3V3*%
X122747000Y-87757000D03*
%TO.P,U2,5,UD+*%
%TO.N,/DP*%
X122747000Y-89027000D03*
%TO.P,U2,6,UD-*%
%TO.N,/DM*%
X122747000Y-90297000D03*
%TO.P,U2,7,NC*%
%TO.N,unconnected-(U2-Pad7)*%
X122747000Y-91567000D03*
%TO.P,U2,8,NC*%
%TO.N,unconnected-(U2-Pad8)*%
X122747000Y-92837000D03*
%TO.P,U2,9,~{CTS}*%
%TO.N,unconnected-(U2-Pad9)*%
X127697000Y-92837000D03*
%TO.P,U2,10,~{DSR}*%
%TO.N,unconnected-(U2-Pad10)*%
X127697000Y-91567000D03*
%TO.P,U2,11,~{RI}*%
%TO.N,unconnected-(U2-Pad11)*%
X127697000Y-90297000D03*
%TO.P,U2,12,~{DCD}*%
%TO.N,unconnected-(U2-Pad12)*%
X127697000Y-89027000D03*
%TO.P,U2,13,~{DTR}*%
%TO.N,Net-(Q1-Pad2)*%
X127697000Y-87757000D03*
%TO.P,U2,14,~{RTS}*%
%TO.N,Net-(Q2-Pad2)*%
X127697000Y-86487000D03*
%TO.P,U2,15,R232*%
%TO.N,unconnected-(U2-Pad15)*%
X127697000Y-85217000D03*
%TO.P,U2,16,VCC*%
%TO.N,Net-(C5-Pad2)*%
X127697000Y-83947000D03*
%TD*%
D11*
%TO.P,C1,1*%
%TO.N,VBUS*%
X110744000Y-95224000D03*
%TO.P,C1,2*%
%TO.N,GND*%
X110744000Y-96774000D03*
%TD*%
D12*
%TO.P,R4,1*%
%TO.N,Net-(Q1-Pad2)*%
X130554000Y-84582000D03*
%TO.P,R4,2*%
%TO.N,Net-(Q2-Pad1)*%
X131574000Y-84582000D03*
%TD*%
D13*
%TO.P,C5,1*%
%TO.N,GND*%
X124770000Y-80772000D03*
%TO.P,C5,2*%
%TO.N,Net-(C5-Pad2)*%
X125730000Y-80772000D03*
%TD*%
D14*
%TO.P,C3,1*%
%TO.N,+3V3*%
X109474000Y-92428000D03*
%TO.P,C3,2*%
%TO.N,GND*%
X109474000Y-91468000D03*
%TD*%
D15*
%TO.P,LEDRX1,1,K*%
%TO.N,Net-(LEDRX1-Pad1)*%
X113330000Y-80772000D03*
%TO.P,LEDRX1,2,A*%
%TO.N,+3V3*%
X114300000Y-80772000D03*
%TD*%
%TO.P,LEDPW1,1,K*%
%TO.N,Net-(LEDPW1-Pad1)*%
X110536000Y-80772000D03*
%TO.P,LEDPW1,2,A*%
%TO.N,+3V3*%
X111506000Y-80772000D03*
%TD*%
D16*
%TO.P,RJ1,*%
%TO.N,*%
X146812000Y-93858000D03*
X146812000Y-82428000D03*
D17*
%TO.P,RJ1,1,1*%
%TO.N,/TX*%
X140462000Y-92578000D03*
%TO.P,RJ1,2,2*%
%TO.N,/RST*%
X137922000Y-91308000D03*
%TO.P,RJ1,3,3*%
%TO.N,+3V3*%
X140462000Y-90038000D03*
%TO.P,RJ1,4,4*%
%TO.N,unconnected-(RJ1-Pad4)*%
X137922000Y-88768000D03*
%TO.P,RJ1,5,5*%
%TO.N,GND*%
X140462000Y-87508000D03*
%TO.P,RJ1,6,6*%
%TO.N,unconnected-(RJ1-Pad6)*%
X137922000Y-86238000D03*
%TO.P,RJ1,7,7*%
%TO.N,/IO0*%
X140462000Y-84958000D03*
%TO.P,RJ1,8,8*%
%TO.N,/RX*%
X137922000Y-83698000D03*
%TD*%
D18*
%TO.P,U1,1,GND*%
%TO.N,GND*%
X112928000Y-90664000D03*
D19*
%TO.P,U1,2,VO*%
%TO.N,+3V3*%
X119228000Y-92964000D03*
D18*
X112928000Y-92964000D03*
%TO.P,U1,3,VI*%
%TO.N,VBUS*%
X112928000Y-95264000D03*
%TD*%
D20*
%TO.P,USB1,*%
%TO.N,*%
X105191000Y-91150000D03*
X105191000Y-86650000D03*
D21*
%TO.P,USB1,1,VCC*%
%TO.N,VBUS*%
X107541000Y-92400000D03*
%TO.P,USB1,2,D-*%
%TO.N,/DM*%
X107541000Y-89900000D03*
%TO.P,USB1,3,D+*%
%TO.N,/DP*%
X107541000Y-87900000D03*
%TO.P,USB1,4,GND*%
%TO.N,GND*%
X107521000Y-85400000D03*
D22*
%TO.P,USB1,MH1,MH1*%
%TO.N,unconnected-(USB1-PadMH1)*%
X105381000Y-94900000D03*
%TO.P,USB1,MH2,MH2*%
%TO.N,unconnected-(USB1-PadMH2)*%
X105381000Y-82900000D03*
%TD*%
D23*
%TO.P,R2,1*%
%TO.N,Net-(R2-Pad1)*%
X120904000Y-86360000D03*
%TO.P,R2,2*%
%TO.N,/RX*%
X119884000Y-86360000D03*
%TD*%
D24*
%TO.P,R6,1*%
%TO.N,Net-(LEDTX1-Pad1)*%
X116078000Y-83058000D03*
%TO.P,R6,2*%
%TO.N,/TX*%
X116078000Y-84078000D03*
%TD*%
D23*
%TO.P,R1,1*%
%TO.N,Net-(R1-Pad1)*%
X120906000Y-85090000D03*
%TO.P,R1,2*%
%TO.N,/TX*%
X119886000Y-85090000D03*
%TD*%
D24*
%TO.P,R5,1*%
%TO.N,Net-(LEDPW1-Pad1)*%
X110490000Y-83058000D03*
%TO.P,R5,2*%
%TO.N,GND*%
X110490000Y-84078000D03*
%TD*%
D25*
%TO.P,Q2,1,B*%
%TO.N,Net-(Q2-Pad1)*%
X133174500Y-84648000D03*
%TO.P,Q2,2,E*%
%TO.N,Net-(Q2-Pad2)*%
X133174500Y-86548000D03*
%TO.P,Q2,3,C*%
%TO.N,/RST*%
X135049500Y-85598000D03*
%TD*%
D15*
%TO.P,LEDTX1,1,K*%
%TO.N,Net-(LEDTX1-Pad1)*%
X116101000Y-80772000D03*
%TO.P,LEDTX1,2,A*%
%TO.N,+3V3*%
X117071000Y-80772000D03*
%TD*%
D26*
%TO.P,C2,1*%
%TO.N,+3V3*%
X110744000Y-92710000D03*
%TO.P,C2,2*%
%TO.N,GND*%
X110744000Y-91160000D03*
%TD*%
D13*
%TO.P,C4,1*%
%TO.N,GND*%
X119916000Y-87630000D03*
%TO.P,C4,2*%
%TO.N,+3V3*%
X120876000Y-87630000D03*
%TD*%
D24*
%TO.P,R7,1*%
%TO.N,Net-(LEDRX1-Pad1)*%
X113284000Y-83058000D03*
%TO.P,R7,2*%
%TO.N,/RX*%
X113284000Y-84078000D03*
%TD*%
D25*
%TO.P,Q1,1,B*%
%TO.N,Net-(Q1-Pad1)*%
X133174500Y-89474000D03*
%TO.P,Q1,2,E*%
%TO.N,Net-(Q1-Pad2)*%
X133174500Y-91374000D03*
%TO.P,Q1,3,C*%
%TO.N,/IO0*%
X135049500Y-90424000D03*
%TD*%
D27*
%TO.P,C6,1*%
%TO.N,GND*%
X124434000Y-82296000D03*
%TO.P,C6,2*%
%TO.N,Net-(C5-Pad2)*%
X125984000Y-82296000D03*
%TD*%
D12*
%TO.P,R3,1*%
%TO.N,Net-(Q2-Pad2)*%
X130552000Y-89408000D03*
%TO.P,R3,2*%
%TO.N,Net-(Q1-Pad1)*%
X131572000Y-89408000D03*
%TD*%
D28*
%TO.N,GND*%
X117348000Y-90678000D03*
X112522000Y-81788000D03*
X120396000Y-82042000D03*
X108966000Y-81788000D03*
%TO.N,+3V3*%
X116078000Y-92964000D03*
X113792000Y-87657020D03*
%TO.N,Net-(Q1-Pad2)*%
X126238000Y-88392000D03*
X129540000Y-85598000D03*
%TO.N,/RST*%
X135636000Y-88138000D03*
%TO.N,/TX*%
X116965000Y-84965000D03*
%TO.N,/RX*%
X114046000Y-85090000D03*
%TD*%
D29*
%TO.N,VBUS*%
X110098000Y-95264000D02*
X112928000Y-95264000D01*
X107541000Y-92707000D02*
X110098000Y-95264000D01*
D30*
%TO.N,GND*%
X112432000Y-91160000D02*
X112928000Y-90664000D01*
X110998000Y-91160000D02*
X112432000Y-91160000D01*
D31*
%TO.N,+3V3*%
X116454372Y-80102480D02*
X113683372Y-80102480D01*
X111506000Y-85371020D02*
X113792000Y-87657020D01*
D30*
X110744000Y-92456000D02*
X110998000Y-92710000D01*
X125222000Y-89749862D02*
X125222000Y-92964000D01*
X120752000Y-94488000D02*
X119228000Y-92964000D01*
D29*
X112928000Y-92964000D02*
X116078000Y-92964000D01*
D30*
X137552203Y-90038000D02*
X140462000Y-90038000D01*
X109728000Y-92456000D02*
X110744000Y-92456000D01*
D31*
X117071000Y-80719108D02*
X116454372Y-80102480D01*
D30*
X110998000Y-92710000D02*
X112674000Y-92710000D01*
D31*
X114300000Y-80772000D02*
X114300000Y-80719108D01*
D30*
X123229138Y-87757000D02*
X125222000Y-89749862D01*
D31*
X117071000Y-80772000D02*
X117071000Y-80719108D01*
D29*
X116078000Y-92964000D02*
X119228000Y-92964000D01*
D30*
X123698000Y-94488000D02*
X120752000Y-94488000D01*
X120876000Y-87630000D02*
X122620000Y-87630000D01*
X123698000Y-94488000D02*
X133102203Y-94488000D01*
X112674000Y-92710000D02*
X112928000Y-92964000D01*
D31*
X111506000Y-80772000D02*
X111506000Y-85371020D01*
X113683372Y-80102480D02*
X112175520Y-80102480D01*
X114300000Y-80719108D02*
X113683372Y-80102480D01*
D30*
X122747000Y-87757000D02*
X123229138Y-87757000D01*
X122620000Y-87630000D02*
X122747000Y-87757000D01*
X125222000Y-92964000D02*
X123698000Y-94488000D01*
X133102203Y-94488000D02*
X137552203Y-90038000D01*
D31*
X112175520Y-80102480D02*
X111506000Y-80772000D01*
D30*
%TO.N,Net-(C5-Pad2)*%
X125730000Y-80772000D02*
X125730000Y-82042000D01*
X125984000Y-82296000D02*
X126046000Y-82296000D01*
X125730000Y-82042000D02*
X125984000Y-82296000D01*
X126046000Y-82296000D02*
X127697000Y-83947000D01*
D31*
%TO.N,Net-(LEDPW1-Pad1)*%
X110490000Y-80818000D02*
X110536000Y-80772000D01*
X110536000Y-80772000D02*
X110536000Y-83012000D01*
X110536000Y-83012000D02*
X110490000Y-83058000D01*
%TO.N,Net-(LEDRX1-Pad1)*%
X113284000Y-80818000D02*
X113330000Y-80772000D01*
X113330000Y-80772000D02*
X113330000Y-83012000D01*
X113330000Y-83012000D02*
X113284000Y-83058000D01*
%TO.N,Net-(LEDTX1-Pad1)*%
X116101000Y-80772000D02*
X116101000Y-83035000D01*
X116101000Y-83035000D02*
X116078000Y-83058000D01*
X116078000Y-80795000D02*
X116101000Y-80772000D01*
%TO.N,Net-(Q1-Pad1)*%
X133174500Y-89474000D02*
X131638000Y-89474000D01*
X131638000Y-89474000D02*
X131572000Y-89408000D01*
%TO.N,Net-(Q1-Pad2)*%
X129021520Y-88882734D02*
X129021520Y-88635520D01*
X131578786Y-91440000D02*
X129021520Y-88882734D01*
X130554000Y-84582000D02*
X130554000Y-84584000D01*
X128143000Y-87757000D02*
X127697000Y-87757000D01*
X133174500Y-91374000D02*
X133162000Y-91374000D01*
X126650573Y-88392000D02*
X127285573Y-87757000D01*
X126238000Y-88392000D02*
X126650573Y-88392000D01*
X127285573Y-87757000D02*
X127697000Y-87757000D01*
X133096000Y-91440000D02*
X131578786Y-91440000D01*
X130554000Y-84584000D02*
X129540000Y-85598000D01*
X129021520Y-88635520D02*
X128143000Y-87757000D01*
X133162000Y-91374000D02*
X133096000Y-91440000D01*
D30*
%TO.N,/IO0*%
X138402286Y-87397511D02*
X140462000Y-85337797D01*
X137652692Y-87397511D02*
X138402286Y-87397511D01*
X135049500Y-90424000D02*
X135049500Y-90000703D01*
X140462000Y-85337797D02*
X140462000Y-84958000D01*
X135049500Y-90000703D02*
X137652692Y-87397511D01*
D31*
%TO.N,Net-(Q2-Pad1)*%
X133174500Y-84648000D02*
X131640000Y-84648000D01*
X131640000Y-84648000D02*
X131574000Y-84582000D01*
%TO.N,Net-(Q2-Pad2)*%
X128108427Y-86487000D02*
X127697000Y-86487000D01*
X130552000Y-88930573D02*
X128108427Y-86487000D01*
X133174500Y-86548000D02*
X127758000Y-86548000D01*
X130552000Y-89408000D02*
X130552000Y-88930573D01*
X127758000Y-86548000D02*
X127697000Y-86487000D01*
D30*
%TO.N,/RST*%
X135636000Y-88138000D02*
X135049500Y-87551500D01*
X135049500Y-87551500D02*
X135049500Y-85598000D01*
%TO.N,Net-(R1-Pad1)*%
X122747000Y-85217000D02*
X121033000Y-85217000D01*
X121033000Y-85217000D02*
X120906000Y-85090000D01*
%TO.N,/TX*%
X119886000Y-85090000D02*
X117090000Y-85090000D01*
X116965000Y-84965000D02*
X116078000Y-84078000D01*
X117090000Y-85090000D02*
X116965000Y-84965000D01*
%TO.N,Net-(R2-Pad1)*%
X121031000Y-86487000D02*
X120904000Y-86360000D01*
X122747000Y-86487000D02*
X121031000Y-86487000D01*
%TO.N,/RX*%
X114046000Y-85090000D02*
X115316000Y-86360000D01*
X114046000Y-84840000D02*
X113284000Y-84078000D01*
X115316000Y-86360000D02*
X119884000Y-86360000D01*
X114046000Y-85090000D02*
X114046000Y-84840000D01*
%TO.N,/DP*%
X120523000Y-89027000D02*
X122747000Y-89027000D01*
X119952520Y-88456520D02*
X120523000Y-89027000D01*
X107541000Y-88207000D02*
X107790520Y-88456520D01*
X107790520Y-88456520D02*
X119952520Y-88456520D01*
%TO.N,/DM*%
X118999000Y-90297000D02*
X122747000Y-90297000D01*
X107541000Y-90207000D02*
X108340999Y-89407001D01*
X108340999Y-89407001D02*
X118109001Y-89407001D01*
X118109001Y-89407001D02*
X118999000Y-90297000D01*
%TD*%
%TA.AperFunction,Conductor*%
%TO.N,GND*%
G36*
X109703007Y-80284502D02*
G01*
X109749500Y-80338158D01*
X109759604Y-80408432D01*
X109755883Y-80425653D01*
X109737221Y-80489886D01*
X109737220Y-80489891D01*
X109735427Y-80496063D01*
X109734923Y-80502468D01*
X109734922Y-80502473D01*
X109732693Y-80530797D01*
X109732500Y-80533253D01*
X109732501Y-81010746D01*
X109735427Y-81047937D01*
X109763370Y-81144119D01*
X109777859Y-81193988D01*
X109781668Y-81207100D01*
X109859137Y-81338093D01*
X109859954Y-81339475D01*
X109877500Y-81403614D01*
X109877500Y-82388263D01*
X109857498Y-82456384D01*
X109840595Y-82477358D01*
X109792494Y-82525459D01*
X109788460Y-82532280D01*
X109777981Y-82550000D01*
X109709731Y-82665404D01*
X109707520Y-82673015D01*
X109707519Y-82673017D01*
X109698676Y-82703456D01*
X109664371Y-82821534D01*
X109663867Y-82827941D01*
X109663866Y-82827945D01*
X109661693Y-82855556D01*
X109661500Y-82858011D01*
X109661501Y-83257988D01*
X109664371Y-83294466D01*
X109709731Y-83450596D01*
X109741523Y-83504353D01*
X109758982Y-83573166D01*
X109741522Y-83632630D01*
X109714229Y-83678780D01*
X109707981Y-83693217D01*
X109675039Y-83806605D01*
X109675079Y-83820705D01*
X109682349Y-83824000D01*
X110152458Y-83824000D01*
X110187610Y-83829003D01*
X110197353Y-83831834D01*
X110197360Y-83831835D01*
X110203534Y-83833629D01*
X110209941Y-83834133D01*
X110209945Y-83834134D01*
X110237556Y-83836307D01*
X110237562Y-83836307D01*
X110240011Y-83836500D01*
X110249930Y-83836500D01*
X110618001Y-83836499D01*
X110686120Y-83856501D01*
X110732613Y-83910156D01*
X110744000Y-83962499D01*
X110744000Y-84837566D01*
X110748475Y-84852805D01*
X110751689Y-84855590D01*
X110807028Y-84883044D01*
X110843474Y-84943972D01*
X110847500Y-84975569D01*
X110847500Y-85288964D01*
X110846941Y-85300820D01*
X110845212Y-85308557D01*
X110847427Y-85379042D01*
X110847438Y-85379389D01*
X110847500Y-85383347D01*
X110847500Y-85412452D01*
X110848056Y-85416852D01*
X110848988Y-85428684D01*
X110850438Y-85474851D01*
X110852650Y-85482464D01*
X110852650Y-85482465D01*
X110856419Y-85495436D01*
X110860430Y-85514802D01*
X110863118Y-85536084D01*
X110866034Y-85543449D01*
X110866035Y-85543453D01*
X110880126Y-85579041D01*
X110883965Y-85590251D01*
X110896855Y-85634620D01*
X110907775Y-85653085D01*
X110916466Y-85670825D01*
X110924365Y-85690776D01*
X110944478Y-85718459D01*
X110951516Y-85728146D01*
X110958033Y-85738068D01*
X110977507Y-85770997D01*
X110977510Y-85771001D01*
X110981547Y-85777827D01*
X110996711Y-85792991D01*
X111009551Y-85808024D01*
X111022159Y-85825377D01*
X111054341Y-85852000D01*
X111057752Y-85854822D01*
X111066532Y-85862812D01*
X112736645Y-87532925D01*
X112770671Y-87595237D01*
X112765606Y-87666052D01*
X112723059Y-87722888D01*
X112656539Y-87747699D01*
X112647550Y-87748020D01*
X108951619Y-87748020D01*
X108883498Y-87728018D01*
X108837005Y-87674362D01*
X108829912Y-87654631D01*
X108826118Y-87640469D01*
X108784307Y-87484432D01*
X108776707Y-87456067D01*
X108776706Y-87456065D01*
X108775284Y-87450757D01*
X108761686Y-87421595D01*
X108680849Y-87248238D01*
X108680846Y-87248233D01*
X108678523Y-87243251D01*
X108601039Y-87132592D01*
X108550357Y-87060211D01*
X108550355Y-87060208D01*
X108547198Y-87055700D01*
X108385300Y-86893802D01*
X108380792Y-86890645D01*
X108380789Y-86890643D01*
X108298372Y-86832934D01*
X108197749Y-86762477D01*
X108189426Y-86758596D01*
X108188203Y-86757520D01*
X108187998Y-86757401D01*
X108188022Y-86757360D01*
X108136139Y-86711681D01*
X108116675Y-86643405D01*
X108137214Y-86575444D01*
X108177602Y-86537237D01*
X108177498Y-86537088D01*
X108178506Y-86536382D01*
X108179671Y-86535280D01*
X108182002Y-86533934D01*
X108234048Y-86497491D01*
X108242424Y-86487012D01*
X108235356Y-86473566D01*
X107533812Y-85772022D01*
X107519868Y-85764408D01*
X107518035Y-85764539D01*
X107511420Y-85768790D01*
X106805923Y-86474287D01*
X106799493Y-86486062D01*
X106808789Y-86498077D01*
X106859994Y-86533931D01*
X106869487Y-86539412D01*
X106872555Y-86540843D01*
X106873679Y-86541832D01*
X106874253Y-86542164D01*
X106874186Y-86542279D01*
X106925839Y-86587762D01*
X106945298Y-86656039D01*
X106924755Y-86723999D01*
X106884181Y-86762378D01*
X106884251Y-86762477D01*
X106879742Y-86765634D01*
X106879739Y-86765636D01*
X106701211Y-86890643D01*
X106701208Y-86890645D01*
X106696700Y-86893802D01*
X106534802Y-87055700D01*
X106531645Y-87060208D01*
X106531643Y-87060211D01*
X106480961Y-87132592D01*
X106403477Y-87243251D01*
X106401154Y-87248233D01*
X106401151Y-87248238D01*
X106320314Y-87421595D01*
X106306716Y-87450757D01*
X106305294Y-87456065D01*
X106305293Y-87456067D01*
X106251098Y-87658325D01*
X106247457Y-87671913D01*
X106227502Y-87900000D01*
X106247457Y-88128087D01*
X106248881Y-88133400D01*
X106248881Y-88133402D01*
X106301005Y-88327928D01*
X106306716Y-88349243D01*
X106309039Y-88354224D01*
X106309039Y-88354225D01*
X106401151Y-88551762D01*
X106401154Y-88551767D01*
X106403477Y-88556749D01*
X106453179Y-88627731D01*
X106521609Y-88725458D01*
X106534802Y-88744300D01*
X106601407Y-88810905D01*
X106635433Y-88873217D01*
X106630368Y-88944032D01*
X106601407Y-88989095D01*
X106534802Y-89055700D01*
X106531645Y-89060208D01*
X106531643Y-89060211D01*
X106476902Y-89138389D01*
X106403477Y-89243251D01*
X106401154Y-89248233D01*
X106401151Y-89248238D01*
X106315002Y-89432988D01*
X106306716Y-89450757D01*
X106305294Y-89456065D01*
X106305293Y-89456067D01*
X106253098Y-89650861D01*
X106247457Y-89671913D01*
X106227502Y-89900000D01*
X106247457Y-90128087D01*
X106248881Y-90133400D01*
X106248881Y-90133402D01*
X106299956Y-90324013D01*
X106306716Y-90349243D01*
X106309039Y-90354224D01*
X106309039Y-90354225D01*
X106401151Y-90551762D01*
X106401154Y-90551767D01*
X106403477Y-90556749D01*
X106446990Y-90618892D01*
X106511206Y-90710601D01*
X106534802Y-90744300D01*
X106696700Y-90906198D01*
X106701208Y-90909355D01*
X106701211Y-90909357D01*
X106743983Y-90939306D01*
X106884251Y-91037523D01*
X106889233Y-91039846D01*
X106891027Y-91040882D01*
X106940019Y-91092266D01*
X106953454Y-91161979D01*
X106927066Y-91227890D01*
X106891027Y-91259118D01*
X106889233Y-91260154D01*
X106884251Y-91262477D01*
X106811856Y-91313169D01*
X106701211Y-91390643D01*
X106701208Y-91390645D01*
X106696700Y-91393802D01*
X106534802Y-91555700D01*
X106531645Y-91560208D01*
X106531643Y-91560211D01*
X106484295Y-91627831D01*
X106403477Y-91743251D01*
X106401154Y-91748233D01*
X106401151Y-91748238D01*
X106314098Y-91934926D01*
X106306716Y-91950757D01*
X106305294Y-91956065D01*
X106305293Y-91956067D01*
X106258584Y-92130387D01*
X106247457Y-92171913D01*
X106227502Y-92400000D01*
X106247457Y-92628087D01*
X106248881Y-92633400D01*
X106248881Y-92633402D01*
X106255349Y-92657541D01*
X106253659Y-92728518D01*
X106213864Y-92787314D01*
X106148600Y-92815261D01*
X106093141Y-92809465D01*
X105957743Y-92763504D01*
X105953828Y-92762175D01*
X105949784Y-92761371D01*
X105949778Y-92761369D01*
X105673929Y-92706500D01*
X105673926Y-92706500D01*
X105669886Y-92705696D01*
X105665775Y-92705427D01*
X105665771Y-92705426D01*
X105385119Y-92687031D01*
X105381000Y-92686761D01*
X105376881Y-92687031D01*
X105096229Y-92705426D01*
X105096225Y-92705427D01*
X105092114Y-92705696D01*
X105088074Y-92706500D01*
X105088071Y-92706500D01*
X104812222Y-92761369D01*
X104812216Y-92761371D01*
X104808172Y-92762175D01*
X104804266Y-92763501D01*
X104804262Y-92763502D01*
X104537930Y-92853910D01*
X104534030Y-92855234D01*
X104530337Y-92857055D01*
X104530335Y-92857056D01*
X104363426Y-92939367D01*
X104274381Y-92983279D01*
X104033665Y-93144119D01*
X104030573Y-93146831D01*
X104030566Y-93146836D01*
X103836970Y-93316617D01*
X103816004Y-93335004D01*
X103813295Y-93338093D01*
X103627836Y-93549566D01*
X103627831Y-93549573D01*
X103625119Y-93552665D01*
X103464279Y-93793381D01*
X103336234Y-94053030D01*
X103334911Y-94056928D01*
X103334910Y-94056930D01*
X103247517Y-94314382D01*
X103243175Y-94327172D01*
X103242371Y-94331216D01*
X103242369Y-94331222D01*
X103214195Y-94472866D01*
X103186696Y-94611114D01*
X103167761Y-94900000D01*
X103168031Y-94904119D01*
X103186246Y-95182014D01*
X103186696Y-95188886D01*
X103187500Y-95192926D01*
X103187500Y-95192929D01*
X103233761Y-95425498D01*
X103243175Y-95472828D01*
X103244501Y-95476734D01*
X103244502Y-95476738D01*
X103334910Y-95743070D01*
X103336234Y-95746970D01*
X103464279Y-96006619D01*
X103625119Y-96247335D01*
X103627831Y-96250427D01*
X103627836Y-96250434D01*
X103764432Y-96406190D01*
X103816004Y-96464996D01*
X103819093Y-96467705D01*
X104030565Y-96653163D01*
X104030571Y-96653168D01*
X104033665Y-96655881D01*
X104274380Y-96816721D01*
X104278079Y-96818545D01*
X104278084Y-96818548D01*
X104530335Y-96942944D01*
X104534030Y-96944766D01*
X104537924Y-96946088D01*
X104537934Y-96946092D01*
X104803346Y-97036187D01*
X104861423Y-97077024D01*
X104888201Y-97142777D01*
X104875180Y-97212569D01*
X104826493Y-97264242D01*
X104762845Y-97281500D01*
X102996500Y-97281500D01*
X102928379Y-97261498D01*
X102881886Y-97207842D01*
X102870500Y-97155500D01*
X102870500Y-91135851D01*
X104177719Y-91135851D01*
X104178235Y-91141995D01*
X104193518Y-91324000D01*
X104194268Y-91332934D01*
X104216906Y-91411881D01*
X104246045Y-91513500D01*
X104248783Y-91523050D01*
X104253180Y-91531606D01*
X104308631Y-91639500D01*
X104339187Y-91698956D01*
X104462035Y-91853953D01*
X104466728Y-91857947D01*
X104466729Y-91857948D01*
X104602194Y-91973237D01*
X104612650Y-91982136D01*
X104785294Y-92078624D01*
X104973392Y-92139740D01*
X105169777Y-92163158D01*
X105175912Y-92162686D01*
X105175914Y-92162686D01*
X105360830Y-92148457D01*
X105360834Y-92148456D01*
X105366972Y-92147984D01*
X105557463Y-92094798D01*
X105562967Y-92092018D01*
X105562969Y-92092017D01*
X105728495Y-92008404D01*
X105728497Y-92008403D01*
X105733996Y-92005625D01*
X105889847Y-91883861D01*
X105997184Y-91759510D01*
X106015049Y-91738813D01*
X106015050Y-91738811D01*
X106019078Y-91734145D01*
X106116769Y-91562179D01*
X106179197Y-91374513D01*
X106203985Y-91178295D01*
X106204380Y-91150000D01*
X106185080Y-90953167D01*
X106182053Y-90943139D01*
X106141214Y-90807876D01*
X106127916Y-90763831D01*
X106035066Y-90589204D01*
X105949133Y-90483840D01*
X105913960Y-90440713D01*
X105913957Y-90440710D01*
X105910065Y-90435938D01*
X105903724Y-90430692D01*
X105762425Y-90313799D01*
X105762421Y-90313797D01*
X105757675Y-90309870D01*
X105583701Y-90215802D01*
X105394768Y-90157318D01*
X105388643Y-90156674D01*
X105388642Y-90156674D01*
X105204204Y-90137289D01*
X105204202Y-90137289D01*
X105198075Y-90136645D01*
X105115576Y-90144153D01*
X105007251Y-90154011D01*
X105007248Y-90154012D01*
X105001112Y-90154570D01*
X104995206Y-90156308D01*
X104995202Y-90156309D01*
X104900321Y-90184234D01*
X104811381Y-90210410D01*
X104805923Y-90213263D01*
X104805919Y-90213265D01*
X104718219Y-90259114D01*
X104636110Y-90302040D01*
X104481975Y-90425968D01*
X104354846Y-90577474D01*
X104351879Y-90582872D01*
X104351875Y-90582877D01*
X104284653Y-90705156D01*
X104259567Y-90750787D01*
X104257706Y-90756654D01*
X104257705Y-90756656D01*
X104209265Y-90909357D01*
X104199765Y-90939306D01*
X104177719Y-91135851D01*
X102870500Y-91135851D01*
X102870500Y-86635851D01*
X104177719Y-86635851D01*
X104178235Y-86641995D01*
X104193381Y-86822365D01*
X104194268Y-86832934D01*
X104204056Y-86867069D01*
X104246406Y-87014759D01*
X104248783Y-87023050D01*
X104251602Y-87028535D01*
X104329694Y-87180484D01*
X104339187Y-87198956D01*
X104462035Y-87353953D01*
X104466728Y-87357947D01*
X104466729Y-87357948D01*
X104587597Y-87460814D01*
X104612650Y-87482136D01*
X104785294Y-87578624D01*
X104973392Y-87639740D01*
X105169777Y-87663158D01*
X105175912Y-87662686D01*
X105175914Y-87662686D01*
X105360830Y-87648457D01*
X105360834Y-87648456D01*
X105366972Y-87647984D01*
X105557463Y-87594798D01*
X105562967Y-87592018D01*
X105562969Y-87592017D01*
X105728495Y-87508404D01*
X105728497Y-87508403D01*
X105733996Y-87505625D01*
X105889847Y-87383861D01*
X105999911Y-87256350D01*
X106015049Y-87238813D01*
X106015050Y-87238811D01*
X106019078Y-87234145D01*
X106116769Y-87062179D01*
X106179197Y-86874513D01*
X106203985Y-86678295D01*
X106204380Y-86650000D01*
X106185080Y-86453167D01*
X106171698Y-86408842D01*
X106131738Y-86276491D01*
X106127916Y-86263831D01*
X106035066Y-86089204D01*
X105928706Y-85958794D01*
X105913960Y-85940713D01*
X105913957Y-85940710D01*
X105910065Y-85935938D01*
X105903724Y-85930692D01*
X105762425Y-85813799D01*
X105762421Y-85813797D01*
X105757675Y-85809870D01*
X105583701Y-85715802D01*
X105394768Y-85657318D01*
X105388643Y-85656674D01*
X105388642Y-85656674D01*
X105204204Y-85637289D01*
X105204202Y-85637289D01*
X105198075Y-85636645D01*
X105115576Y-85644153D01*
X105007251Y-85654011D01*
X105007248Y-85654012D01*
X105001112Y-85654570D01*
X104995206Y-85656308D01*
X104995202Y-85656309D01*
X104909199Y-85681621D01*
X104811381Y-85710410D01*
X104805923Y-85713263D01*
X104805919Y-85713265D01*
X104715147Y-85760720D01*
X104636110Y-85802040D01*
X104481975Y-85925968D01*
X104354846Y-86077474D01*
X104351879Y-86082872D01*
X104351875Y-86082877D01*
X104307104Y-86164317D01*
X104259567Y-86250787D01*
X104257706Y-86256654D01*
X104257705Y-86256656D01*
X104212686Y-86398574D01*
X104199765Y-86439306D01*
X104177719Y-86635851D01*
X102870500Y-86635851D01*
X102870500Y-82900000D01*
X103167761Y-82900000D01*
X103168031Y-82904119D01*
X103184614Y-83157116D01*
X103186696Y-83188886D01*
X103187500Y-83192926D01*
X103187500Y-83192929D01*
X103240110Y-83457418D01*
X103243175Y-83472828D01*
X103244501Y-83476734D01*
X103244502Y-83476738D01*
X103334910Y-83743070D01*
X103336234Y-83746970D01*
X103338053Y-83750658D01*
X103338056Y-83750665D01*
X103379219Y-83834134D01*
X103464279Y-84006619D01*
X103625119Y-84247335D01*
X103627831Y-84250427D01*
X103627836Y-84250434D01*
X103788793Y-84433968D01*
X103816004Y-84464996D01*
X103819093Y-84467705D01*
X104030565Y-84653163D01*
X104030571Y-84653168D01*
X104033665Y-84655881D01*
X104274380Y-84816721D01*
X104278079Y-84818545D01*
X104278084Y-84818548D01*
X104491002Y-84923547D01*
X104534030Y-84944766D01*
X104537928Y-84946089D01*
X104537930Y-84946090D01*
X104804262Y-85036498D01*
X104804266Y-85036499D01*
X104808172Y-85037825D01*
X104812216Y-85038629D01*
X104812222Y-85038631D01*
X105088071Y-85093500D01*
X105088074Y-85093500D01*
X105092114Y-85094304D01*
X105096225Y-85094573D01*
X105096229Y-85094574D01*
X105376881Y-85112969D01*
X105381000Y-85113239D01*
X105385119Y-85112969D01*
X105665771Y-85094574D01*
X105665775Y-85094573D01*
X105669886Y-85094304D01*
X105673926Y-85093500D01*
X105673929Y-85093500D01*
X105949778Y-85038631D01*
X105949784Y-85038629D01*
X105953828Y-85037825D01*
X105974767Y-85030717D01*
X106071709Y-84997810D01*
X106142644Y-84994854D01*
X106203916Y-85030717D01*
X106236073Y-85094014D01*
X106233917Y-85149732D01*
X106229376Y-85166681D01*
X106227472Y-85177481D01*
X106208483Y-85394525D01*
X106208483Y-85405475D01*
X106227472Y-85622519D01*
X106229375Y-85633312D01*
X106285764Y-85843761D01*
X106289510Y-85854053D01*
X106381586Y-86051511D01*
X106387069Y-86061006D01*
X106423509Y-86113048D01*
X106433988Y-86121424D01*
X106447434Y-86114356D01*
X107160658Y-85401132D01*
X107885408Y-85401132D01*
X107885539Y-85402965D01*
X107889790Y-85409580D01*
X108595287Y-86115077D01*
X108607062Y-86121507D01*
X108619077Y-86112211D01*
X108654931Y-86061006D01*
X108660414Y-86051511D01*
X108752490Y-85854053D01*
X108756236Y-85843761D01*
X108812625Y-85633312D01*
X108814528Y-85622519D01*
X108833517Y-85405475D01*
X108833517Y-85394525D01*
X108814528Y-85177481D01*
X108812625Y-85166688D01*
X108756236Y-84956239D01*
X108752490Y-84945947D01*
X108660414Y-84748489D01*
X108654931Y-84738994D01*
X108618491Y-84686952D01*
X108608012Y-84678576D01*
X108594566Y-84685644D01*
X107893022Y-85387188D01*
X107885408Y-85401132D01*
X107160658Y-85401132D01*
X108217919Y-84343871D01*
X109673434Y-84343871D01*
X109707981Y-84462783D01*
X109714230Y-84477222D01*
X109788854Y-84603405D01*
X109798501Y-84615841D01*
X109902159Y-84719499D01*
X109914595Y-84729146D01*
X110040778Y-84803770D01*
X110055217Y-84810019D01*
X110197436Y-84851338D01*
X110210023Y-84853637D01*
X110217943Y-84854260D01*
X110233030Y-84851090D01*
X110236000Y-84839626D01*
X110236000Y-84350115D01*
X110231525Y-84334876D01*
X110230135Y-84333671D01*
X110222452Y-84332000D01*
X109688100Y-84332000D01*
X109674569Y-84335973D01*
X109673434Y-84343871D01*
X108217919Y-84343871D01*
X108236077Y-84325713D01*
X108242507Y-84313938D01*
X108233211Y-84301923D01*
X108182006Y-84266069D01*
X108172511Y-84260586D01*
X107975053Y-84168510D01*
X107964761Y-84164764D01*
X107754312Y-84108375D01*
X107743519Y-84106472D01*
X107526475Y-84087483D01*
X107515515Y-84087483D01*
X107469215Y-84091534D01*
X107399610Y-84077546D01*
X107348618Y-84028147D01*
X107332427Y-83959021D01*
X107345226Y-83910288D01*
X107425766Y-83746970D01*
X107427090Y-83743070D01*
X107517498Y-83476738D01*
X107517499Y-83476734D01*
X107518825Y-83472828D01*
X107521891Y-83457418D01*
X107574500Y-83192929D01*
X107574500Y-83192926D01*
X107575304Y-83188886D01*
X107577387Y-83157116D01*
X107593969Y-82904119D01*
X107594239Y-82900000D01*
X107580664Y-82692883D01*
X107575574Y-82615229D01*
X107575573Y-82615225D01*
X107575304Y-82611114D01*
X107572149Y-82595251D01*
X107519631Y-82331222D01*
X107519629Y-82331216D01*
X107518825Y-82327172D01*
X107450700Y-82126481D01*
X107427090Y-82056930D01*
X107427089Y-82056928D01*
X107425766Y-82053030D01*
X107396704Y-81994097D01*
X107299550Y-81797090D01*
X107297721Y-81793381D01*
X107136881Y-81552665D01*
X107134169Y-81549573D01*
X107134164Y-81549566D01*
X106948705Y-81338093D01*
X106945996Y-81335004D01*
X106800151Y-81207100D01*
X106731435Y-81146837D01*
X106731429Y-81146832D01*
X106728335Y-81144119D01*
X106487620Y-80983279D01*
X106483921Y-80981455D01*
X106483916Y-80981452D01*
X106231665Y-80857056D01*
X106231663Y-80857055D01*
X106227970Y-80855234D01*
X106224070Y-80853910D01*
X105957738Y-80763502D01*
X105957734Y-80763501D01*
X105953828Y-80762175D01*
X105949784Y-80761371D01*
X105949778Y-80761369D01*
X105673929Y-80706500D01*
X105673926Y-80706500D01*
X105669886Y-80705696D01*
X105665775Y-80705427D01*
X105665771Y-80705426D01*
X105385119Y-80687031D01*
X105381000Y-80686761D01*
X105376881Y-80687031D01*
X105096229Y-80705426D01*
X105096225Y-80705427D01*
X105092114Y-80705696D01*
X105088074Y-80706500D01*
X105088071Y-80706500D01*
X104812222Y-80761369D01*
X104812216Y-80761371D01*
X104808172Y-80762175D01*
X104804266Y-80763501D01*
X104804262Y-80763502D01*
X104537930Y-80853910D01*
X104534030Y-80855234D01*
X104530337Y-80857055D01*
X104530335Y-80857056D01*
X104462475Y-80890521D01*
X104274381Y-80983279D01*
X104033665Y-81144119D01*
X104030573Y-81146831D01*
X104030566Y-81146836D01*
X103961849Y-81207100D01*
X103816004Y-81335004D01*
X103813295Y-81338093D01*
X103627836Y-81549566D01*
X103627831Y-81549573D01*
X103625119Y-81552665D01*
X103464279Y-81793381D01*
X103462450Y-81797090D01*
X103365297Y-81994097D01*
X103336234Y-82053030D01*
X103334911Y-82056928D01*
X103334910Y-82056930D01*
X103311301Y-82126481D01*
X103243175Y-82327172D01*
X103242371Y-82331216D01*
X103242369Y-82331222D01*
X103189851Y-82595251D01*
X103186696Y-82611114D01*
X103186427Y-82615225D01*
X103186426Y-82615229D01*
X103181336Y-82692883D01*
X103167761Y-82900000D01*
X102870500Y-82900000D01*
X102870500Y-80390500D01*
X102890502Y-80322379D01*
X102944158Y-80275886D01*
X102996500Y-80264500D01*
X109634886Y-80264500D01*
X109703007Y-80284502D01*
G37*
%TD.AperFunction*%
%TA.AperFunction,Conductor*%
G36*
X145961532Y-80284502D02*
G01*
X146008025Y-80338158D01*
X146018129Y-80408432D01*
X145988635Y-80473012D01*
X145942846Y-80506397D01*
X145852524Y-80544923D01*
X145774436Y-80591658D01*
X145609521Y-80690357D01*
X145609517Y-80690360D01*
X145605839Y-80692561D01*
X145381472Y-80872313D01*
X145355426Y-80899760D01*
X145220903Y-81041518D01*
X145183577Y-81080851D01*
X145015814Y-81314317D01*
X145013805Y-81318112D01*
X145013804Y-81318113D01*
X145000658Y-81342942D01*
X144881288Y-81568392D01*
X144782489Y-81838373D01*
X144721245Y-82119264D01*
X144720909Y-82123534D01*
X144700075Y-82388263D01*
X144698689Y-82405869D01*
X144715238Y-82692883D01*
X144716063Y-82697088D01*
X144716064Y-82697096D01*
X144746476Y-82852107D01*
X144770586Y-82974995D01*
X144771973Y-82979045D01*
X144771974Y-82979050D01*
X144844847Y-83191892D01*
X144863710Y-83246986D01*
X144879898Y-83279172D01*
X144979338Y-83476886D01*
X144992885Y-83503822D01*
X145155721Y-83740750D01*
X145158608Y-83743923D01*
X145158609Y-83743924D01*
X145313033Y-83913634D01*
X145349206Y-83953388D01*
X145352501Y-83956143D01*
X145352502Y-83956144D01*
X145564631Y-84133510D01*
X145569759Y-84137798D01*
X145813298Y-84290571D01*
X146075318Y-84408877D01*
X146083964Y-84411438D01*
X146346857Y-84489311D01*
X146346862Y-84489312D01*
X146350970Y-84490529D01*
X146355204Y-84491177D01*
X146355209Y-84491178D01*
X146594538Y-84527800D01*
X146635153Y-84534015D01*
X146781485Y-84536314D01*
X146918317Y-84538464D01*
X146918323Y-84538464D01*
X146922608Y-84538531D01*
X146926860Y-84538016D01*
X146926868Y-84538016D01*
X147203756Y-84504508D01*
X147203761Y-84504507D01*
X147208017Y-84503992D01*
X147335315Y-84470596D01*
X147481954Y-84432126D01*
X147481955Y-84432126D01*
X147486097Y-84431039D01*
X147751704Y-84321021D01*
X147957095Y-84201000D01*
X147996219Y-84178138D01*
X147996220Y-84178137D01*
X147999922Y-84175974D01*
X148226159Y-83998582D01*
X148241685Y-83982561D01*
X148363845Y-83856501D01*
X148426227Y-83792128D01*
X148428760Y-83788680D01*
X148428764Y-83788675D01*
X148593887Y-83563886D01*
X148596425Y-83560431D01*
X148614700Y-83526773D01*
X148731554Y-83311555D01*
X148731555Y-83311553D01*
X148733604Y-83307779D01*
X148797497Y-83138693D01*
X148833707Y-83042866D01*
X148833708Y-83042862D01*
X148835225Y-83038848D01*
X148876076Y-82860484D01*
X148898449Y-82762797D01*
X148898450Y-82762793D01*
X148899407Y-82758613D01*
X148902907Y-82719402D01*
X148924743Y-82474726D01*
X148924743Y-82474724D01*
X148924963Y-82472260D01*
X148925427Y-82428000D01*
X148905873Y-82141175D01*
X148901336Y-82119264D01*
X148848443Y-81863855D01*
X148847574Y-81859658D01*
X148751607Y-81588657D01*
X148688530Y-81466448D01*
X148621715Y-81336995D01*
X148621715Y-81336994D01*
X148619750Y-81333188D01*
X148606488Y-81314317D01*
X148488780Y-81146837D01*
X148454441Y-81097977D01*
X148258740Y-80887378D01*
X148036268Y-80705287D01*
X147791142Y-80555073D01*
X147679058Y-80505872D01*
X147624725Y-80460177D01*
X147603720Y-80392359D01*
X147622714Y-80323951D01*
X147675678Y-80276671D01*
X147729706Y-80264500D01*
X152781500Y-80264500D01*
X152849621Y-80284502D01*
X152896114Y-80338158D01*
X152907500Y-80390500D01*
X152907500Y-97155500D01*
X152887498Y-97223621D01*
X152833842Y-97270114D01*
X152781500Y-97281500D01*
X111842615Y-97281500D01*
X111774494Y-97261498D01*
X111728001Y-97207842D01*
X111717271Y-97142657D01*
X111726672Y-97050901D01*
X111726929Y-97045874D01*
X111722525Y-97030876D01*
X111721135Y-97029671D01*
X111713452Y-97028000D01*
X109779115Y-97028000D01*
X109763876Y-97032475D01*
X109762671Y-97033865D01*
X109761000Y-97041548D01*
X109761000Y-97044438D01*
X109761337Y-97050953D01*
X109770836Y-97142495D01*
X109757972Y-97212317D01*
X109709401Y-97264099D01*
X109645509Y-97281500D01*
X105999155Y-97281500D01*
X105931034Y-97261498D01*
X105884541Y-97207842D01*
X105874437Y-97137568D01*
X105903931Y-97072988D01*
X105958654Y-97036187D01*
X106224066Y-96946092D01*
X106224076Y-96946088D01*
X106227970Y-96944766D01*
X106231665Y-96942944D01*
X106483916Y-96818548D01*
X106483921Y-96818545D01*
X106487620Y-96816721D01*
X106728335Y-96655881D01*
X106731429Y-96653168D01*
X106731435Y-96653163D01*
X106942907Y-96467705D01*
X106945996Y-96464996D01*
X106997568Y-96406190D01*
X107134164Y-96250434D01*
X107134169Y-96250427D01*
X107136881Y-96247335D01*
X107297721Y-96006619D01*
X107425766Y-95746970D01*
X107427090Y-95743070D01*
X107517498Y-95476738D01*
X107517499Y-95476734D01*
X107518825Y-95472828D01*
X107528240Y-95425498D01*
X107574500Y-95192929D01*
X107574500Y-95192926D01*
X107575304Y-95188886D01*
X107575755Y-95182014D01*
X107593969Y-94904119D01*
X107594239Y-94900000D01*
X107575304Y-94611114D01*
X107546197Y-94464782D01*
X107552525Y-94394068D01*
X107596080Y-94338001D01*
X107663032Y-94314382D01*
X107732126Y-94330709D01*
X107758871Y-94351106D01*
X109341145Y-95933379D01*
X109350247Y-95943522D01*
X109373968Y-95973025D01*
X109378696Y-95976992D01*
X109412421Y-96005291D01*
X109416069Y-96008472D01*
X109417881Y-96010115D01*
X109420075Y-96012309D01*
X109453349Y-96039642D01*
X109454147Y-96040304D01*
X109525474Y-96100154D01*
X109530144Y-96102722D01*
X109534261Y-96106103D01*
X109582028Y-96131715D01*
X109616086Y-96149977D01*
X109617245Y-96150606D01*
X109693381Y-96192462D01*
X109693389Y-96192465D01*
X109698787Y-96195433D01*
X109703869Y-96197045D01*
X109708563Y-96199562D01*
X109714207Y-96201288D01*
X109769342Y-96245872D01*
X109791648Y-96313273D01*
X109785314Y-96357225D01*
X109773509Y-96392814D01*
X109770642Y-96406190D01*
X109761328Y-96497097D01*
X109761071Y-96502126D01*
X109765475Y-96517124D01*
X109766865Y-96518329D01*
X109774548Y-96520000D01*
X111708883Y-96520000D01*
X111735910Y-96512064D01*
X111802381Y-96512064D01*
X111802600Y-96511144D01*
X111806469Y-96512064D01*
X111806906Y-96512064D01*
X111807987Y-96512425D01*
X111810286Y-96512971D01*
X111817684Y-96515745D01*
X111879866Y-96522500D01*
X113976134Y-96522500D01*
X114038316Y-96515745D01*
X114174705Y-96464615D01*
X114291261Y-96377261D01*
X114378615Y-96260705D01*
X114429745Y-96124316D01*
X114436500Y-96062134D01*
X114436500Y-94465866D01*
X114429745Y-94403684D01*
X114378615Y-94267295D01*
X114320358Y-94189563D01*
X114295511Y-94123059D01*
X114310564Y-94053677D01*
X114320354Y-94038442D01*
X114331978Y-94022932D01*
X114388837Y-93980419D01*
X114432802Y-93972500D01*
X117593500Y-93972500D01*
X117661621Y-93992502D01*
X117708114Y-94046158D01*
X117719500Y-94098500D01*
X117719500Y-94912134D01*
X117726255Y-94974316D01*
X117777385Y-95110705D01*
X117864739Y-95227261D01*
X117981295Y-95314615D01*
X118117684Y-95365745D01*
X118179866Y-95372500D01*
X120276134Y-95372500D01*
X120338316Y-95365745D01*
X120474705Y-95314615D01*
X120591261Y-95227261D01*
X120592119Y-95228406D01*
X120646055Y-95198954D01*
X120695796Y-95198184D01*
X120707186Y-95200295D01*
X120714766Y-95199858D01*
X120714767Y-95199858D01*
X120769380Y-95196709D01*
X120776633Y-95196500D01*
X123669088Y-95196500D01*
X123677658Y-95196792D01*
X123727775Y-95200209D01*
X123727779Y-95200209D01*
X123735352Y-95200725D01*
X123742829Y-95199420D01*
X123742832Y-95199420D01*
X123748812Y-95198376D01*
X123770474Y-95196500D01*
X133073291Y-95196500D01*
X133081861Y-95196792D01*
X133131979Y-95200209D01*
X133131983Y-95200209D01*
X133139555Y-95200725D01*
X133147032Y-95199420D01*
X133147033Y-95199420D01*
X133173511Y-95194799D01*
X133202506Y-95189738D01*
X133209024Y-95188777D01*
X133272445Y-95181102D01*
X133279546Y-95178419D01*
X133282155Y-95177778D01*
X133298465Y-95173315D01*
X133301001Y-95172550D01*
X133308487Y-95171243D01*
X133367003Y-95145556D01*
X133373107Y-95143065D01*
X133425751Y-95123173D01*
X133425752Y-95123172D01*
X133432859Y-95120487D01*
X133439122Y-95116183D01*
X133441488Y-95114946D01*
X133456300Y-95106701D01*
X133458554Y-95105368D01*
X133465508Y-95102315D01*
X133516205Y-95063413D01*
X133521535Y-95059541D01*
X133567923Y-95027661D01*
X133567928Y-95027656D01*
X133574184Y-95023357D01*
X133615639Y-94976829D01*
X133620619Y-94971554D01*
X136642339Y-91949835D01*
X136704651Y-91915809D01*
X136775467Y-91920874D01*
X136834647Y-91966660D01*
X136943398Y-92121974D01*
X136943402Y-92121979D01*
X136946561Y-92126490D01*
X137103510Y-92283439D01*
X137108018Y-92286596D01*
X137108021Y-92286598D01*
X137148101Y-92314662D01*
X137285327Y-92410749D01*
X137290309Y-92413072D01*
X137290314Y-92413075D01*
X137481508Y-92502230D01*
X137486490Y-92504553D01*
X137491798Y-92505975D01*
X137491800Y-92505976D01*
X137695571Y-92560576D01*
X137695573Y-92560576D01*
X137700886Y-92562000D01*
X137922000Y-92581345D01*
X138143114Y-92562000D01*
X138148427Y-92560576D01*
X138148429Y-92560576D01*
X138352200Y-92505976D01*
X138352202Y-92505975D01*
X138357510Y-92504553D01*
X138362492Y-92502230D01*
X138553686Y-92413075D01*
X138553691Y-92413072D01*
X138558673Y-92410749D01*
X138695899Y-92314662D01*
X138735979Y-92286598D01*
X138735982Y-92286596D01*
X138740490Y-92283439D01*
X138897439Y-92126490D01*
X138900602Y-92121974D01*
X139021592Y-91949181D01*
X139021593Y-91949179D01*
X139024749Y-91944672D01*
X139027072Y-91939690D01*
X139027075Y-91939685D01*
X139116230Y-91748492D01*
X139116231Y-91748490D01*
X139118553Y-91743510D01*
X139121063Y-91734145D01*
X139174576Y-91534429D01*
X139174576Y-91534427D01*
X139176000Y-91529114D01*
X139195345Y-91308000D01*
X139176000Y-91086886D01*
X139172041Y-91072110D01*
X139127294Y-90905111D01*
X139128984Y-90834134D01*
X139168778Y-90775339D01*
X139234043Y-90747391D01*
X139249001Y-90746500D01*
X139343954Y-90746500D01*
X139412075Y-90766502D01*
X139447167Y-90800230D01*
X139483398Y-90851974D01*
X139483402Y-90851979D01*
X139486561Y-90856490D01*
X139643510Y-91013439D01*
X139648018Y-91016596D01*
X139648021Y-91016598D01*
X139723687Y-91069580D01*
X139825327Y-91140749D01*
X139830309Y-91143072D01*
X139830314Y-91143075D01*
X139939106Y-91193805D01*
X139992391Y-91240722D01*
X140011852Y-91309000D01*
X139991310Y-91376959D01*
X139939106Y-91422195D01*
X139830315Y-91472925D01*
X139830310Y-91472928D01*
X139825328Y-91475251D01*
X139820821Y-91478407D01*
X139820819Y-91478408D01*
X139648021Y-91599402D01*
X139648018Y-91599404D01*
X139643510Y-91602561D01*
X139486561Y-91759510D01*
X139483404Y-91764018D01*
X139483402Y-91764021D01*
X139363333Y-91935498D01*
X139359251Y-91941328D01*
X139356928Y-91946310D01*
X139356925Y-91946315D01*
X139271687Y-92129108D01*
X139265447Y-92142490D01*
X139264025Y-92147798D01*
X139264024Y-92147800D01*
X139226720Y-92287022D01*
X139208000Y-92356886D01*
X139188655Y-92578000D01*
X139208000Y-92799114D01*
X139209424Y-92804427D01*
X139209424Y-92804429D01*
X139257347Y-92983279D01*
X139265447Y-93013510D01*
X139267769Y-93018490D01*
X139267770Y-93018492D01*
X139356925Y-93209685D01*
X139356928Y-93209690D01*
X139359251Y-93214672D01*
X139362407Y-93219179D01*
X139362408Y-93219181D01*
X139481527Y-93389300D01*
X139486561Y-93396490D01*
X139643510Y-93553439D01*
X139648018Y-93556596D01*
X139648021Y-93556598D01*
X139704500Y-93596145D01*
X139825327Y-93680749D01*
X139830309Y-93683072D01*
X139830314Y-93683075D01*
X139999857Y-93762134D01*
X140026490Y-93774553D01*
X140031798Y-93775975D01*
X140031800Y-93775976D01*
X140235571Y-93830576D01*
X140235573Y-93830576D01*
X140240886Y-93832000D01*
X140462000Y-93851345D01*
X140638891Y-93835869D01*
X144698689Y-93835869D01*
X144715238Y-94122883D01*
X144716063Y-94127088D01*
X144716064Y-94127096D01*
X144731362Y-94205067D01*
X144770586Y-94404995D01*
X144771973Y-94409045D01*
X144771974Y-94409050D01*
X144862321Y-94672930D01*
X144863710Y-94676986D01*
X144865637Y-94680817D01*
X144983686Y-94915531D01*
X144992885Y-94933822D01*
X145155721Y-95170750D01*
X145158608Y-95173923D01*
X145158609Y-95173924D01*
X145202471Y-95222128D01*
X145349206Y-95383388D01*
X145352501Y-95386143D01*
X145352502Y-95386144D01*
X145456176Y-95472828D01*
X145569759Y-95567798D01*
X145813298Y-95720571D01*
X146075318Y-95838877D01*
X146079437Y-95840097D01*
X146346857Y-95919311D01*
X146346862Y-95919312D01*
X146350970Y-95920529D01*
X146355204Y-95921177D01*
X146355209Y-95921178D01*
X146603811Y-95959219D01*
X146635153Y-95964015D01*
X146781485Y-95966314D01*
X146918317Y-95968464D01*
X146918323Y-95968464D01*
X146922608Y-95968531D01*
X146926860Y-95968016D01*
X146926868Y-95968016D01*
X147203756Y-95934508D01*
X147203761Y-95934507D01*
X147208017Y-95933992D01*
X147486097Y-95861039D01*
X147751704Y-95751021D01*
X147999922Y-95605974D01*
X148226159Y-95428582D01*
X148267285Y-95386144D01*
X148423244Y-95225206D01*
X148426227Y-95222128D01*
X148428760Y-95218680D01*
X148428764Y-95218675D01*
X148593887Y-94993886D01*
X148596425Y-94990431D01*
X148598471Y-94986663D01*
X148731554Y-94741555D01*
X148731555Y-94741553D01*
X148733604Y-94737779D01*
X148835225Y-94468848D01*
X148881387Y-94267295D01*
X148898449Y-94192797D01*
X148898450Y-94192793D01*
X148899407Y-94188613D01*
X148900683Y-94174323D01*
X148924743Y-93904726D01*
X148924743Y-93904724D01*
X148924963Y-93902260D01*
X148925427Y-93858000D01*
X148923687Y-93832479D01*
X148906165Y-93575452D01*
X148906164Y-93575446D01*
X148905873Y-93571175D01*
X148901336Y-93549264D01*
X148869123Y-93393713D01*
X148847574Y-93289658D01*
X148751607Y-93018657D01*
X148619750Y-92763188D01*
X148606488Y-92744317D01*
X148517740Y-92618042D01*
X148454441Y-92527977D01*
X148258740Y-92317378D01*
X148036268Y-92135287D01*
X147791142Y-91985073D01*
X147784452Y-91982136D01*
X147531830Y-91871243D01*
X147527898Y-91869517D01*
X147501963Y-91862129D01*
X147255534Y-91791932D01*
X147255535Y-91791932D01*
X147251406Y-91790756D01*
X147031856Y-91759510D01*
X146971036Y-91750854D01*
X146971034Y-91750854D01*
X146966784Y-91750249D01*
X146962495Y-91750227D01*
X146962488Y-91750226D01*
X146683583Y-91748765D01*
X146683576Y-91748765D01*
X146679297Y-91748743D01*
X146675053Y-91749302D01*
X146675049Y-91749302D01*
X146568080Y-91763385D01*
X146394266Y-91786268D01*
X146390126Y-91787401D01*
X146390124Y-91787401D01*
X146313311Y-91808415D01*
X146116964Y-91862129D01*
X146113016Y-91863813D01*
X145856476Y-91973237D01*
X145856472Y-91973239D01*
X145852524Y-91974923D01*
X145791736Y-92011304D01*
X145609521Y-92120357D01*
X145609517Y-92120360D01*
X145605839Y-92122561D01*
X145381472Y-92302313D01*
X145334728Y-92351571D01*
X145189554Y-92504553D01*
X145183577Y-92510851D01*
X145099334Y-92628087D01*
X145042317Y-92707435D01*
X145015814Y-92744317D01*
X144881288Y-92998392D01*
X144873872Y-93018657D01*
X144791779Y-93242988D01*
X144782489Y-93268373D01*
X144721245Y-93549264D01*
X144720909Y-93553534D01*
X144699106Y-93830576D01*
X144698689Y-93835869D01*
X140638891Y-93835869D01*
X140683114Y-93832000D01*
X140688427Y-93830576D01*
X140688429Y-93830576D01*
X140892200Y-93775976D01*
X140892202Y-93775975D01*
X140897510Y-93774553D01*
X140924143Y-93762134D01*
X141093686Y-93683075D01*
X141093691Y-93683072D01*
X141098673Y-93680749D01*
X141219500Y-93596145D01*
X141275979Y-93556598D01*
X141275982Y-93556596D01*
X141280490Y-93553439D01*
X141437439Y-93396490D01*
X141442474Y-93389300D01*
X141561592Y-93219181D01*
X141561593Y-93219179D01*
X141564749Y-93214672D01*
X141567072Y-93209690D01*
X141567075Y-93209685D01*
X141656230Y-93018492D01*
X141656231Y-93018490D01*
X141658553Y-93013510D01*
X141666654Y-92983279D01*
X141714576Y-92804429D01*
X141714576Y-92804427D01*
X141716000Y-92799114D01*
X141735345Y-92578000D01*
X141716000Y-92356886D01*
X141697280Y-92287022D01*
X141659976Y-92147800D01*
X141659975Y-92147798D01*
X141658553Y-92142490D01*
X141652313Y-92129108D01*
X141567075Y-91946315D01*
X141567072Y-91946310D01*
X141564749Y-91941328D01*
X141560667Y-91935498D01*
X141440598Y-91764021D01*
X141440596Y-91764018D01*
X141437439Y-91759510D01*
X141280490Y-91602561D01*
X141275982Y-91599404D01*
X141275979Y-91599402D01*
X141158472Y-91517123D01*
X141098673Y-91475251D01*
X141093691Y-91472928D01*
X141093686Y-91472925D01*
X140984894Y-91422195D01*
X140931609Y-91375278D01*
X140912148Y-91307000D01*
X140932690Y-91239041D01*
X140984894Y-91193805D01*
X141093686Y-91143075D01*
X141093691Y-91143072D01*
X141098673Y-91140749D01*
X141200313Y-91069580D01*
X141275979Y-91016598D01*
X141275982Y-91016596D01*
X141280490Y-91013439D01*
X141437439Y-90856490D01*
X141440602Y-90851974D01*
X141561592Y-90679181D01*
X141561593Y-90679179D01*
X141564749Y-90674672D01*
X141567072Y-90669690D01*
X141567075Y-90669685D01*
X141656230Y-90478492D01*
X141656231Y-90478490D01*
X141658553Y-90473510D01*
X141664426Y-90451594D01*
X141714576Y-90264429D01*
X141714576Y-90264427D01*
X141716000Y-90259114D01*
X141735345Y-90038000D01*
X141716000Y-89816886D01*
X141690169Y-89720484D01*
X141659976Y-89607800D01*
X141659975Y-89607798D01*
X141658553Y-89602490D01*
X141651880Y-89588179D01*
X141567075Y-89406315D01*
X141567072Y-89406310D01*
X141564749Y-89401328D01*
X141512411Y-89326581D01*
X141440598Y-89224021D01*
X141440596Y-89224018D01*
X141437439Y-89219510D01*
X141280490Y-89062561D01*
X141275982Y-89059404D01*
X141275979Y-89059402D01*
X141167771Y-88983634D01*
X141098673Y-88935251D01*
X141059948Y-88917193D01*
X140995026Y-88886919D01*
X140941741Y-88840001D01*
X140922280Y-88771724D01*
X140942822Y-88703764D01*
X140995026Y-88658529D01*
X141093435Y-88612641D01*
X141102931Y-88607158D01*
X141146329Y-88576770D01*
X141154704Y-88566293D01*
X141147635Y-88552845D01*
X140474812Y-87880022D01*
X140460868Y-87872408D01*
X140459035Y-87872539D01*
X140452420Y-87876790D01*
X139775643Y-88553567D01*
X139769213Y-88565342D01*
X139778509Y-88577357D01*
X139821069Y-88607158D01*
X139830566Y-88612641D01*
X139928974Y-88658530D01*
X139982259Y-88705448D01*
X140001720Y-88773725D01*
X139981178Y-88841685D01*
X139928975Y-88886919D01*
X139900924Y-88900000D01*
X139830315Y-88932925D01*
X139830310Y-88932928D01*
X139825328Y-88935251D01*
X139820821Y-88938407D01*
X139820819Y-88938408D01*
X139648021Y-89059402D01*
X139648018Y-89059404D01*
X139643510Y-89062561D01*
X139486561Y-89219510D01*
X139483403Y-89224020D01*
X139483398Y-89224026D01*
X139447167Y-89275770D01*
X139391711Y-89320099D01*
X139343954Y-89329500D01*
X139249001Y-89329500D01*
X139180880Y-89309498D01*
X139134387Y-89255842D01*
X139124283Y-89185568D01*
X139127294Y-89170889D01*
X139174576Y-88994429D01*
X139174576Y-88994427D01*
X139176000Y-88989114D01*
X139195345Y-88768000D01*
X139176000Y-88546886D01*
X139167531Y-88515279D01*
X139119976Y-88337800D01*
X139119975Y-88337798D01*
X139118553Y-88332490D01*
X139116230Y-88327508D01*
X139027075Y-88136315D01*
X139027072Y-88136310D01*
X139024749Y-88131328D01*
X138939472Y-88009540D01*
X138916785Y-87942268D01*
X138934070Y-87873408D01*
X138953591Y-87848176D01*
X139025487Y-87776280D01*
X139087799Y-87742254D01*
X139158614Y-87747319D01*
X139215450Y-87789866D01*
X139236288Y-87832763D01*
X139264492Y-87938020D01*
X139268241Y-87948320D01*
X139357359Y-88139435D01*
X139362842Y-88148931D01*
X139393230Y-88192329D01*
X139403707Y-88200704D01*
X139417155Y-88193635D01*
X140101658Y-87509132D01*
X140826408Y-87509132D01*
X140826539Y-87510965D01*
X140830790Y-87517580D01*
X141507567Y-88194357D01*
X141519342Y-88200787D01*
X141531357Y-88191491D01*
X141561158Y-88148931D01*
X141566641Y-88139435D01*
X141655759Y-87948320D01*
X141659505Y-87938028D01*
X141714083Y-87734340D01*
X141715986Y-87723547D01*
X141734365Y-87513475D01*
X141734365Y-87502525D01*
X141715986Y-87292453D01*
X141714083Y-87281660D01*
X141659505Y-87077972D01*
X141655759Y-87067680D01*
X141566641Y-86876565D01*
X141561158Y-86867069D01*
X141530770Y-86823671D01*
X141520293Y-86815296D01*
X141506845Y-86822365D01*
X140834022Y-87495188D01*
X140826408Y-87509132D01*
X140101658Y-87509132D01*
X141148357Y-86462433D01*
X141154787Y-86450658D01*
X141145491Y-86438643D01*
X141102931Y-86408842D01*
X141093435Y-86403359D01*
X140973581Y-86347471D01*
X140920296Y-86300554D01*
X140900835Y-86232277D01*
X140921377Y-86164317D01*
X140973581Y-86119081D01*
X141093686Y-86063075D01*
X141093691Y-86063072D01*
X141098673Y-86060749D01*
X141242320Y-85960166D01*
X141275979Y-85936598D01*
X141275982Y-85936596D01*
X141280490Y-85933439D01*
X141437439Y-85776490D01*
X141441286Y-85770997D01*
X141561592Y-85599181D01*
X141561593Y-85599179D01*
X141564749Y-85594672D01*
X141567072Y-85589690D01*
X141567075Y-85589685D01*
X141656230Y-85398492D01*
X141656231Y-85398490D01*
X141658553Y-85393510D01*
X141675365Y-85330769D01*
X141714576Y-85184429D01*
X141714576Y-85184427D01*
X141716000Y-85179114D01*
X141735345Y-84958000D01*
X141716000Y-84736886D01*
X141699846Y-84676598D01*
X141659976Y-84527800D01*
X141659975Y-84527798D01*
X141658553Y-84522490D01*
X141649420Y-84502904D01*
X141567075Y-84326315D01*
X141567072Y-84326310D01*
X141564749Y-84321328D01*
X141559944Y-84314466D01*
X141440598Y-84144021D01*
X141440596Y-84144018D01*
X141437439Y-84139510D01*
X141280490Y-83982561D01*
X141275982Y-83979404D01*
X141275979Y-83979402D01*
X141197469Y-83924429D01*
X141098673Y-83855251D01*
X141093691Y-83852928D01*
X141093686Y-83852925D01*
X140902492Y-83763770D01*
X140902491Y-83763769D01*
X140897510Y-83761447D01*
X140892202Y-83760025D01*
X140892200Y-83760024D01*
X140688429Y-83705424D01*
X140688427Y-83705424D01*
X140683114Y-83704000D01*
X140462000Y-83684655D01*
X140240886Y-83704000D01*
X140235573Y-83705424D01*
X140235571Y-83705424D01*
X140031800Y-83760024D01*
X140031798Y-83760025D01*
X140026490Y-83761447D01*
X140021510Y-83763769D01*
X140021508Y-83763770D01*
X139830315Y-83852925D01*
X139830310Y-83852928D01*
X139825328Y-83855251D01*
X139820821Y-83858407D01*
X139820819Y-83858408D01*
X139648021Y-83979402D01*
X139648018Y-83979404D01*
X139643510Y-83982561D01*
X139486561Y-84139510D01*
X139483404Y-84144018D01*
X139483402Y-84144021D01*
X139364056Y-84314466D01*
X139359251Y-84321328D01*
X139356928Y-84326310D01*
X139356925Y-84326315D01*
X139274580Y-84502904D01*
X139265447Y-84522490D01*
X139264025Y-84527798D01*
X139264024Y-84527800D01*
X139224154Y-84676598D01*
X139208000Y-84736886D01*
X139188655Y-84958000D01*
X139208000Y-85179114D01*
X139209424Y-85184427D01*
X139209424Y-85184429D01*
X139248636Y-85330769D01*
X139265447Y-85393510D01*
X139267770Y-85398492D01*
X139267772Y-85398497D01*
X139272324Y-85408259D01*
X139282985Y-85478450D01*
X139254005Y-85543263D01*
X139247224Y-85550603D01*
X139201662Y-85596165D01*
X139139350Y-85630191D01*
X139068535Y-85625126D01*
X139009354Y-85579341D01*
X138900598Y-85424021D01*
X138900596Y-85424018D01*
X138897439Y-85419510D01*
X138740490Y-85262561D01*
X138735982Y-85259404D01*
X138735979Y-85259402D01*
X138628863Y-85184399D01*
X138558673Y-85135251D01*
X138553691Y-85132928D01*
X138553686Y-85132925D01*
X138444894Y-85082195D01*
X138391609Y-85035278D01*
X138372148Y-84967000D01*
X138392690Y-84899041D01*
X138444894Y-84853805D01*
X138445255Y-84853637D01*
X138481698Y-84836643D01*
X138553686Y-84803075D01*
X138553691Y-84803072D01*
X138558673Y-84800749D01*
X138666131Y-84725506D01*
X138735979Y-84676598D01*
X138735982Y-84676596D01*
X138740490Y-84673439D01*
X138897439Y-84516490D01*
X138906191Y-84503992D01*
X139021592Y-84339181D01*
X139021593Y-84339179D01*
X139024749Y-84334672D01*
X139027072Y-84329690D01*
X139027075Y-84329685D01*
X139116230Y-84138492D01*
X139116231Y-84138490D01*
X139118553Y-84133510D01*
X139128063Y-84098020D01*
X139174576Y-83924429D01*
X139174576Y-83924427D01*
X139176000Y-83919114D01*
X139195345Y-83698000D01*
X139176000Y-83476886D01*
X139174576Y-83471571D01*
X139119976Y-83267800D01*
X139119975Y-83267798D01*
X139118553Y-83262490D01*
X139085847Y-83192352D01*
X139027075Y-83066315D01*
X139027072Y-83066310D01*
X139024749Y-83061328D01*
X139011822Y-83042866D01*
X138900598Y-82884021D01*
X138900596Y-82884018D01*
X138897439Y-82879510D01*
X138740490Y-82722561D01*
X138735982Y-82719404D01*
X138735979Y-82719402D01*
X138587204Y-82615229D01*
X138558673Y-82595251D01*
X138553691Y-82592928D01*
X138553686Y-82592925D01*
X138362492Y-82503770D01*
X138362491Y-82503769D01*
X138357510Y-82501447D01*
X138352202Y-82500025D01*
X138352200Y-82500024D01*
X138148429Y-82445424D01*
X138148427Y-82445424D01*
X138143114Y-82444000D01*
X137922000Y-82424655D01*
X137700886Y-82444000D01*
X137695573Y-82445424D01*
X137695571Y-82445424D01*
X137491800Y-82500024D01*
X137491798Y-82500025D01*
X137486490Y-82501447D01*
X137481510Y-82503769D01*
X137481508Y-82503770D01*
X137290315Y-82592925D01*
X137290310Y-82592928D01*
X137285328Y-82595251D01*
X137280821Y-82598407D01*
X137280819Y-82598408D01*
X137108021Y-82719402D01*
X137108018Y-82719404D01*
X137103510Y-82722561D01*
X136946561Y-82879510D01*
X136943404Y-82884018D01*
X136943402Y-82884021D01*
X136832178Y-83042866D01*
X136819251Y-83061328D01*
X136816928Y-83066310D01*
X136816925Y-83066315D01*
X136758153Y-83192352D01*
X136725447Y-83262490D01*
X136724025Y-83267798D01*
X136724024Y-83267800D01*
X136669424Y-83471571D01*
X136668000Y-83476886D01*
X136648655Y-83698000D01*
X136668000Y-83919114D01*
X136669424Y-83924427D01*
X136669424Y-83924429D01*
X136715938Y-84098020D01*
X136725447Y-84133510D01*
X136727769Y-84138490D01*
X136727770Y-84138492D01*
X136816925Y-84329685D01*
X136816928Y-84329690D01*
X136819251Y-84334672D01*
X136822407Y-84339179D01*
X136822408Y-84339181D01*
X136937810Y-84503992D01*
X136946561Y-84516490D01*
X137103510Y-84673439D01*
X137108018Y-84676596D01*
X137108021Y-84676598D01*
X137177869Y-84725506D01*
X137285327Y-84800749D01*
X137290309Y-84803072D01*
X137290314Y-84803075D01*
X137362302Y-84836643D01*
X137398746Y-84853637D01*
X137399106Y-84853805D01*
X137452391Y-84900722D01*
X137471852Y-84969000D01*
X137451310Y-85036959D01*
X137399106Y-85082195D01*
X137290315Y-85132925D01*
X137290310Y-85132928D01*
X137285328Y-85135251D01*
X137280821Y-85138407D01*
X137280819Y-85138408D01*
X137108021Y-85259402D01*
X137108018Y-85259404D01*
X137103510Y-85262561D01*
X136946561Y-85419510D01*
X136943404Y-85424018D01*
X136943402Y-85424021D01*
X136822866Y-85596165D01*
X136819251Y-85601328D01*
X136816928Y-85606310D01*
X136816925Y-85606315D01*
X136729876Y-85792991D01*
X136725447Y-85802490D01*
X136724025Y-85807798D01*
X136724024Y-85807800D01*
X136683198Y-85960166D01*
X136668000Y-86016886D01*
X136648655Y-86238000D01*
X136668000Y-86459114D01*
X136669424Y-86464427D01*
X136669424Y-86464429D01*
X136723359Y-86665716D01*
X136725447Y-86673510D01*
X136727769Y-86678490D01*
X136727770Y-86678492D01*
X136816925Y-86869685D01*
X136816928Y-86869690D01*
X136819251Y-86874672D01*
X136904528Y-86996460D01*
X136927215Y-87063732D01*
X136909930Y-87132592D01*
X136890409Y-87157824D01*
X136503105Y-87545128D01*
X136440793Y-87579154D01*
X136369978Y-87574089D01*
X136320376Y-87540345D01*
X136247253Y-87459134D01*
X136110269Y-87359609D01*
X136098094Y-87350763D01*
X136098093Y-87350762D01*
X136092752Y-87346882D01*
X136086724Y-87344198D01*
X136086722Y-87344197D01*
X135924319Y-87271891D01*
X135924318Y-87271891D01*
X135918288Y-87269206D01*
X135911833Y-87267834D01*
X135911830Y-87267833D01*
X135876577Y-87260340D01*
X135857803Y-87256350D01*
X135795330Y-87222622D01*
X135761009Y-87160473D01*
X135758000Y-87133103D01*
X135758000Y-86493178D01*
X135778002Y-86425057D01*
X135831658Y-86378564D01*
X135848847Y-86372181D01*
X135892988Y-86359357D01*
X135892990Y-86359356D01*
X135900601Y-86357145D01*
X135996291Y-86300554D01*
X136036980Y-86276491D01*
X136036983Y-86276489D01*
X136043807Y-86272453D01*
X136161453Y-86154807D01*
X136165489Y-86147983D01*
X136165491Y-86147980D01*
X136237962Y-86025437D01*
X136246145Y-86011601D01*
X136292562Y-85851831D01*
X136293198Y-85843761D01*
X136295307Y-85816958D01*
X136295307Y-85816950D01*
X136295500Y-85814502D01*
X136295500Y-85381498D01*
X136292562Y-85344169D01*
X136246145Y-85184399D01*
X136204061Y-85113239D01*
X136165491Y-85048020D01*
X136165489Y-85048017D01*
X136161453Y-85041193D01*
X136043807Y-84923547D01*
X136036983Y-84919511D01*
X136036980Y-84919509D01*
X135922547Y-84851834D01*
X135900601Y-84838855D01*
X135892990Y-84836644D01*
X135892988Y-84836643D01*
X135816518Y-84814427D01*
X135740831Y-84792438D01*
X135734426Y-84791934D01*
X135734421Y-84791933D01*
X135705958Y-84789693D01*
X135705950Y-84789693D01*
X135703502Y-84789500D01*
X134546500Y-84789500D01*
X134478379Y-84769498D01*
X134431886Y-84715842D01*
X134420500Y-84663500D01*
X134420500Y-84431498D01*
X134419284Y-84416045D01*
X134418067Y-84400579D01*
X134418066Y-84400574D01*
X134417562Y-84394169D01*
X134383809Y-84277988D01*
X134373357Y-84242012D01*
X134373356Y-84242010D01*
X134371145Y-84234399D01*
X134337872Y-84178138D01*
X134290491Y-84098020D01*
X134290489Y-84098017D01*
X134286453Y-84091193D01*
X134168807Y-83973547D01*
X134161983Y-83969511D01*
X134161980Y-83969509D01*
X134032427Y-83892892D01*
X134032428Y-83892892D01*
X134025601Y-83888855D01*
X134017990Y-83886644D01*
X134017988Y-83886643D01*
X133964704Y-83871163D01*
X133865831Y-83842438D01*
X133859426Y-83841934D01*
X133859421Y-83841933D01*
X133830958Y-83839693D01*
X133830950Y-83839693D01*
X133828502Y-83839500D01*
X132520498Y-83839500D01*
X132518050Y-83839693D01*
X132518042Y-83839693D01*
X132489579Y-83841933D01*
X132489574Y-83841934D01*
X132483169Y-83842438D01*
X132384296Y-83871163D01*
X132331012Y-83886643D01*
X132331010Y-83886644D01*
X132323399Y-83888855D01*
X132316573Y-83892892D01*
X132316571Y-83892893D01*
X132273995Y-83918072D01*
X132205179Y-83935532D01*
X132137848Y-83913015D01*
X132120761Y-83898714D01*
X132106541Y-83884494D01*
X132091428Y-83875556D01*
X131973419Y-83805766D01*
X131973418Y-83805766D01*
X131966596Y-83801731D01*
X131958985Y-83799520D01*
X131958983Y-83799519D01*
X131868250Y-83773159D01*
X131810466Y-83756371D01*
X131804059Y-83755867D01*
X131804055Y-83755866D01*
X131776444Y-83753693D01*
X131776438Y-83753693D01*
X131773989Y-83753500D01*
X131574122Y-83753500D01*
X131374012Y-83753501D01*
X131337534Y-83756371D01*
X131240730Y-83784495D01*
X131189017Y-83799519D01*
X131189015Y-83799520D01*
X131181404Y-83801731D01*
X131174579Y-83805767D01*
X131174575Y-83805769D01*
X131128139Y-83833231D01*
X131059323Y-83850691D01*
X130999861Y-83833231D01*
X130953425Y-83805769D01*
X130953421Y-83805767D01*
X130946596Y-83801731D01*
X130938985Y-83799520D01*
X130938983Y-83799519D01*
X130848250Y-83773159D01*
X130790466Y-83756371D01*
X130784059Y-83755867D01*
X130784055Y-83755866D01*
X130756444Y-83753693D01*
X130756438Y-83753693D01*
X130753989Y-83753500D01*
X130554122Y-83753500D01*
X130354012Y-83753501D01*
X130317534Y-83756371D01*
X130220730Y-83784495D01*
X130169017Y-83799519D01*
X130169015Y-83799520D01*
X130161404Y-83801731D01*
X130154582Y-83805766D01*
X130154581Y-83805766D01*
X130036572Y-83875556D01*
X130021459Y-83884494D01*
X129906494Y-83999459D01*
X129902460Y-84006280D01*
X129850090Y-84094834D01*
X129823731Y-84139404D01*
X129821520Y-84147015D01*
X129821519Y-84147017D01*
X129796132Y-84234399D01*
X129778371Y-84295534D01*
X129777867Y-84301941D01*
X129777866Y-84301945D01*
X129775948Y-84326315D01*
X129775500Y-84332011D01*
X129775500Y-84379050D01*
X129755498Y-84447171D01*
X129738595Y-84468145D01*
X129554145Y-84652595D01*
X129491833Y-84686621D01*
X129465050Y-84689500D01*
X129444513Y-84689500D01*
X129438061Y-84690872D01*
X129438056Y-84690872D01*
X129351112Y-84709353D01*
X129257712Y-84729206D01*
X129251683Y-84731891D01*
X129251681Y-84731891D01*
X129225349Y-84743615D01*
X129154982Y-84753049D01*
X129090685Y-84722943D01*
X129065647Y-84692648D01*
X129050488Y-84667016D01*
X129046453Y-84660193D01*
X129043774Y-84657514D01*
X129018499Y-84593143D01*
X129032398Y-84523520D01*
X129042572Y-84507688D01*
X129046453Y-84503807D01*
X129131145Y-84360601D01*
X129133415Y-84352790D01*
X129148528Y-84300769D01*
X129177562Y-84200831D01*
X129179519Y-84175974D01*
X129180307Y-84165958D01*
X129180307Y-84165950D01*
X129180500Y-84163502D01*
X129180500Y-83730498D01*
X129178527Y-83705424D01*
X129178067Y-83699579D01*
X129178066Y-83699574D01*
X129177562Y-83693169D01*
X129142556Y-83572677D01*
X129133357Y-83541012D01*
X129133356Y-83541010D01*
X129131145Y-83533399D01*
X129082635Y-83451373D01*
X129050491Y-83397020D01*
X129050489Y-83397017D01*
X129046453Y-83390193D01*
X128928807Y-83272547D01*
X128921983Y-83268511D01*
X128921980Y-83268509D01*
X128814411Y-83204893D01*
X128785601Y-83187855D01*
X128777990Y-83185644D01*
X128777988Y-83185643D01*
X128725769Y-83170472D01*
X128625831Y-83141438D01*
X128619426Y-83140934D01*
X128619421Y-83140933D01*
X128590958Y-83138693D01*
X128590950Y-83138693D01*
X128588502Y-83138500D01*
X127942662Y-83138500D01*
X127874541Y-83118498D01*
X127853567Y-83101596D01*
X126979405Y-82227435D01*
X126945380Y-82165122D01*
X126942500Y-82138339D01*
X126942500Y-81997268D01*
X126931887Y-81894981D01*
X126918755Y-81855620D01*
X126880073Y-81739676D01*
X126880072Y-81739674D01*
X126877756Y-81732732D01*
X126787752Y-81587287D01*
X126666702Y-81466448D01*
X126658442Y-81461356D01*
X126527329Y-81380537D01*
X126521101Y-81376698D01*
X126521415Y-81376189D01*
X126471969Y-81332652D01*
X126452508Y-81264375D01*
X126462867Y-81215335D01*
X126465861Y-81208416D01*
X126469894Y-81201597D01*
X126485804Y-81146836D01*
X126504966Y-81080877D01*
X126515606Y-81044254D01*
X126516654Y-81030948D01*
X126518307Y-81009940D01*
X126518307Y-81009932D01*
X126518500Y-81007484D01*
X126518500Y-80536516D01*
X126518307Y-80534060D01*
X126516111Y-80506156D01*
X126516110Y-80506151D01*
X126515606Y-80499746D01*
X126513813Y-80493574D01*
X126513812Y-80493569D01*
X126494080Y-80425653D01*
X126494283Y-80354657D01*
X126532837Y-80295040D01*
X126597502Y-80265732D01*
X126615077Y-80264500D01*
X145893411Y-80264500D01*
X145961532Y-80284502D01*
G37*
%TD.AperFunction*%
%TA.AperFunction,Conductor*%
G36*
X117831462Y-90135503D02*
G01*
X117852436Y-90152406D01*
X118084476Y-90384446D01*
X118118502Y-90446758D01*
X118113437Y-90517573D01*
X118070890Y-90574409D01*
X118039611Y-90591523D01*
X117993151Y-90608940D01*
X117981295Y-90613385D01*
X117864739Y-90700739D01*
X117777385Y-90817295D01*
X117726255Y-90953684D01*
X117719500Y-91015866D01*
X117719500Y-91829500D01*
X117699498Y-91897621D01*
X117645842Y-91944114D01*
X117593500Y-91955500D01*
X114432802Y-91955500D01*
X114364681Y-91935498D01*
X114331979Y-91905068D01*
X114320045Y-91889145D01*
X114295199Y-91822641D01*
X114310252Y-91753259D01*
X114320047Y-91738018D01*
X114372786Y-91667648D01*
X114381324Y-91652054D01*
X114426478Y-91531606D01*
X114430105Y-91516351D01*
X114435631Y-91465486D01*
X114436000Y-91458672D01*
X114436000Y-90936115D01*
X114431525Y-90920876D01*
X114430135Y-90919671D01*
X114422452Y-90918000D01*
X112800000Y-90918000D01*
X112731879Y-90897998D01*
X112685386Y-90844342D01*
X112674000Y-90792000D01*
X112674000Y-90536000D01*
X112694002Y-90467879D01*
X112747658Y-90421386D01*
X112800000Y-90410000D01*
X114417884Y-90410000D01*
X114433123Y-90405525D01*
X114434328Y-90404135D01*
X114435999Y-90396452D01*
X114435999Y-90241501D01*
X114456001Y-90173380D01*
X114509657Y-90126887D01*
X114561999Y-90115501D01*
X117763341Y-90115501D01*
X117831462Y-90135503D01*
G37*
%TD.AperFunction*%
%TA.AperFunction,Conductor*%
G36*
X110050340Y-90135503D02*
G01*
X110096833Y-90189159D01*
X110106937Y-90259433D01*
X110077443Y-90324013D01*
X110048522Y-90348645D01*
X110041827Y-90352788D01*
X110030426Y-90361824D01*
X109920014Y-90472429D01*
X109911002Y-90483840D01*
X109825154Y-90623112D01*
X109823215Y-90621917D01*
X109783593Y-90666915D01*
X109742222Y-90683688D01*
X109730969Y-90686052D01*
X109728000Y-90697513D01*
X109728000Y-90887885D01*
X109732475Y-90903124D01*
X109733865Y-90904329D01*
X109741548Y-90906000D01*
X110872000Y-90906000D01*
X110940121Y-90926002D01*
X110986614Y-90979658D01*
X110998000Y-91032000D01*
X110998000Y-91288000D01*
X110977998Y-91356121D01*
X110924342Y-91402614D01*
X110872000Y-91414000D01*
X109746115Y-91414000D01*
X109730876Y-91418475D01*
X109729671Y-91419865D01*
X109728000Y-91427548D01*
X109728000Y-91513500D01*
X109707998Y-91581621D01*
X109654342Y-91628114D01*
X109602000Y-91639500D01*
X109346000Y-91639500D01*
X109277879Y-91619498D01*
X109231386Y-91565842D01*
X109220000Y-91513500D01*
X109220000Y-90699576D01*
X109215656Y-90684781D01*
X109205225Y-90682937D01*
X109195641Y-90684688D01*
X109052216Y-90726357D01*
X109037780Y-90732604D01*
X108910501Y-90807876D01*
X108898074Y-90817516D01*
X108793516Y-90922074D01*
X108783876Y-90934501D01*
X108708604Y-91061780D01*
X108702357Y-91076216D01*
X108660688Y-91219641D01*
X108658386Y-91232244D01*
X108656193Y-91260102D01*
X108656000Y-91265031D01*
X108656000Y-91360312D01*
X108635998Y-91428433D01*
X108582342Y-91474926D01*
X108512068Y-91485030D01*
X108447488Y-91455536D01*
X108440905Y-91449407D01*
X108385300Y-91393802D01*
X108380792Y-91390645D01*
X108380789Y-91390643D01*
X108270144Y-91313169D01*
X108197749Y-91262477D01*
X108192767Y-91260154D01*
X108190973Y-91259118D01*
X108141981Y-91207734D01*
X108128546Y-91138021D01*
X108154934Y-91072110D01*
X108190973Y-91040882D01*
X108192767Y-91039846D01*
X108197749Y-91037523D01*
X108338017Y-90939306D01*
X108380789Y-90909357D01*
X108380792Y-90909355D01*
X108385300Y-90906198D01*
X108547198Y-90744300D01*
X108570795Y-90710601D01*
X108635010Y-90618892D01*
X108678523Y-90556749D01*
X108680846Y-90551767D01*
X108680849Y-90551762D01*
X108772961Y-90354225D01*
X108772961Y-90354224D01*
X108775284Y-90349243D01*
X108812892Y-90208889D01*
X108849844Y-90148267D01*
X108913705Y-90117245D01*
X108934599Y-90115501D01*
X109982219Y-90115501D01*
X110050340Y-90135503D01*
G37*
%TD.AperFunction*%
%TA.AperFunction,Conductor*%
G36*
X123953564Y-80284502D02*
G01*
X124000057Y-80338158D01*
X124010161Y-80408432D01*
X124006440Y-80425653D01*
X123986688Y-80493641D01*
X123985232Y-80501609D01*
X123988052Y-80515031D01*
X123999513Y-80518000D01*
X124815500Y-80518000D01*
X124883621Y-80538002D01*
X124930114Y-80591658D01*
X124941500Y-80644000D01*
X124941500Y-80900000D01*
X124921498Y-80968121D01*
X124867842Y-81014614D01*
X124815500Y-81026000D01*
X124001576Y-81026000D01*
X123986781Y-81030344D01*
X123984937Y-81040775D01*
X123986688Y-81050359D01*
X124030569Y-81201397D01*
X124028152Y-81202099D01*
X124035336Y-81260258D01*
X124004564Y-81324239D01*
X123950875Y-81359373D01*
X123902895Y-81375380D01*
X123889714Y-81381555D01*
X123756827Y-81463788D01*
X123745426Y-81472824D01*
X123635014Y-81583429D01*
X123626002Y-81594840D01*
X123543996Y-81727880D01*
X123537849Y-81741061D01*
X123488509Y-81889814D01*
X123485642Y-81903190D01*
X123476328Y-81994097D01*
X123476000Y-82000514D01*
X123476000Y-82023885D01*
X123480475Y-82039124D01*
X123481865Y-82040329D01*
X123489548Y-82042000D01*
X124562000Y-82042000D01*
X124630121Y-82062002D01*
X124676614Y-82115658D01*
X124688000Y-82168000D01*
X124688000Y-83260885D01*
X124692475Y-83276124D01*
X124693865Y-83277329D01*
X124701548Y-83279000D01*
X124704438Y-83279000D01*
X124710953Y-83278663D01*
X124803057Y-83269106D01*
X124816456Y-83266212D01*
X124965107Y-83216619D01*
X124978286Y-83210445D01*
X125111173Y-83128212D01*
X125128311Y-83114629D01*
X125129841Y-83116559D01*
X125181880Y-83088097D01*
X125252699Y-83093113D01*
X125289617Y-83116799D01*
X125290372Y-83115843D01*
X125296118Y-83120381D01*
X125301298Y-83125552D01*
X125307528Y-83129392D01*
X125307529Y-83129393D01*
X125439020Y-83210445D01*
X125446899Y-83215302D01*
X125609243Y-83269149D01*
X125616080Y-83269849D01*
X125616082Y-83269850D01*
X125657401Y-83274083D01*
X125710268Y-83279500D01*
X125975340Y-83279500D01*
X126043461Y-83299502D01*
X126064435Y-83316405D01*
X126214345Y-83466315D01*
X126248371Y-83528627D01*
X126246247Y-83590562D01*
X126218233Y-83686989D01*
X126218232Y-83686993D01*
X126216438Y-83693169D01*
X126215934Y-83699574D01*
X126215933Y-83699579D01*
X126215473Y-83705424D01*
X126213500Y-83730498D01*
X126213500Y-84163502D01*
X126213693Y-84165950D01*
X126213693Y-84165958D01*
X126214482Y-84175974D01*
X126216438Y-84200831D01*
X126245472Y-84300769D01*
X126260586Y-84352790D01*
X126262855Y-84360601D01*
X126347547Y-84503807D01*
X126350229Y-84506489D01*
X126375502Y-84570861D01*
X126361600Y-84640484D01*
X126351428Y-84656312D01*
X126347547Y-84660193D01*
X126262855Y-84803399D01*
X126260644Y-84811010D01*
X126260643Y-84811012D01*
X126258454Y-84818548D01*
X126216438Y-84963169D01*
X126215934Y-84969574D01*
X126215933Y-84969579D01*
X126213693Y-84998042D01*
X126213500Y-85000498D01*
X126213500Y-85433502D01*
X126213693Y-85435950D01*
X126213693Y-85435958D01*
X126215295Y-85456307D01*
X126216438Y-85470831D01*
X126239614Y-85550603D01*
X126253041Y-85596819D01*
X126262855Y-85630601D01*
X126347547Y-85773807D01*
X126350229Y-85776489D01*
X126375502Y-85840861D01*
X126361600Y-85910484D01*
X126351428Y-85926312D01*
X126347547Y-85930193D01*
X126262855Y-86073399D01*
X126260644Y-86081010D01*
X126260643Y-86081012D01*
X126249583Y-86119081D01*
X126216438Y-86233169D01*
X126215934Y-86239574D01*
X126215933Y-86239579D01*
X126213693Y-86268042D01*
X126213500Y-86270498D01*
X126213500Y-86703502D01*
X126213693Y-86705950D01*
X126213693Y-86705958D01*
X126215469Y-86728518D01*
X126216438Y-86740831D01*
X126262855Y-86900601D01*
X126347547Y-87043807D01*
X126350229Y-87046489D01*
X126375502Y-87110861D01*
X126361600Y-87180484D01*
X126351428Y-87196312D01*
X126347547Y-87200193D01*
X126262855Y-87343399D01*
X126260644Y-87351010D01*
X126260643Y-87351012D01*
X126248074Y-87394275D01*
X126209861Y-87454111D01*
X126142502Y-87483450D01*
X126142513Y-87483500D01*
X126142266Y-87483552D01*
X126142264Y-87483553D01*
X126136061Y-87484872D01*
X126136056Y-87484872D01*
X126079038Y-87496992D01*
X125955712Y-87523206D01*
X125949682Y-87525891D01*
X125949681Y-87525891D01*
X125787278Y-87598197D01*
X125787276Y-87598198D01*
X125781248Y-87600882D01*
X125626747Y-87713134D01*
X125622326Y-87718044D01*
X125622325Y-87718045D01*
X125533861Y-87816295D01*
X125498960Y-87855056D01*
X125456029Y-87929415D01*
X125433688Y-87968111D01*
X125403473Y-88020444D01*
X125344458Y-88202072D01*
X125324496Y-88392000D01*
X125325186Y-88398565D01*
X125341140Y-88550362D01*
X125328368Y-88620200D01*
X125279866Y-88672047D01*
X125211033Y-88689441D01*
X125143723Y-88666859D01*
X125126735Y-88652627D01*
X124267405Y-87793297D01*
X124233379Y-87730985D01*
X124230500Y-87704202D01*
X124230500Y-87540498D01*
X124229428Y-87526875D01*
X124228067Y-87509579D01*
X124228066Y-87509574D01*
X124227562Y-87503169D01*
X124189754Y-87373031D01*
X124183357Y-87351012D01*
X124183356Y-87351010D01*
X124181145Y-87343399D01*
X124096453Y-87200193D01*
X124093771Y-87197511D01*
X124068498Y-87133139D01*
X124082400Y-87063516D01*
X124092572Y-87047688D01*
X124096453Y-87043807D01*
X124181145Y-86900601D01*
X124227562Y-86740831D01*
X124228532Y-86728518D01*
X124230307Y-86705958D01*
X124230307Y-86705950D01*
X124230500Y-86703502D01*
X124230500Y-86270498D01*
X124230307Y-86268042D01*
X124228067Y-86239579D01*
X124228066Y-86239574D01*
X124227562Y-86233169D01*
X124194417Y-86119081D01*
X124183357Y-86081012D01*
X124183356Y-86081010D01*
X124181145Y-86073399D01*
X124096453Y-85930193D01*
X124093771Y-85927511D01*
X124068498Y-85863139D01*
X124082400Y-85793516D01*
X124092572Y-85777688D01*
X124096453Y-85773807D01*
X124181145Y-85630601D01*
X124190960Y-85596819D01*
X124204386Y-85550603D01*
X124227562Y-85470831D01*
X124228706Y-85456307D01*
X124230307Y-85435958D01*
X124230307Y-85435950D01*
X124230500Y-85433502D01*
X124230500Y-85000498D01*
X124230307Y-84998042D01*
X124228067Y-84969579D01*
X124228066Y-84969574D01*
X124227562Y-84963169D01*
X124185546Y-84818548D01*
X124183357Y-84811012D01*
X124183356Y-84811010D01*
X124181145Y-84803399D01*
X124096453Y-84660193D01*
X124093513Y-84657253D01*
X124068180Y-84592734D01*
X124082079Y-84523111D01*
X124094126Y-84504364D01*
X124100090Y-84496676D01*
X124176648Y-84367221D01*
X124182893Y-84352790D01*
X124221939Y-84218395D01*
X124221899Y-84204294D01*
X124214630Y-84201000D01*
X121285122Y-84201000D01*
X121269883Y-84205475D01*
X121255018Y-84222630D01*
X121195292Y-84261014D01*
X121142512Y-84263786D01*
X121142466Y-84264371D01*
X121138023Y-84264021D01*
X121138021Y-84264021D01*
X121136055Y-84263866D01*
X121136053Y-84263866D01*
X121108444Y-84261693D01*
X121108438Y-84261693D01*
X121105989Y-84261500D01*
X120906122Y-84261500D01*
X120706012Y-84261501D01*
X120669534Y-84264371D01*
X120587211Y-84288288D01*
X120521017Y-84307519D01*
X120521015Y-84307520D01*
X120513404Y-84309731D01*
X120506579Y-84313767D01*
X120506575Y-84313769D01*
X120460139Y-84341231D01*
X120391323Y-84358691D01*
X120331861Y-84341231D01*
X120285425Y-84313769D01*
X120285421Y-84313767D01*
X120278596Y-84309731D01*
X120270985Y-84307520D01*
X120270983Y-84307519D01*
X120128644Y-84266166D01*
X120128645Y-84266166D01*
X120122466Y-84264371D01*
X120116059Y-84263867D01*
X120116055Y-84263866D01*
X120088444Y-84261693D01*
X120088438Y-84261693D01*
X120085989Y-84261500D01*
X119886122Y-84261500D01*
X119686012Y-84261501D01*
X119649534Y-84264371D01*
X119567211Y-84288288D01*
X119501017Y-84307519D01*
X119501015Y-84307520D01*
X119493404Y-84309731D01*
X119486579Y-84313767D01*
X119486575Y-84313769D01*
X119401718Y-84363953D01*
X119337579Y-84381500D01*
X117718219Y-84381500D01*
X117650098Y-84361498D01*
X117624583Y-84339810D01*
X117620141Y-84334876D01*
X117590489Y-84301945D01*
X117580675Y-84291045D01*
X117580674Y-84291044D01*
X117576253Y-84286134D01*
X117458844Y-84200831D01*
X117427094Y-84177763D01*
X117427093Y-84177762D01*
X117421752Y-84173882D01*
X117415724Y-84171198D01*
X117415722Y-84171197D01*
X117253319Y-84098891D01*
X117253318Y-84098891D01*
X117247288Y-84096206D01*
X117094431Y-84063715D01*
X117031533Y-84029563D01*
X116941634Y-83939664D01*
X116907608Y-83877352D01*
X116905117Y-83860449D01*
X116904957Y-83858408D01*
X116903629Y-83841534D01*
X116871370Y-83730498D01*
X116860481Y-83693017D01*
X116860480Y-83693015D01*
X116858269Y-83685404D01*
X116854233Y-83678579D01*
X116854231Y-83678575D01*
X116852475Y-83675605D01*
X121272061Y-83675605D01*
X121272101Y-83689706D01*
X121279370Y-83693000D01*
X122474885Y-83693000D01*
X122490124Y-83688525D01*
X122491329Y-83687135D01*
X122493000Y-83679452D01*
X122493000Y-83674885D01*
X123001000Y-83674885D01*
X123005475Y-83690124D01*
X123006865Y-83691329D01*
X123014548Y-83693000D01*
X124208878Y-83693000D01*
X124222409Y-83689027D01*
X124223544Y-83681129D01*
X124182893Y-83541210D01*
X124176645Y-83526773D01*
X124132054Y-83451373D01*
X124114594Y-83382557D01*
X124137111Y-83315226D01*
X124152930Y-83302515D01*
X124152896Y-83302486D01*
X124178329Y-83273135D01*
X124180000Y-83265452D01*
X124180000Y-82568115D01*
X124175525Y-82552876D01*
X124174135Y-82551671D01*
X124166452Y-82550000D01*
X123494115Y-82550000D01*
X123478876Y-82554475D01*
X123477671Y-82555865D01*
X123476000Y-82563548D01*
X123476000Y-82591438D01*
X123476337Y-82597953D01*
X123485894Y-82690057D01*
X123488788Y-82703456D01*
X123538381Y-82852107D01*
X123544554Y-82865285D01*
X123594934Y-82946697D01*
X123613772Y-83015149D01*
X123592611Y-83082918D01*
X123538170Y-83128489D01*
X123487790Y-83139000D01*
X123019115Y-83139000D01*
X123003876Y-83143475D01*
X123002671Y-83144865D01*
X123001000Y-83152548D01*
X123001000Y-83674885D01*
X122493000Y-83674885D01*
X122493000Y-83157116D01*
X122488525Y-83141877D01*
X122487135Y-83140672D01*
X122479452Y-83139001D01*
X121858017Y-83139001D01*
X121853080Y-83139195D01*
X121824664Y-83141430D01*
X121812069Y-83143730D01*
X121666210Y-83186107D01*
X121651779Y-83192352D01*
X121522322Y-83268911D01*
X121509896Y-83278551D01*
X121403551Y-83384896D01*
X121393911Y-83397322D01*
X121317352Y-83526779D01*
X121311107Y-83541210D01*
X121272061Y-83675605D01*
X116852475Y-83675605D01*
X116826769Y-83632139D01*
X116809309Y-83563323D01*
X116826769Y-83503861D01*
X116854231Y-83457425D01*
X116854233Y-83457421D01*
X116858269Y-83450596D01*
X116903629Y-83294466D01*
X116904135Y-83288047D01*
X116906307Y-83260444D01*
X116906307Y-83260438D01*
X116906500Y-83257989D01*
X116906499Y-82858012D01*
X116903629Y-82821534D01*
X116869324Y-82703456D01*
X116860481Y-82673017D01*
X116860480Y-82673015D01*
X116858269Y-82665404D01*
X116777046Y-82528063D01*
X116759500Y-82463924D01*
X116759500Y-81726500D01*
X116779502Y-81658379D01*
X116833158Y-81611886D01*
X116885500Y-81600500D01*
X117250345Y-81600499D01*
X117284746Y-81600499D01*
X117321937Y-81597573D01*
X117422379Y-81568392D01*
X117473487Y-81553544D01*
X117473489Y-81553543D01*
X117481100Y-81551332D01*
X117613851Y-81472824D01*
X117616942Y-81470996D01*
X117616943Y-81470996D01*
X117623763Y-81466962D01*
X117740962Y-81349763D01*
X117751293Y-81332295D01*
X117821297Y-81213923D01*
X117825332Y-81207100D01*
X117829142Y-81193988D01*
X117843630Y-81144119D01*
X117871573Y-81047937D01*
X117872077Y-81041532D01*
X117872078Y-81041527D01*
X117874307Y-81013203D01*
X117874307Y-81013195D01*
X117874500Y-81010747D01*
X117874499Y-80533254D01*
X117871573Y-80496063D01*
X117851117Y-80425653D01*
X117851320Y-80354657D01*
X117889874Y-80295040D01*
X117954539Y-80265732D01*
X117972114Y-80264500D01*
X123885443Y-80264500D01*
X123953564Y-80284502D01*
G37*
%TD.AperFunction*%
%TA.AperFunction,Conductor*%
G36*
X112470015Y-81001267D02*
G01*
X112523803Y-81047607D01*
X112538997Y-81080877D01*
X112571859Y-81193988D01*
X112575668Y-81207100D01*
X112653137Y-81338093D01*
X112653954Y-81339475D01*
X112671500Y-81403614D01*
X112671500Y-82388263D01*
X112651498Y-82456384D01*
X112634595Y-82477358D01*
X112586494Y-82525459D01*
X112582460Y-82532280D01*
X112571981Y-82550000D01*
X112503731Y-82665404D01*
X112501520Y-82673015D01*
X112501519Y-82673017D01*
X112492676Y-82703456D01*
X112458371Y-82821534D01*
X112457867Y-82827941D01*
X112457866Y-82827945D01*
X112455693Y-82855556D01*
X112455500Y-82858011D01*
X112455501Y-83257988D01*
X112458371Y-83294466D01*
X112503731Y-83450596D01*
X112507767Y-83457421D01*
X112507769Y-83457425D01*
X112535231Y-83503861D01*
X112552691Y-83572677D01*
X112535231Y-83632139D01*
X112507769Y-83678575D01*
X112507767Y-83678579D01*
X112503731Y-83685404D01*
X112501520Y-83693015D01*
X112501519Y-83693017D01*
X112490630Y-83730498D01*
X112458371Y-83841534D01*
X112457867Y-83847941D01*
X112457866Y-83847945D01*
X112457650Y-83850691D01*
X112455500Y-83878011D01*
X112455501Y-84277988D01*
X112458371Y-84314466D01*
X112477167Y-84379163D01*
X112501207Y-84461907D01*
X112503731Y-84470596D01*
X112507766Y-84477418D01*
X112507766Y-84477419D01*
X112555879Y-84558774D01*
X112586494Y-84610541D01*
X112701459Y-84725506D01*
X112708280Y-84729540D01*
X112833797Y-84803770D01*
X112841404Y-84808269D01*
X112849015Y-84810480D01*
X112849017Y-84810481D01*
X112939068Y-84836643D01*
X112997534Y-84853629D01*
X113003943Y-84854133D01*
X113003946Y-84854134D01*
X113012748Y-84854826D01*
X113016454Y-84855118D01*
X113082796Y-84880402D01*
X113095665Y-84891635D01*
X113105362Y-84901332D01*
X113139388Y-84963644D01*
X113141577Y-85003597D01*
X113132496Y-85090000D01*
X113133186Y-85096565D01*
X113150633Y-85262561D01*
X113152458Y-85279928D01*
X113211473Y-85461556D01*
X113306960Y-85626944D01*
X113311378Y-85631851D01*
X113311379Y-85631852D01*
X113410496Y-85741933D01*
X113434747Y-85768866D01*
X113519482Y-85830430D01*
X113576634Y-85871953D01*
X113589248Y-85881118D01*
X113595276Y-85883802D01*
X113595278Y-85883803D01*
X113714811Y-85937022D01*
X113763712Y-85958794D01*
X113863895Y-85980089D01*
X113916568Y-85991285D01*
X113979467Y-86025437D01*
X114387465Y-86433436D01*
X114794565Y-86840536D01*
X114800418Y-86846801D01*
X114824732Y-86874672D01*
X114838439Y-86890385D01*
X114890729Y-86927136D01*
X114895971Y-86931028D01*
X114946282Y-86970476D01*
X114953201Y-86973600D01*
X114955493Y-86974988D01*
X114970165Y-86983357D01*
X114972525Y-86984622D01*
X114978739Y-86988990D01*
X114985818Y-86991750D01*
X114985820Y-86991751D01*
X115038275Y-87012202D01*
X115044344Y-87014753D01*
X115102573Y-87041045D01*
X115110046Y-87042430D01*
X115112612Y-87043234D01*
X115128835Y-87047855D01*
X115131427Y-87048520D01*
X115138509Y-87051282D01*
X115146044Y-87052274D01*
X115201861Y-87059622D01*
X115208377Y-87060654D01*
X115245541Y-87067542D01*
X115271186Y-87072295D01*
X115278766Y-87071858D01*
X115278767Y-87071858D01*
X115333380Y-87068709D01*
X115340633Y-87068500D01*
X119047132Y-87068500D01*
X119115253Y-87088502D01*
X119161746Y-87142158D01*
X119171850Y-87212432D01*
X119168129Y-87229653D01*
X119132688Y-87351641D01*
X119131232Y-87359609D01*
X119134052Y-87373031D01*
X119145513Y-87376000D01*
X119961500Y-87376000D01*
X120029621Y-87396002D01*
X120076114Y-87449658D01*
X120087500Y-87502000D01*
X120087500Y-87620081D01*
X120067498Y-87688202D01*
X120013842Y-87734695D01*
X119968754Y-87745872D01*
X119935128Y-87747811D01*
X119927874Y-87748020D01*
X114828520Y-87748020D01*
X114760399Y-87728018D01*
X114713906Y-87674362D01*
X114703210Y-87635191D01*
X114686232Y-87473655D01*
X114686232Y-87473653D01*
X114685542Y-87467092D01*
X114626527Y-87285464D01*
X114617141Y-87269206D01*
X114565917Y-87180484D01*
X114531040Y-87120076D01*
X114493130Y-87077972D01*
X114407675Y-86983065D01*
X114407674Y-86983064D01*
X114403253Y-86978154D01*
X114267028Y-86879180D01*
X114254094Y-86869783D01*
X114254093Y-86869782D01*
X114248752Y-86865902D01*
X114242724Y-86863218D01*
X114242722Y-86863217D01*
X114080319Y-86790911D01*
X114080318Y-86790911D01*
X114074288Y-86788226D01*
X113968002Y-86765634D01*
X113893944Y-86749892D01*
X113893939Y-86749892D01*
X113887487Y-86748520D01*
X113866949Y-86748520D01*
X113798828Y-86728518D01*
X113777854Y-86711615D01*
X112201405Y-85135165D01*
X112167379Y-85072853D01*
X112164500Y-85046070D01*
X112164500Y-81403614D01*
X112182046Y-81339475D01*
X112182864Y-81338093D01*
X112260332Y-81207100D01*
X112264142Y-81193988D01*
X112297003Y-81080877D01*
X112335216Y-81021042D01*
X112399712Y-80991364D01*
X112470015Y-81001267D01*
G37*
%TD.AperFunction*%
%TD*%
M02*
