M48
INCH
T1C0.0157
T2C0.0360
T3C0.0394
T4C0.0394
T5C0.1024
T6C0.1260
%
G90
G05
T1
X4.29Y-3.22
X4.43Y-3.22
X4.48Y-3.4511
X4.49Y-3.35
X4.57Y-3.66
X4.6049Y-3.3451
X4.62Y-3.57
X4.74Y-3.23
X4.97Y-3.48
X5.1Y-3.37
X5.34Y-3.47
T2
X5.43Y-3.2952
X5.43Y-3.3952
X5.43Y-3.4948
X5.43Y-3.5948
X5.53Y-3.3448
X5.53Y-3.4452
X5.53Y-3.5448
X5.53Y-3.6448
T3
X4.2331Y-3.3622
X4.2339Y-3.4606
X4.2339Y-3.5394
X4.2339Y-3.6378
T4
X4.1414Y-3.4114
X4.1414Y-3.5886
T5
X4.1489Y-3.2638
X4.1489Y-3.7362
T6
X5.78Y-3.2452
X5.78Y-3.6952
T0
M30
